<svg width="51" height="61" viewBox="0 0 51 61" fill="none" xmlns="http://www.w3.org/2000/svg">
<mask id="mask0_52_3386" style="mask-type:luminance" maskUnits="userSpaceOnUse" x="-8" y="0" width="59" height="61">
<path d="M51 0H-8V61H51V0Z" fill="white"/>
</mask>
<g mask="url(#mask0_52_3386)">
<path d="M43.1641 15.9925C43.1641 10.1998 41.2235 3.2007 35.7769 0.930053C31.7482 -0.750488 29.3044 0.176579 26.7185 1.15902C25.0497 1.86769 23.2931 2.33138 21.5 2.53658C19.707 2.33115 17.9505 1.86747 16.2816 1.15901C13.6951 0.177503 11.2513 -0.750021 7.22357 0.930053C1.77649 3.2007 -0.164033 10.1998 -0.164033 15.9925C-0.17033 19.492 0.844692 22.912 2.74833 25.8056V33.5834C2.74833 33.8362 2.84549 34.0786 3.01834 34.2574C3.1912 34.4361 3.42572 34.5366 3.6702 34.5366H4.97539C5.22854 35.4696 5.49994 36.3923 5.78968 37.3048L4.07398 37.5542C3.84305 37.5878 3.63305 37.7107 3.4862 37.8979C3.33943 38.0853 3.26679 38.3232 3.28283 38.5637C3.29896 38.8043 3.40258 39.0296 3.57294 39.1942C3.74331 39.3589 3.96769 39.4507 4.20093 39.4511C4.24425 39.4512 4.28758 39.4481 4.33054 39.4418L6.40227 39.1406C6.7547 40.1485 7.12124 41.1449 7.51571 42.1146C7.56264 42.2299 7.63113 42.3347 7.71714 42.4226C7.80324 42.5107 7.9052 42.5804 8.0173 42.6276C8.1294 42.6749 8.24943 42.6988 8.37057 42.6982C8.49161 42.6975 8.61136 42.6722 8.723 42.6236C8.83455 42.5751 8.93586 42.5044 9.02095 42.4154C9.10613 42.3264 9.17352 42.2209 9.21924 42.105C9.26497 41.9891 9.28811 41.865 9.28746 41.7399C9.28682 41.6147 9.26239 41.4909 9.21537 41.3755C8.88221 40.5566 8.56987 39.7173 8.26741 38.8698L36.0287 34.8357C35.8489 35.4666 35.6575 36.1133 35.4443 36.7839C35.4065 36.9028 35.3916 37.0282 35.4007 37.153C35.4097 37.2778 35.4424 37.3996 35.497 37.5113C35.5516 37.623 35.6268 37.7225 35.7186 37.8041C35.8104 37.8857 35.9167 37.9479 36.0317 37.987C36.1467 38.0261 36.268 38.0414 36.3887 38.0321C36.5094 38.0227 36.6271 37.9889 36.7352 37.9325C36.8432 37.876 36.9395 37.7983 37.0184 37.7033C37.0974 37.6085 37.1575 37.4985 37.1953 37.3796C37.472 36.5108 37.7204 35.6701 37.9427 34.8667L38.0326 34.5366H39.3299C39.5744 34.5366 39.8088 34.4361 39.9817 34.2574C40.1546 34.0786 40.2517 33.8362 40.2518 33.5834V25.8061C42.1555 22.9124 43.1706 19.4922 43.1641 15.9925ZM7.91322 2.69761C11.2824 1.29259 13.1132 1.98695 15.6465 2.94846C17.4927 3.72713 19.4367 4.2303 21.42 4.44283C21.4733 4.44749 21.5269 4.44749 21.5802 4.44283C23.5634 4.2303 25.5074 3.72713 27.3536 2.94846C29.8879 1.98789 31.7182 1.29306 35.0873 2.69761C39.6828 4.61363 41.3204 10.8215 41.3204 15.9925C41.3289 19.0218 40.4789 21.9872 38.8756 24.5227H4.12459C2.52136 21.9871 1.67148 19.0217 1.67969 15.9925C1.67969 10.8215 3.31731 4.61363 7.91322 2.69761ZM37.6166 32.6303C37.4743 32.6328 37.3347 32.6702 37.209 32.7392L7.64274 37.0356C7.25067 35.8215 6.88589 34.5882 6.56046 33.3363C6.55475 33.3142 6.53926 33.2985 6.53216 33.2774C6.51059 33.2172 6.48293 33.1594 6.44956 33.1053C6.39609 32.9997 6.32133 32.9075 6.23025 32.8346C6.13917 32.7617 6.03398 32.71 5.92188 32.6829C5.85965 32.6622 5.7954 32.6488 5.73032 32.6429C5.7093 32.6415 5.6915 32.6303 5.67012 32.6303H4.59208V26.8941C4.6154 26.8783 4.64186 26.8715 4.66407 26.8534C4.79388 26.7419 4.89049 26.5947 4.94276 26.4289H38.0572C38.1094 26.5947 38.2059 26.7418 38.3355 26.8534C38.3576 26.8715 38.3848 26.8757 38.408 26.8913V32.6303H37.6166Z" fill="currentColor"/>
<path d="M37.6781 39.691L9.54748 43.7785L6.92861 44.1592C6.69769 44.1929 6.48768 44.3157 6.34083 44.5031C6.19406 44.6904 6.12133 44.9283 6.13746 45.1689C6.15359 45.4094 6.25721 45.6347 6.42758 45.7994C6.59794 45.964 6.82232 46.0557 7.05556 46.0562C7.09889 46.0563 7.14221 46.0532 7.18517 46.0469L9.14868 45.7615C9.61957 46.7231 10.1126 47.6672 10.621 48.5666C10.7445 48.7847 10.9467 48.9433 11.1833 49.0074C11.4198 49.0714 11.6713 49.0358 11.8823 48.9082C12.0934 48.7804 12.2468 48.5714 12.3088 48.3269C12.3707 48.0823 12.3362 47.8223 12.2127 47.6041C11.826 46.92 11.4513 46.205 11.0854 45.4801L33.4224 42.2344C33.0695 43.0633 32.7025 43.8851 32.3194 44.6782C32.2648 44.7902 32.2322 44.9122 32.2234 45.0372C32.2146 45.1623 32.2298 45.2879 32.268 45.407C32.3063 45.5259 32.3668 45.6359 32.4462 45.7307C32.5257 45.8255 32.6224 45.9031 32.7309 45.9591C32.8394 46.015 32.9575 46.0484 33.0785 46.0572C33.1995 46.0659 33.321 46.0499 33.4359 46.01C33.5509 45.9702 33.6571 45.9072 33.7485 45.8248C33.84 45.7425 33.9148 45.6422 33.9686 45.5298C34.4516 44.5302 34.9166 43.4915 35.3505 42.4424C35.4111 42.2852 35.4289 42.1138 35.4018 41.9468L37.9347 41.5787C38.1752 41.5417 38.3918 41.4078 38.5374 41.2064C38.6829 41.005 38.7456 40.7523 38.7117 40.5033C38.6779 40.2544 38.5503 40.0293 38.3567 39.8772C38.1631 39.725 37.9192 39.6581 37.6781 39.691Z" fill="currentColor"/>
<path d="M33.506 47.6967L11.141 50.9465C10.9101 50.9801 10.7001 51.1029 10.5532 51.2903C10.4064 51.4777 10.3338 51.7156 10.3498 51.9561C10.366 52.1967 10.4696 52.422 10.64 52.5866C10.8103 52.7513 11.0347 52.8431 11.2679 52.8434C11.3114 52.8435 11.3547 52.8405 11.3976 52.8341L13.2502 52.5649C13.2768 52.6962 13.3304 52.8201 13.4074 52.9282C15.54 55.9187 18.0804 58.574 20.9495 60.8115C21.1086 60.9341 21.3018 61.0004 21.5004 61.0004C21.699 61.0004 21.8922 60.9341 22.0514 60.8115C25.7818 57.8791 28.964 54.268 31.4416 50.1553C31.4836 50.078 31.5147 49.9947 31.5338 49.9082L33.7624 49.5843C34.0029 49.5473 34.2196 49.4134 34.3651 49.212C34.5106 49.0106 34.5733 48.7579 34.5395 48.5089C34.5056 48.26 34.3781 48.0349 34.1845 47.8828C33.9909 47.7307 33.747 47.6638 33.506 47.6967ZM21.5004 58.8489C19.1606 56.937 17.0633 54.7277 15.2584 52.2731L29.1669 50.2522C27.0593 53.5124 24.4727 56.4129 21.5004 58.8489Z" fill="currentColor"/>
</g>
</svg>
