<svg xmlns="http://www.w3.org/2000/svg" width="55" height="52" viewBox="0 0 55 52" fill="none">
<path d="M46.5557 16.5128C46.4466 16.4852 46.3328 16.4783 46.2209 16.4925C46.109 16.5066 46.001 16.5415 45.9034 16.5951C45.8058 16.6487 45.7203 16.72 45.6518 16.8049C45.5834 16.8899 45.5334 16.9868 45.5046 17.0901C45.0358 18.7866 44.2012 20.3732 43.0532 21.7504C42.3717 22.5664 42.0339 23.592 42.1048 24.6295C42.1744 25.6601 42.2119 26.7206 42.216 27.7783V27.9442C42.3453 35.1358 40.702 42.2573 37.416 48.7446C36.8756 49.8464 36.1803 50.4525 35.5832 50.3668C35.2815 50.2754 35.0168 50.0988 34.8244 49.8607C34.6322 49.6226 34.5217 49.3346 34.5077 49.0354C34.3756 48.1388 34.2475 47.1578 34.1137 46.1317C33.1733 38.9153 32.1071 30.7359 27.5006 30.7359C22.8941 30.7359 21.8281 38.9149 20.8877 46.1306C20.7539 47.1569 20.6259 48.1384 20.4937 49.0354C20.4798 49.3346 20.3692 49.6226 20.177 49.8607C19.9846 50.0988 19.7199 50.2754 19.4182 50.3668C18.8132 50.4525 18.1254 49.8463 17.5854 48.7446C14.2991 42.2574 12.6556 35.1359 12.7849 27.9442V27.7811C12.7891 26.727 12.8265 25.6666 12.8961 24.6291C12.9674 23.5917 12.6295 22.5661 11.9478 21.7504C10.7848 20.3464 9.94199 18.7299 9.47243 17.0027C9.44442 16.8993 9.39517 16.8021 9.32737 16.7166C9.25956 16.6312 9.17457 16.5592 9.07738 16.505C8.98018 16.4506 8.8725 16.4149 8.7607 16.3999C8.64889 16.3849 8.53501 16.3909 8.42563 16.4175C8.31625 16.4442 8.2135 16.491 8.12326 16.5552C8.03301 16.6195 7.95705 16.6998 7.89972 16.7919C7.84237 16.8838 7.80478 16.9856 7.78909 17.0914C7.77341 17.1971 7.77992 17.3048 7.80827 17.4081C8.33177 19.3565 9.2826 21.1791 10.5992 22.7576C11.0178 23.2587 11.225 23.8887 11.1807 24.5259C11.1089 25.5955 11.0704 26.6888 11.0661 27.7782V27.9441C10.9573 35.3702 12.6544 42.7207 16.026 49.4285C17.2928 52.0108 18.9965 52.068 19.6712 51.9743C20.3429 51.8351 20.9501 51.4967 21.4041 51.0084C21.8582 50.5201 22.1355 49.9076 22.1957 49.2599C22.3295 48.3554 22.4584 47.3648 22.5935 46.3293C23.3186 40.7668 24.4138 32.3609 27.5005 32.3609C30.5873 32.3609 31.6828 40.7675 32.4079 46.3305C32.543 47.3656 32.6719 48.3554 32.8057 49.2599C32.8659 49.9076 33.1432 50.5201 33.5972 51.0084C34.0513 51.4967 34.6585 51.8351 35.3302 51.9743C35.4478 51.9907 35.5666 51.9988 35.6855 51.9985C36.4912 51.9985 37.8932 51.6347 38.9754 49.4285C42.3468 42.7206 44.0435 35.3702 43.9348 27.9441V27.7751C43.9306 26.6821 43.892 25.5887 43.8203 24.5263C43.7764 23.889 43.9836 23.2588 44.4018 22.7572C45.696 21.2058 46.6372 19.4182 47.1663 17.5066C47.2246 17.2982 47.193 17.0766 47.0785 16.8903C46.964 16.7039 46.776 16.5681 46.5557 16.5128Z" fill="currentColor"/>
<path d="M8.3754 10.5821C8.4285 10.5917 8.48246 10.5965 8.53653 10.5964C8.73647 10.5961 8.93 10.5299 9.084 10.4093C9.23791 10.2887 9.34258 10.1211 9.37997 9.93541C9.83191 7.68798 11.1411 3.70764 14.8342 2.29961C17.975 1.10229 19.6816 1.6942 22.0431 2.51345C23.7642 3.17724 25.5763 3.60616 27.4251 3.78734L27.4999 3.7937L27.5746 3.78734C29.4233 3.60616 31.2355 3.17724 32.9566 2.51345C35.319 1.6946 37.0251 1.10229 40.166 2.29961C43.8557 3.70681 45.1657 7.68282 45.6181 9.92753C45.661 10.1389 45.7909 10.3257 45.9793 10.4466C46.1677 10.5676 46.3991 10.613 46.6228 10.5727C46.8466 10.5324 47.0442 10.4098 47.1724 10.2319C47.3006 10.054 47.3489 9.83523 47.3066 9.62365C46.412 5.18544 44.1045 2.04929 40.8089 0.792857C37.0533 -0.639735 34.7752 0.15055 32.3645 0.988044C30.8088 1.59215 29.1715 1.98743 27.4999 2.16236C25.8283 1.98743 24.1909 1.59215 22.6352 0.988019C20.2232 0.150534 17.9443 -0.639751 14.1913 0.792841C10.8926 2.05007 8.58434 5.18938 7.69139 9.63235C7.67031 9.73716 7.67128 9.8449 7.69425 9.94938C7.71722 10.0539 7.76175 10.153 7.82526 10.2412C7.88879 10.3294 7.97007 10.405 8.06446 10.4635C8.15885 10.5219 8.26451 10.5623 8.3754 10.5821Z" fill="currentColor"/>
<path d="M50.3271 12.7495H36.5894V10.8098C36.588 9.63163 36.0923 8.50201 35.211 7.66883C34.3298 6.83566 33.135 6.36702 31.8887 6.36572H23.1116C21.8654 6.36703 20.6706 6.83567 19.7893 7.66883C18.9081 8.50201 18.4125 9.63163 18.4111 10.8098V12.7495H4.67285C4.44493 12.7495 4.22635 12.8351 4.06518 12.9875C3.90402 13.1398 3.81348 13.3465 3.81348 13.562C3.81348 13.7775 3.90402 13.9841 4.06518 14.1365C4.22635 14.2889 4.44493 14.3745 4.67285 14.3745H18.4111V16.3141C18.4125 17.4923 18.9081 18.6219 19.7893 19.4552C20.6706 20.2883 21.8654 20.7569 23.1116 20.7582H31.8887C33.135 20.7569 34.3298 20.2883 35.211 19.4552C36.0923 18.6219 36.588 17.4923 36.5894 16.3141V14.3745H50.3271C50.5551 14.3745 50.7737 14.2889 50.9348 14.1365C51.0959 13.9841 51.1865 13.7775 51.1865 13.562C51.1865 13.3465 51.0959 13.1398 50.9348 12.9875C50.7737 12.8351 50.5551 12.7495 50.3271 12.7495ZM34.8706 16.3141C34.8697 17.0615 34.5552 17.7781 33.9962 18.3065C33.4372 18.8351 32.6793 19.1324 31.8887 19.1332H23.1116C22.3211 19.1324 21.5632 18.8351 21.0042 18.3065C20.4452 17.7781 20.1308 17.0615 20.1298 16.3141V14.3745H21.7441C21.9721 14.3745 22.1906 14.2889 22.3517 14.1365C22.513 13.9841 22.6035 13.7775 22.6035 13.562C22.6035 13.3465 22.513 13.1398 22.3517 12.9875C22.1906 12.8351 21.9721 12.7495 21.7441 12.7495H20.1298V10.8098C20.1308 10.0625 20.4452 9.34587 21.0042 8.81742C21.5632 8.28889 22.3211 7.9916 23.1116 7.99072H31.8887C32.6793 7.9916 33.4372 8.28889 33.9962 8.81742C34.5552 9.34587 34.8697 10.0624 34.8706 10.8098V12.7495H33.5014C33.2735 12.7495 33.0548 12.8351 32.8937 12.9875C32.7326 13.1398 32.642 13.3465 32.642 13.562C32.642 13.7775 32.7326 13.9841 32.8937 14.1365C33.0548 14.2889 33.2735 14.3745 33.5014 14.3745H34.8706V16.3141Z" fill="currentColor"/>
<path d="M24.7852 9.77002C24.5573 9.77002 24.3387 9.85558 24.1775 10.008C24.0164 10.1603 23.9258 10.367 23.9258 10.5825V16.4934C23.9258 16.7089 24.0164 16.9155 24.1775 17.0679C24.3386 17.2202 24.5573 17.3059 24.7852 17.3059C25.0131 17.3059 25.2317 17.2202 25.3928 17.0679C25.554 16.9155 25.6445 16.7089 25.6445 16.4934V10.5825C25.6445 10.367 25.554 10.1603 25.3928 10.008C25.2317 9.85558 25.0131 9.77002 24.7852 9.77002Z" fill="currentColor"/>
<path d="M30.2139 9.77002C29.986 9.77002 29.7673 9.85558 29.6062 10.008C29.4451 10.1603 29.3545 10.367 29.3545 10.5825V16.4934C29.3545 16.7089 29.4451 16.9155 29.6062 17.0679C29.7673 17.2202 29.986 17.3059 30.2139 17.3059C30.4418 17.3059 30.6604 17.2202 30.8215 17.0679C30.9827 16.9155 31.0732 16.7089 31.0732 16.4934V10.5825C31.0732 10.367 30.9827 10.1603 30.8215 10.008C30.6604 9.85558 30.4418 9.77002 30.2139 9.77002Z" fill="currentColor"/>
</svg>
