<svg xmlns="http://www.w3.org/2000/svg" width="58" height="58" viewBox="0 0 58 58" fill="none">
<g clip-path="url(#clip0_120_142)">
<mask id="mask0_120_142" style="mask-type:luminance" maskUnits="userSpaceOnUse" x="0" y="0" width="58" height="58">
<path d="M58 0H0V58H58V0Z" fill="white"/>
</mask>
<g mask="url(#mask0_120_142)">
<path d="M13.9467 23.8502C13.8807 24.8892 13.8454 25.9499 13.8419 27.0057V27.1659C13.7419 34.3708 15.2984 41.5024 18.3912 48.0105C19.5847 50.5832 21.2113 50.6403 21.8534 50.5426C22.4936 50.4039 23.0726 50.0644 23.5064 49.5736C23.94 49.0826 24.2055 48.466 24.2641 47.8136C24.3867 46.937 24.5052 45.9773 24.6288 44.9736C25.2469 39.957 26.282 31.5608 28.9998 31.5608C31.7181 31.5608 32.7531 39.9579 33.3713 44.9745C33.4952 45.9776 33.6133 46.9375 33.736 47.8136C33.7946 48.466 34.06 49.0826 34.4938 49.5736C34.9274 50.0644 35.5065 50.4039 36.1467 50.5426C36.2606 50.5593 36.3755 50.5675 36.4905 50.5673C37.2596 50.5673 38.5915 50.204 39.6089 48.0105C42.7017 41.5024 44.2581 34.3708 44.1583 27.1659V27.0021C44.1543 25.9424 44.1189 24.8817 44.0533 23.8502C44.0149 23.2628 44.1954 22.6821 44.56 22.22C46.5419 19.6756 47.6124 16.5397 47.6 13.3146C47.6 8.49662 45.9247 2.67237 41.2231 0.775798C39.4357 -0.0259706 37.4305 -0.202896 35.5303 0.273509C34.8135 0.466178 34.1074 0.696904 33.4151 0.964704C32.0027 1.54349 30.5168 1.9231 28.9998 2.09262C27.4845 1.92303 26.0003 1.5431 24.5898 0.963789C22.3604 0.145601 20.2555 -0.626569 16.7769 0.775725C12.0753 2.6723 10.4 8.49655 10.4 13.3146C10.3874 16.5397 11.458 19.6757 13.44 22.2199C13.8045 22.6821 13.985 23.2628 13.9467 23.8502ZM17.4549 2.45638C20.2865 1.31517 21.8295 1.88113 23.965 2.66525C25.5499 3.3115 27.2187 3.72898 28.9211 3.90512L28.9999 3.9122L29.0786 3.90512C30.7822 3.72905 32.4522 3.31219 34.0386 2.667C34.6717 2.42186 35.317 2.20962 35.9719 2.03111C37.4993 1.63522 39.1171 1.78565 40.5452 2.45636C44.4106 4.01575 45.7876 9.08774 45.7876 13.3146C45.8005 16.132 44.8674 18.8722 43.1379 21.0965C42.4958 21.9094 42.1774 22.9313 42.2445 23.9652C42.3078 24.9608 42.3419 25.9852 42.3458 27.0057V27.1659C42.464 34.1091 40.9639 40.9845 37.9646 47.2477C37.5012 48.2477 36.9145 48.8221 36.4136 48.75C36.1648 48.6628 35.9478 48.5032 35.7905 48.2917C35.6332 48.0801 35.5427 47.8265 35.5308 47.5631C35.41 46.6954 35.2927 45.7457 35.1701 44.7528C34.3033 37.7196 33.3209 29.7483 28.9998 29.7483C24.6792 29.7483 23.6969 37.7192 22.83 44.7519C22.7074 45.7448 22.5906 46.6949 22.4694 47.563C22.4574 47.8264 22.367 48.0801 22.2096 48.2916C22.0523 48.5031 21.8353 48.6627 21.5865 48.7499C21.09 48.8163 20.4993 48.2472 20.0355 47.2476C17.0362 40.9845 15.5362 34.1091 15.6544 27.1659V27.0087C15.6579 25.9918 15.692 24.968 15.7557 23.9652C15.8225 22.9314 15.5043 21.9095 14.8622 21.0965C13.1325 18.8723 12.1995 16.132 12.2125 13.3146C12.2125 9.08774 13.5896 4.01578 17.4549 2.45638Z" fill="currentColor"/>
<path d="M55.1574 20.8839C53.4643 19.6631 51.0836 19.6241 47.667 20.7605C47.5538 20.7979 47.4492 20.8572 47.359 20.9351C47.2687 21.0131 47.1948 21.1079 47.1413 21.2145C47.0878 21.321 47.0559 21.437 47.0474 21.5559C47.0388 21.6748 47.0539 21.7942 47.0915 21.9072C47.1292 22.0203 47.1887 22.1249 47.2668 22.2149C47.3449 22.3049 47.4401 22.3787 47.5468 22.4319C47.6534 22.4851 47.7695 22.5167 47.8884 22.525C48.0073 22.5333 48.1267 22.518 48.2397 22.4801C51.0164 21.5553 52.9329 21.5141 54.0971 22.3544C55.5038 23.3686 56.1875 25.8913 56.1875 30.0664V40.0497C56.1875 48.948 49.2402 56.1874 40.7007 56.1874H17.2993C8.75982 56.1874 1.8125 48.948 1.8125 40.0497V30.0664C1.8125 25.8913 2.49617 23.3686 3.90289 22.3544C5.06712 21.5141 6.98361 21.5553 9.76031 22.4801C9.87332 22.5181 9.99277 22.5334 10.1117 22.5252C10.2307 22.517 10.3468 22.4853 10.4535 22.4322C10.5603 22.379 10.6554 22.3053 10.7335 22.2152C10.8117 22.1251 10.8714 22.0205 10.909 21.9074C10.9467 21.7943 10.9616 21.6749 10.9531 21.5559C10.9445 21.437 10.9125 21.321 10.859 21.2144C10.8055 21.1078 10.7315 21.0129 10.6412 20.935C10.5509 20.8571 10.4462 20.7978 10.3329 20.7605C6.91727 19.6228 4.53655 19.6626 2.84265 20.8839C0.90315 22.2827 0 25.2001 0 30.0664V40.0497C0 49.9477 7.76022 57.9999 17.2993 57.9999H40.7007C50.2398 57.9999 58 49.9477 58 40.0497V30.0664C58 25.2001 57.0968 22.2827 55.1574 20.8839Z" fill="currentColor"/>
</g>
</g>
<defs>
<clipPath id="clip0_120_142">
<rect width="58" height="58" fill="white"/>
</clipPath>
</defs>
</svg>
