<svg xmlns="http://www.w3.org/2000/svg" width="58" height="58" viewBox="0 0 58 58" fill="none">
<path d="M49.9343 0.226501C49.3339 0.54369 49.1866 0.838223 48.6882 2.52611C48.2351 4.08939 48.1784 4.51986 48.3937 4.85971C48.507 5.05228 48.2124 5.40345 45.6862 8.06557C44.1343 9.69682 42.5823 11.3394 42.2652 11.6906C41.9366 12.0531 41.6308 12.3476 41.5855 12.3476C41.5402 12.3476 40.7359 11.6226 39.8069 10.7503C38.878 9.86674 37.9152 9.05111 37.6659 8.93783C36.7484 8.51869 35.8081 8.71127 35.0605 9.47025C34.5167 10.0253 34.3241 10.4898 34.3241 11.2148C34.3241 11.7699 34.63 12.5855 34.8905 12.7441C34.9472 12.7781 35.0038 12.8574 35.0038 12.914C35.0038 12.982 29.7249 18.5894 23.2679 25.3976C16.3011 32.7496 11.396 38.0058 11.2034 38.3456C10.6144 39.3538 10.3878 40.3167 10.4445 41.5062C10.5011 42.4351 10.5917 42.8089 11.0335 43.8511C11.0902 43.9871 10.7277 44.4402 9.75344 45.4824C8.17883 47.1476 8.09953 47.3628 8.74523 48.0878L9.0964 48.4956L8.30343 49.3113C7.87297 49.7644 6.10578 51.6222 4.3839 53.4347C0.951481 57.0597 0.917497 57.1164 1.52922 57.7167C1.82375 58.0113 2.14093 58.0679 2.49211 57.8867C2.60539 57.83 4.41789 55.9609 6.51359 53.7519C8.60929 51.5429 10.3652 49.7304 10.4105 49.7304C10.4558 49.7304 10.6144 49.8664 10.773 50.0249C11.1015 50.3874 11.7019 50.6593 11.9737 50.5687C12.087 50.5347 12.7894 49.8664 13.537 49.0734L14.9077 47.6574L15.6327 47.8953C16.6749 48.2351 17.4112 48.3031 18.3288 48.1445C19.6202 47.9292 20.6171 47.3742 21.6933 46.298C22.1917 45.7882 27.5726 40.1355 33.6331 33.7238C39.6937 27.3234 44.6667 22.0898 44.6894 22.0898C44.712 22.0898 44.9159 22.2144 45.1425 22.3617C45.3691 22.5203 45.6976 22.6788 45.8902 22.7128C47.2155 23.0074 48.6882 21.8632 48.8015 20.4472C48.8694 19.6429 48.5636 19.0199 47.714 18.2269C47.3628 17.8984 46.5698 17.1507 45.9695 16.573L44.8706 15.5195L48.3484 11.8605L51.8148 8.19017L52.132 8.37143C52.4378 8.54135 52.5171 8.53002 54.1144 7.98627C56.0062 7.35189 56.5612 6.96674 56.6972 6.19643C56.8898 5.21088 56.8105 5.0976 54.4542 2.79799C53.2534 1.63119 52.0866 0.54369 51.8487 0.373768C51.2823 -0.0227165 50.5007 -0.0793571 49.9343 0.226501ZM52.9476 3.77221C54.0464 4.82572 54.9413 5.72064 54.9413 5.75463C54.9413 5.79994 54.4542 6.00385 53.8652 6.20775L52.7777 6.58158L51.4183 5.31283C50.6706 4.61049 50.0816 3.98744 50.1042 3.90814C50.1382 3.84018 50.2741 3.37572 50.4101 2.88861C50.6933 1.88041 50.7273 1.78978 50.8632 1.83509C50.9085 1.85775 51.8487 2.73002 52.9476 3.77221ZM50.2288 6.67221L50.5347 7.00072L47.1136 10.6031C45.2331 12.5968 43.6585 14.2281 43.6132 14.2507C43.5792 14.2621 43.398 14.1261 43.2167 13.9335L42.8882 13.5937L43.2847 13.1632C46.4452 9.8101 49.7644 6.34369 49.8323 6.34369C49.8777 6.34369 50.0589 6.49096 50.2288 6.67221ZM37.1335 10.6824C37.3261 10.8296 38.5155 11.9398 39.7843 13.1519C41.053 14.364 43.1941 16.3917 44.5421 17.6605C45.8902 18.9292 47.023 20.0621 47.0456 20.1753C47.1249 20.4812 46.7058 20.957 46.3773 20.957C46.1734 20.957 45.2331 20.13 42.6163 17.6378C40.7019 15.8253 38.4362 13.673 37.5753 12.8687C36.6577 11.9964 36.0234 11.3167 36.0234 11.1921C36.0234 10.9769 36.4991 10.4218 36.6804 10.4218C36.7257 10.4218 36.9296 10.5351 37.1335 10.6824ZM40.1921 17.8304L43.398 20.8663L42.5144 21.7953C42.0273 22.305 36.7144 27.9011 30.7218 34.2335C18.578 47.0456 19.3597 46.3206 17.7398 46.4226C17.2413 46.4566 16.7316 46.4113 16.471 46.332C15.2702 45.9468 13.0386 43.9304 12.4722 42.707C12.257 42.2312 12.189 41.8913 12.189 41.291C12.1777 39.807 12.4835 39.2972 14.6925 37.0089L15.7687 35.8988L17.1734 37.2128C18.5667 38.5042 18.7933 38.6402 19.3144 38.4476C19.5749 38.3456 19.8468 37.7566 19.7675 37.4621C19.7335 37.3261 19.0878 36.6238 18.3402 35.9101L16.9694 34.6074L18.4195 33.0781C19.2124 32.2398 19.9034 31.5374 19.9487 31.5148C19.9941 31.4921 20.6171 32.0359 21.3308 32.7156C22.0445 33.4066 22.7468 33.9956 22.8827 34.041C23.4491 34.2222 24.1402 33.5425 23.9589 32.9761C23.9249 32.8515 23.2792 32.1718 22.5429 31.4581L21.1948 30.1554L22.6902 28.5695L24.1855 26.9949L25.5448 28.2636C26.2925 28.9546 26.9948 29.5663 27.1081 29.6003C27.3573 29.691 27.8558 29.5097 28.0484 29.2492C28.139 29.1472 28.207 28.9093 28.207 28.7167C28.207 28.4335 28.003 28.1843 26.8249 27.0628L25.4429 25.7488L25.6808 25.4542C25.8054 25.2956 26.4737 24.5706 27.1648 23.8456L28.4109 22.5316L29.7816 23.8456C30.9937 25.0011 31.1976 25.1484 31.5487 25.1484C32.0585 25.1484 32.3984 24.8199 32.3984 24.3101C32.3984 23.9703 32.2511 23.789 31.0277 22.6109C29.8042 21.4214 29.6796 21.2742 29.8155 21.0929C29.8948 20.9683 30.5632 20.2546 31.2995 19.4843L32.6362 18.0796L33.3952 18.816C35.0605 20.4246 35.4343 20.7304 35.7515 20.7304C36.2046 20.7304 36.5898 20.3226 36.5898 19.8355C36.5898 19.473 36.4652 19.3144 35.2077 18.1249L33.8257 16.7996L35.0605 15.4968L36.3066 14.1941L36.6464 14.4999C36.839 14.6585 38.4249 16.1652 40.1921 17.8304ZM12.9027 46.0261L13.4804 46.5699L12.6081 47.5328L11.7245 48.4843L11.1128 47.8726L10.5011 47.2496L11.3394 46.3433C11.8038 45.8449 12.2116 45.4484 12.257 45.4597C12.2909 45.471 12.5855 45.7316 12.9027 46.0261Z" fill="currentColor"/>
</svg>
