<svg xmlns="http://www.w3.org/2000/svg" width="62" height="24" viewBox="0 0 62 24" fill="none">
<g clip-path="url(#clip0_148_151)">
<path d="M6.96159 12.838L3.50159 20.5H0.975586L4.78159 12.309C2.99959 11.422 1.80559 9.783 1.80559 6.797C1.80559 2.599 4.50559 0.5 7.70559 0.5H10.9756V20.5H8.79559V12.838H6.96159ZM8.77859 2.326H7.61859C5.85459 2.326 4.15859 3.469 4.15859 6.796C4.15859 10.022 5.71559 11.046 7.61859 11.046H8.77859V2.326Z" fill="#FF2950"/>
<path d="M21.5776 6.704V20.732H19.4206V14.432H16.1666V20.732H13.9756V6.704H16.1666V12.664H19.4206V6.704H21.5776ZM32.8436 23.5H30.8746V20.749H24.8136V23.5H22.8446V18.965H23.7176C25.0016 15.993 25.1566 11.645 25.1566 7.91V6.704H31.7306V18.949H32.8606V23.5H32.8436ZM29.5566 8.453H27.1076V8.708C27.1076 11.663 26.9706 15.976 25.7896 18.948H29.5566V8.453ZM38.8706 20.936C35.9426 20.936 34.1626 18.626 34.1626 14.312C34.1626 9.795 35.4296 6.517 38.4256 6.517C40.7886 6.517 42.3296 8.267 42.3296 13.039V14.244H36.4396C36.4396 17.42 37.3296 19.084 39.0766 19.084C40.3096 19.084 41.3026 18.524 41.8496 18.134L42.3636 19.798C41.3557 20.5503 40.1283 20.9502 38.8706 20.936ZM36.4566 12.444H40.0866C40.0866 10.049 39.6926 8.3 38.4266 8.3C37.0726 8.283 36.6106 9.93 36.4566 12.444ZM46.7646 13.752V20.749H44.5726V6.72H46.7636V13.207L50.1536 6.72H52.3806L48.8706 13.31L52.8766 20.748H50.4966L46.7636 13.751L46.7646 13.752ZM53.1676 13.718C53.1676 9.319 54.8796 6.5 58.2016 6.5C59.4686 6.5 60.1876 6.84 60.8046 7.23L60.4956 9.285C59.9136 8.775 59.0576 8.317 58.1676 8.317C56.5916 8.317 55.4796 10.067 55.4796 13.616C55.4796 17.131 56.3186 19.136 58.0816 19.136C58.9555 19.1554 59.8049 18.846 60.4616 18.269L60.9756 19.883C60.1636 20.5958 59.1105 20.9724 58.0306 20.936C55.0006 20.936 53.1676 18.507 53.1676 13.718Z" fill="#1E1E1E"/>
</g>
<defs>
<clipPath id="clip0_148_151">
<rect width="61" height="23" fill="white" transform="translate(0.0498047 0.5)"/>
</clipPath>
</defs>
</svg>
