<svg width="23" height="18" viewBox="0 0 23 18" fill="none" xmlns="http://www.w3.org/2000/svg">
<path d="M6.67402 3.78692C6.34171 2.64323 5.44171 2.76923 4.82556 3.30231C3.30663 4.72569 1.3294 7.71508 2.59633 12.0212C3.65556 15.6683 8.06279 18 8.06279 18H2.92448C2.92448 18 0.270172 14.9788 0.0334028 11.4258C-0.267059 6.93277 1.50386 4.10123 3.56002 2.25277C5.49017 0.516462 7.32479 0 7.32479 0L11.0771 12.4878L14.8294 0C14.8294 0 16.664 0.516462 18.5942 2.25277C20.6503 4.10123 22.4212 6.93277 22.1208 11.4258C21.884 14.9788 19.2297 18 19.2297 18H14.09C14.09 18 18.4986 15.6683 19.5592 12.0212C20.8234 7.71508 18.8476 4.72708 17.33 3.30231C16.7125 2.76923 15.8097 2.64462 15.4788 3.78692L11.0771 17.8823C11.0771 17.8823 7.81494 7.43262 6.67402 3.78831V3.78692Z" fill="#712786"/>
</svg>
