<svg xmlns="http://www.w3.org/2000/svg" width="79" height="26" viewBox="0 0 79 26" fill="none">
<g clip-path="url(#clip0_148_191)">
<path d="M34 13.5C34 17.242 31.082 20 27.5 20C23.918 20 21 17.242 21 13.5C21 9.731 23.918 7 27.5 7C31.082 7 34 9.731 34 13.5ZM31.155 13.5C31.155 11.161 29.463 9.561 27.5 9.561C25.537 9.561 23.845 11.161 23.845 13.5C23.845 15.815 25.537 17.439 27.5 17.439C29.463 17.439 31.155 15.812 31.155 13.5Z" fill="#FF2950"/>
<path d="M48 13.5C48 17.242 45.082 20 41.5 20C37.918 20 35 17.242 35 13.5C35 9.734 37.918 7 41.5 7C45.082 7 48 9.731 48 13.5ZM45.155 13.5C45.155 11.161 43.463 9.561 41.5 9.561C39.537 9.561 37.845 11.161 37.845 13.5C37.845 15.815 39.537 17.439 41.5 17.439C43.463 17.439 45.155 15.812 45.155 13.5Z" fill="#FBBC05"/>
<path d="M61 7.396V19.176C61 24.02 58.274 26 55.05 26C52.017 26 50.191 23.873 49.502 22.134L51.896 21.09C52.322 22.157 53.366 23.418 55.048 23.418C57.111 23.418 58.389 22.083 58.389 19.572V18.628H58.293C57.678 19.424 56.493 20.119 54.997 20.119C51.867 20.119 49 17.262 49 13.585C49 9.88 51.867 7 54.997 7C56.49 7 57.675 7.695 58.294 8.467H58.39V7.4H61V7.396ZM58.584 13.585C58.584 11.275 57.114 9.585 55.243 9.585C53.346 9.585 51.757 11.275 51.757 13.585C51.757 15.871 53.347 17.537 55.243 17.537C57.113 17.537 58.584 15.871 58.584 13.585Z" fill="#4285F4"/>
<path d="M66 1V20H63V1H66Z" fill="#34A853"/>
<path d="M76.66 15.642L78.877 17.119C78.16 18.177 76.437 20 73.457 20C69.76 20 67 17.146 67 13.5C67 9.635 69.784 7 73.136 7C76.513 7 78.164 9.684 78.704 11.135L79 11.874L70.303 15.472C70.969 16.776 72.004 17.442 73.456 17.442C74.911 17.442 75.92 16.727 76.659 15.642H76.66ZM69.834 13.304L75.647 10.892C75.327 10.08 74.365 9.514 73.233 9.514C71.781 9.514 69.761 10.795 69.834 13.304Z" fill="#FF2950"/>
<path d="M10.41 11.887V9.155H19.86C19.952 9.631 20 10.195 20 10.805C20 12.855 19.425 15.389 17.571 17.195C15.768 19.025 13.464 20 10.413 20C4.756 20 0 15.511 0 10C0 4.489 4.756 0 10.413 0C13.542 0 15.771 1.196 17.446 2.756L15.467 4.684C14.267 3.586 12.639 2.732 10.41 2.732C6.28 2.732 3.049 5.976 3.049 10C3.049 14.024 6.279 17.268 10.409 17.268C13.089 17.268 14.615 16.219 15.592 15.268C16.385 14.495 16.907 13.391 17.112 11.884L10.41 11.887Z" fill="#4285F4"/>
</g>
<defs>
<clipPath id="clip0_148_191">
<rect width="79" height="26" fill="white"/>
</clipPath>
</defs>
</svg>
