<svg width="49" height="56" viewBox="0 0 49 56" fill="none" xmlns="http://www.w3.org/2000/svg">
<path d="M48.595 8.17713C49.2025 7.38668 49.1266 6.28001 48.3673 5.48956C47.7598 4.85719 46.9246 4.62004 46.2412 4.85719L42.3688 0.983925C41.9892 0.588692 41.3817 0.588692 41.0021 0.983925L36.6741 5.48956C36.2944 5.88478 36.2944 6.51713 36.6741 6.91235L40.015 10.3904C34.7758 15.3704 27.7144 22.0893 27.2588 22.5635L27.1829 22.6426C26.4995 22.4054 25.8161 22.3264 25.1327 22.3264C23.2345 22.3264 21.4881 23.1168 20.1214 24.4606L2.0501 43.3526C0.7593 44.7754 0 46.5935 0 48.5697C0 50.5458 0.7593 52.3639 2.0501 53.7867L2.12603 53.8658C3.4928 55.2096 5.2392 56 7.1374 56C9.03559 56 10.782 55.2096 12.1488 53.8658L30.22 35.0527C31.5868 33.63 32.2701 31.8119 32.2701 29.8357C32.2701 29.2034 32.1942 28.6501 32.0424 28.0967C32.1183 28.0967 32.1183 28.0177 32.1942 28.0177L48.595 8.17713ZM38.7242 6.1219L41.6854 3.03912L44.6467 6.0429C43.9633 6.75424 42.8244 7.7819 41.5336 9.04658L38.7242 6.1219ZM12.984 50.1505L5.6188 42.4831L9.49119 38.4517L9.5671 38.5309C10.6302 39.6374 11.9969 40.1908 13.3636 40.1908C14.7304 40.1908 16.0971 39.6374 17.1601 38.5309C19.2102 36.3965 19.2862 32.8395 17.2361 30.7053C17.1601 30.6262 17.0842 30.6262 17.0842 30.5472L20.2732 27.2273L27.6384 34.8947L12.984 50.1505ZM15.8693 32.0491C17.1601 33.4718 17.1601 35.6852 15.7934 37.108C14.4267 38.5309 12.2247 38.5309 10.858 37.108C10.858 37.108 10.858 37.029 10.782 37.029L15.7175 31.891C15.7934 31.97 15.7934 32.0491 15.8693 32.0491ZM7.1374 54.0239C5.7707 54.0239 4.4799 53.4706 3.4928 52.4429L3.4168 52.3639C2.42975 51.3363 1.89824 49.9925 1.89824 48.5697C1.89824 47.1469 2.42975 45.8031 3.4168 44.7754L4.2521 43.906L11.6173 51.5734L10.782 52.4429C9.7949 53.4706 8.5041 54.0239 7.1374 54.0239ZM28.9292 33.4718L21.5641 25.8044C22.5511 24.8558 23.766 24.3025 25.1327 24.3025C26.4995 24.3025 27.7903 24.8558 28.7774 25.8835L28.8533 25.9625C29.8404 26.9901 30.3719 28.3338 30.3719 29.7567C30.3719 31.1795 29.8404 32.5233 28.9292 33.4718ZM30.22 24.5396C29.8404 24.1444 29.4607 23.8283 29.0811 23.512C35.1555 17.7417 46.0134 7.38668 46.7727 6.75424C46.8487 6.75424 47.0005 6.83335 47.0764 6.99146L31.2831 25.9625C30.9793 25.4882 30.6756 25.0139 30.22 24.5396Z" fill="currentColor"/>
</svg>
