<svg xmlns="http://www.w3.org/2000/svg" width="35" height="35" viewBox="0 0 35 35" fill="none">
<g clip-path="url(#clip0_702_2152)">
<mask id="mask0_702_2152" style="mask-type:luminance" maskUnits="userSpaceOnUse" x="0" y="0" width="35" height="35">
<path d="M35 0H0V35H35V0Z" fill="white"/>
</mask>
<g mask="url(#mask0_702_2152)">
<path d="M15.8881 2.658C16.3781 1.05844 18.6222 1.05844 19.1122 2.658L21.6981 11.1006C21.9166 11.8138 22.5701 12.3002 23.31 12.3002H31.8513C33.4653 12.3002 34.1581 14.3667 32.8755 15.3552L25.8223 20.7913C25.2604 21.2244 25.0257 21.965 25.2346 22.6466L27.8939 31.3291C28.3789 32.9125 26.563 34.1905 25.2576 33.1844L18.5243 27.9949C17.9197 27.5288 17.0806 27.5288 16.476 27.9949L9.74272 33.1844C8.43734 34.1905 6.62145 32.9125 7.10645 31.3291L9.76582 22.6466C9.97458 21.965 9.73995 21.2244 9.17805 20.7913L2.12476 15.3552C0.842276 14.3667 1.53513 12.3002 3.14902 12.3002H11.6902C12.4302 12.3002 13.0838 11.8138 13.3023 11.1006L15.8881 2.658Z" fill="#F6BF54" stroke="#F6BF54" stroke-linecap="round" stroke-linejoin="round"/>
</g>
</g>
<defs>
<clipPath id="clip0_702_2152">
<rect width="35" height="35" fill="white"/>
</clipPath>
</defs>
</svg>
