<svg xmlns="http://www.w3.org/2000/svg" width="58" height="58" viewBox="0 0 58 58" fill="none">
<g clip-path="url(#clip0_120_122)">
<path d="M14.738 1.07608C12.0873 1.65382 9.77633 3.98741 9.23258 6.62687C8.48492 10.2179 10.558 13.8882 13.9564 14.9757L14.7494 15.2362L14.6814 15.6894C14.6474 15.9386 14.5795 16.7316 14.5455 17.4452C14.3529 20.889 15.4517 23.9929 17.7853 26.5417C18.0912 26.8816 18.3517 27.1874 18.3517 27.2101C18.3517 27.2441 17.808 27.6972 17.1396 28.2183C14.6927 30.1327 13.2994 31.5601 11.9513 33.5878C10.9318 35.1284 10.2634 36.4085 9.50445 38.3683L9.41383 38.6175L8.87008 38.3683C8.42828 38.1757 8.11109 38.1191 7.25016 38.1191C6.30992 38.1191 6.09469 38.1644 5.4943 38.4362C4.55406 38.878 3.72711 39.5237 3.13805 40.2941C0.64586 43.5339 0.192735 49.0847 2.08453 53.0722C3.18336 55.3944 4.7693 56.7425 6.69508 57.037C7.35211 57.139 10.0482 56.8331 11.7814 56.4706C15.2931 55.723 18.6802 54.3523 21.6935 52.4605L22.8037 51.7581L23.7779 51.9847C25.6357 52.4151 26.5306 52.4944 29.0002 52.4944C31.4697 52.4944 32.3646 52.4151 34.2224 51.9847L35.1966 51.7581L36.3068 52.4605C39.3427 54.3636 42.8998 55.7909 46.4568 56.5159C48.0541 56.8444 50.6935 57.1276 51.3732 57.037C52.6533 56.8784 54.092 55.9269 55.0095 54.6581C57.3884 51.3163 57.7736 45.9921 55.9045 42.0612C55.0435 40.2261 54.0806 39.1839 52.608 38.4929C51.8943 38.153 51.7357 38.1191 50.7502 38.1191C49.8892 38.1191 49.5607 38.1757 49.1302 38.3683L48.5865 38.6175L48.4959 38.3683C47.7709 36.5105 47.0912 35.1624 46.1736 33.7577C44.8822 31.7866 43.5228 30.3366 41.2912 28.5694C40.5435 27.9804 39.8638 27.4253 39.7732 27.3573C39.6486 27.2327 39.7732 27.0401 40.4642 26.2358C42.5033 23.8683 43.4095 21.478 43.4322 18.4081C43.4435 17.5359 43.3982 16.4597 43.3529 16.0292L43.2623 15.2249L43.942 15.021C46.3435 14.3073 48.2466 12.1323 48.7791 9.50421C49.7986 4.48585 45.2334 0.0112381 40.1584 1.07608C38.8783 1.34796 37.5982 2.03897 36.6013 3.02452C35.7517 3.8628 35.7404 3.87413 35.4572 3.69288C33.724 2.5714 31.1072 1.81241 29.0002 1.81241C27.1537 1.81241 24.8767 2.40147 23.1548 3.34171L22.2259 3.84015L21.3763 3.01319C19.6205 1.27999 17.1396 0.554989 14.738 1.07608ZM17.5927 2.88858C18.5556 3.1378 19.3373 3.5796 20.0736 4.28194L20.7306 4.90499L19.5638 6.1171C17.7966 7.9296 16.4826 10.014 15.565 12.4495C15.1345 13.5937 15.1345 13.5937 13.8658 12.9706C12.5064 12.3023 11.4416 10.9769 11.0451 9.43624C10.0369 5.58467 13.7412 1.88038 17.5927 2.88858ZM42.9904 2.88858C45.8904 3.64757 47.6916 6.61554 46.9552 9.43624C46.5588 10.9769 45.4939 12.3023 44.1345 12.9706C42.8658 13.5937 42.8771 13.5937 42.4127 12.4042C41.4271 9.87804 40.215 7.95226 38.4365 6.10577L37.2697 4.90499L37.9267 4.28194C39.3314 2.94522 41.2006 2.42413 42.9904 2.88858ZM31.3791 3.91944C32.4439 4.19132 33.9166 4.85968 34.8795 5.49405C35.9896 6.23038 37.5642 7.73702 38.4705 8.9378C39.3654 10.1386 40.6795 12.7441 41.0646 14.1034C43.1943 21.546 39.6599 27.2327 32.0021 28.7394C30.5861 29.0112 27.4142 29.0112 25.9982 28.7394C21.2744 27.7991 18.1025 25.3523 16.8904 21.6933C15.8822 18.6573 16.222 15.1909 17.8533 11.7925C19.915 7.47647 23.3474 4.54249 27.2443 3.7835C28.2525 3.59093 30.3709 3.65889 31.3791 3.91944ZM20.1189 28.9206C18.5443 30.8577 17.672 32.2398 16.947 33.973C15.8935 36.4651 15.4857 38.4362 15.4744 41.0304L15.463 42.8202L14.3869 43.1714C13.7978 43.3753 13.2541 43.5566 13.1861 43.5792C13.1181 43.6019 12.9709 43.3753 12.8576 43.0808C12.5177 42.1745 11.7927 40.8378 11.3623 40.328L10.9431 39.8409L11.2716 38.878C11.9627 36.8503 13.1861 34.7433 14.738 32.8968C15.6556 31.7866 16.6752 30.8691 18.5556 29.4077C19.7564 28.4788 19.9943 28.3429 20.1869 28.4448C20.4021 28.5581 20.4021 28.5694 20.1189 28.9206ZM39.6486 29.5663C40.4302 30.178 41.4045 30.9823 41.8236 31.3675C43.908 33.2933 45.8224 36.2159 46.7287 38.878L47.0572 39.8409L46.6381 40.328C46.2076 40.8378 45.4826 42.1745 45.1427 43.0808C45.0295 43.3753 44.8822 43.6019 44.8142 43.5792C44.7463 43.5566 44.2025 43.3753 43.6134 43.1714L42.5259 42.8202L42.5713 41.6874C42.7412 37.4847 41.0193 32.6249 38.1759 29.2831C37.6662 28.6714 37.6209 28.5921 37.7908 28.4675C38.0287 28.2976 37.938 28.2409 39.6486 29.5663ZM25.5111 30.4952C26.4513 30.6878 27.1084 30.7331 28.8869 30.7444C31.447 30.7558 32.6025 30.5858 34.6529 29.9175L35.933 29.4983L36.6806 30.348C38.5724 32.5456 39.8185 35.1171 40.4642 38.1077C40.8154 39.773 40.8267 42.6843 40.4642 44.1003C40.0677 45.7089 39.5127 46.6831 38.4025 47.8159C36.9752 49.2433 35.3892 49.9909 32.6818 50.478C31.0732 50.7726 26.9271 50.7726 25.3185 50.478C22.6111 49.9909 21.0252 49.2433 19.5978 47.8159C18.4763 46.6831 17.9439 45.7202 17.5361 44.1003C17.2076 42.7749 17.1849 39.8862 17.4908 38.3456C18.1138 35.1737 19.5185 32.3417 21.5802 30.0421L22.09 29.487L23.2228 29.8722C23.8459 30.0874 24.8767 30.3593 25.5111 30.4952ZM8.60953 40.2827C8.93805 40.464 9.41383 40.8491 9.6857 41.1437C10.2634 41.7894 11.0111 43.1941 11.2716 44.123C11.7588 45.9128 11.872 45.9468 14.2736 45.1425C15.1005 44.8593 15.7916 44.6441 15.7916 44.6667C15.8029 44.678 15.9275 45.0632 16.0748 45.5163C16.7318 47.4987 18.3064 49.4925 19.9716 50.4554C20.3908 50.6933 20.7306 50.9085 20.7306 50.9198C20.7306 50.9765 19.0201 51.9394 18.1818 52.3585C15.7576 53.5819 12.4384 54.6015 9.60641 54.998L9.06266 55.0773V52.5511C9.06266 49.5831 8.94938 48.8921 8.24703 47.4874C7.43141 45.8335 5.75485 44.3835 4.06695 43.8851C3.29664 43.6472 3.29664 43.6812 3.94234 42.4464C4.48609 41.3816 5.18844 40.6452 6.03805 40.2148C6.64977 39.8976 6.81969 39.8636 7.38609 39.9089C7.79391 39.9429 8.24703 40.0788 8.60953 40.2827ZM51.9736 40.2261C52.8119 40.6339 53.5142 41.3816 54.058 42.4464C54.7037 43.6812 54.7037 43.6472 53.9334 43.8851C52.2455 44.3835 50.5689 45.8335 49.7533 47.4874C49.0509 48.8921 48.9377 49.5831 48.9377 52.5284C48.9377 54.5448 48.9037 55.0546 48.7904 55.0546C48.4279 55.0546 46.0603 54.5788 44.9049 54.273C42.6845 53.6839 40.3396 52.7097 38.2779 51.5316L37.2584 50.9538L38.142 50.3874C39.8752 49.2773 41.2798 47.4761 41.9256 45.5163C42.0728 45.0632 42.1974 44.678 42.2088 44.6667C42.2088 44.6441 42.8998 44.8593 43.7267 45.1425C46.1283 45.9468 46.2416 45.9128 46.7287 44.123C47.1365 42.6616 48.224 40.9851 49.1302 40.43C50.1838 39.7843 50.9767 39.7163 51.9736 40.2261ZM4.16891 45.8901C5.06383 46.298 6.09469 47.2608 6.55914 48.1331C7.15953 49.2773 7.25016 49.8437 7.25016 52.6983V55.2812H6.98961C6.51383 55.2812 5.35836 54.6128 4.83727 54.0351C4.14625 53.2648 3.44391 51.8601 3.09274 50.546C2.83219 49.5944 2.7982 49.198 2.78688 47.6347C2.77555 46.6378 2.80953 45.7316 2.85484 45.6183C2.9568 45.3691 3.12672 45.403 4.16891 45.8901ZM55.2021 46.1733C55.3494 47.2608 55.2134 49.3226 54.8963 50.5347C54.2506 53.0948 52.7666 54.9866 51.2373 55.2358L50.7502 55.3151V52.7097C50.7502 49.9003 50.8295 49.3226 51.3845 48.2351C51.7244 47.578 52.6306 46.5585 53.2197 46.196C53.7295 45.8788 54.8509 45.4257 54.9982 45.471C55.0662 45.4823 55.1568 45.7995 55.2021 46.1733Z" fill="currentColor"/>
<path d="M23.0414 12.7895C22.6449 12.9594 22.1011 13.6844 21.9199 14.2961C21.5574 15.5082 21.8066 16.8109 22.5429 17.6039C22.9507 18.0344 23.03 18.0684 23.5625 18.0684C24.0949 18.0684 24.1742 18.0344 24.582 17.6039C25.6242 16.4824 25.6355 14.3414 24.6046 13.2312C24.1628 12.7555 23.5285 12.5855 23.0414 12.7895Z" fill="currentColor"/>
<path d="M33.9164 12.7895C33.5199 12.9594 32.9761 13.6844 32.7949 14.2961C32.4324 15.5082 32.6816 16.8109 33.4179 17.6039C33.8257 18.0344 33.905 18.0684 34.4375 18.0684C34.9699 18.0684 35.0492 18.0344 35.457 17.6039C36.4992 16.4824 36.5105 14.3414 35.4796 13.2312C35.0378 12.7555 34.4035 12.5855 33.9164 12.7895Z" fill="currentColor"/>
<path d="M27.4144 18.3287C25.6925 18.7818 24.469 20.0166 24.469 21.2967C24.469 22.5994 25.9757 24.0494 27.6183 24.31C28.0827 24.3779 28.094 24.3893 28.094 24.8311V25.2842L27.5616 25.2049C26.8026 25.0916 25.5339 24.6158 24.7976 24.174C24.4464 23.9588 24.1292 23.7889 24.0952 23.7889C24.0499 23.7889 23.812 24.1061 23.5515 24.4912L23.0757 25.1822L23.3815 25.4314C23.8233 25.7826 25.2167 26.451 26.055 26.7229C27.9921 27.3346 29.9972 27.3346 31.9456 26.7229C32.7952 26.451 34.1546 25.8053 34.6077 25.4428L34.9249 25.1822L34.4491 24.4912C34.1886 24.1061 33.9507 23.7889 33.9054 23.7889C33.8714 23.7889 33.5542 23.9588 33.203 24.174C32.4667 24.6158 31.1979 25.0916 30.439 25.2049L29.9065 25.2842V24.8311C29.9065 24.3893 29.9065 24.3779 30.405 24.31C31.6624 24.1174 33.1577 22.9506 33.4183 21.965C33.5655 21.41 33.4976 20.651 33.2597 20.1865C32.4214 18.5893 29.7253 17.7283 27.4144 18.3287ZM30.7901 20.3564C32.0136 20.9682 32.0022 21.6365 30.7562 22.2596C30.1444 22.5654 29.9745 22.5994 29.0003 22.5994C28.0261 22.5994 27.8562 22.5654 27.2444 22.2596C26.4062 21.8404 26.1456 21.4439 26.3948 20.9908C26.9612 19.9713 29.3515 19.6314 30.7901 20.3564Z" fill="currentColor"/>
</g>
<defs>
<clipPath id="clip0_120_122">
<rect width="58" height="58" fill="white"/>
</clipPath>
</defs>
</svg>
