<svg width="57" height="62" viewBox="0 0 57 62" fill="none" xmlns="http://www.w3.org/2000/svg">
<path d="M28.2998 10.79V4.73C28.2998 3.74074 27.9069 2.792 27.2074 2.09249C26.5078 1.39298 25.5591 1 24.5698 1C23.5806 1 22.6318 1.39298 21.9323 2.09249C21.2328 2.792 20.8398 3.74074 20.8398 4.73V10.8H28.2998V10.79Z" stroke="currentColor" stroke-width="2" stroke-linecap="round" stroke-linejoin="round"/>
<path d="M44.9098 6.4601L28.2998 4.8501V7.7501L44.9098 12.0801V6.4601Z" stroke="currentColor" stroke-width="2" stroke-linecap="round" stroke-linejoin="round"/>
<path d="M24.7298 10.79L24.5698 17.61" stroke="currentColor" stroke-width="2" stroke-linecap="round" stroke-linejoin="round"/>
<path d="M56.0002 6.45996H44.9102V12.09H56.0002V6.45996Z" stroke="currentColor" stroke-width="2" stroke-linecap="round" stroke-linejoin="round"/>
<mask id="mask0_120_102" style="mask-type:luminance" maskUnits="userSpaceOnUse" x="0" y="14" width="48" height="48">
<path d="M48 14H0V62H48V14Z" fill="white"/>
</mask>
<g mask="url(#mask0_120_102)">
<path d="M8.82886 36.6387C8.76229 37.6249 8.72663 38.6318 8.72306 39.6339V39.786C8.6222 46.6251 10.1927 53.3946 13.3135 59.5723C14.5178 62.0143 16.1591 62.0685 16.807 61.9757C17.4529 61.8441 18.0373 61.5218 18.4749 61.0559C18.9125 60.5899 19.1803 60.0046 19.2395 59.3853C19.3632 58.5532 19.4828 57.6422 19.6074 56.6895C20.2312 51.9276 21.2756 43.9578 24.018 43.9578C26.7608 43.9578 27.8052 51.9285 28.429 56.6904C28.5541 57.6426 28.6732 58.5537 28.7969 59.3853C28.8561 60.0046 29.1239 60.5899 29.5616 61.0559C29.9991 61.5218 30.5835 61.8441 31.2294 61.9757C31.3444 61.9916 31.4603 61.9994 31.5764 61.9992C32.3525 61.9992 33.6964 61.6544 34.723 59.5723C37.8437 53.3946 39.4142 46.6251 39.3134 39.786V39.6306C39.3094 38.6246 39.2737 37.6178 39.2075 36.6387C39.1688 36.0812 39.3509 35.5299 39.7188 35.0913C41.7186 32.6761 42.7987 29.6994 42.7863 26.638C42.7863 22.0647 41.0959 16.5362 36.3518 14.7359C34.5482 13.9749 32.5248 13.8069 30.6075 14.2592C29.8842 14.442 29.1718 14.6611 28.4732 14.9153C27.0481 15.4647 25.5487 15.825 24.018 15.9859C22.489 15.8249 20.9914 15.4643 19.5681 14.9144C17.3186 14.1377 15.1946 13.4048 11.6847 14.7359C6.94054 16.5361 5.25011 22.0647 5.25011 26.638C5.2374 29.6994 6.31763 32.6762 8.3176 35.0912C8.68539 35.5299 8.86745 36.0812 8.82886 36.6387ZM12.3687 16.3312C15.2259 15.2479 16.7828 15.7851 18.9377 16.5294C20.5369 17.1429 22.2207 17.5392 23.9386 17.7064L24.0181 17.7131L24.0975 17.7064C25.8165 17.5392 27.5015 17.1435 29.1024 16.5311C29.7412 16.2984 30.3923 16.097 31.0531 15.9275C32.5943 15.5517 34.2267 15.6945 35.6677 16.3312C39.568 17.8114 40.9575 22.6258 40.9575 26.638C40.9705 29.3124 40.029 31.9135 38.2839 34.0248C37.6359 34.7964 37.3147 35.7665 37.3823 36.7479C37.4462 37.6929 37.4806 38.6653 37.4846 39.6339V39.786C37.6038 46.3767 36.0902 52.903 33.0638 58.8481C32.5962 59.7974 32.0042 60.3426 31.4987 60.2741C31.2477 60.1914 31.0288 60.0399 30.8701 59.8391C30.7113 59.6383 30.62 59.3975 30.608 59.1476C30.4861 58.3239 30.3678 57.4224 30.244 56.4799C29.3694 49.8039 28.3781 42.2373 24.018 42.2373C19.6583 42.2373 18.6671 49.8034 17.7924 56.479C17.6687 57.4216 17.5509 58.3234 17.4285 59.1475C17.4165 59.3975 17.3252 59.6383 17.1664 59.839C17.0077 60.0398 16.7887 60.1913 16.5377 60.274C16.0367 60.3371 15.4406 59.7969 14.9727 58.848C11.9463 52.903 10.4327 46.3767 10.5519 39.786V39.6369C10.5555 38.6716 10.5899 37.6997 10.6542 36.7479C10.7216 35.7666 10.4005 34.7965 9.75263 34.0248C8.00733 31.9136 7.06582 29.3124 7.07899 26.638C7.07899 22.6258 8.46848 17.8114 12.3687 16.3312Z" fill="currentColor"/>
</g>
</svg>
