<svg xmlns="http://www.w3.org/2000/svg" width="62" height="60" viewBox="0 0 62 60" fill="none">
<g clip-path="url(#clip0_52_3375)">
<path d="M51.6985 31.6614L50.84 29.2614C50.3631 27.8768 49.5046 26.6768 48.4554 25.6614C47.4061 24.6461 46.0708 23.8153 44.7354 23.3538L42.2554 22.523L44.7354 21.6922C46.1661 21.2307 47.4061 20.3999 48.4554 19.3845C49.5046 18.3691 50.3631 17.0768 50.84 15.7845L51.6985 13.3845L52.5569 15.7845C53.0338 17.1691 53.8923 18.3691 54.9415 19.3845C55.9908 20.3999 57.3261 21.2307 58.6615 21.6922L61.1415 22.523L58.6615 23.3538C57.2308 23.8153 55.9908 24.6461 54.9415 25.6614C53.8923 26.6768 53.0338 27.9691 52.5569 29.2614L51.6985 31.6614ZM47.2154 22.4307C48.1692 22.9845 49.0277 23.5384 49.7908 24.2768C50.5538 25.0153 51.2215 25.8461 51.6985 26.7691C52.2708 25.8461 52.8431 25.0153 53.6061 24.2768C54.3692 23.5384 55.2277 22.8922 56.1815 22.4307C55.2277 21.8768 54.3692 21.323 53.6061 20.5845C52.8431 19.8461 52.1754 19.0153 51.6985 18.0922C51.1261 19.0153 50.5538 19.8461 49.7908 20.5845C49.0277 21.323 48.1692 21.9691 47.2154 22.4307Z" fill="currentColor"/>
<path d="M30.0461 6.55385C29.4738 6.55385 29.0923 6.18462 29.0923 5.63077V0.923077C29.0923 0.369231 29.4738 0 30.0461 0C30.6184 0 31 0.369231 31 0.923077V5.63077C31 6.09231 30.6184 6.55385 30.0461 6.55385Z" fill="currentColor"/>
<path d="M17.2646 9.04608C16.9784 9.04608 16.6923 8.86147 16.5015 8.67685L13.64 4.61531C13.3538 4.15377 13.4492 3.59993 13.9261 3.32301C14.403 3.04608 14.9753 3.13839 15.2615 3.59993L18.123 7.66147C18.4092 8.12301 18.3138 8.67685 17.8369 8.95377C17.6461 8.95377 17.4554 9.04608 17.2646 9.04608Z" fill="currentColor"/>
<path d="M8.10789 18.3693C7.91712 18.3693 7.82173 18.3693 7.63097 18.277L4.2925 16.4309C3.81558 16.1539 3.7202 15.6001 3.91096 15.1386C4.19712 14.677 4.76943 14.5847 5.24635 14.7693L8.58481 16.6155C9.06173 16.8924 9.15712 17.4462 8.96635 17.9078C8.6802 18.277 8.39404 18.3693 8.10789 18.3693Z" fill="currentColor"/>
<path d="M7.05846 30.9231H0.953846C0.381538 30.9231 0 30.5538 0 30C0 29.4461 0.381538 29.0769 0.953846 29.0769H7.05846C7.63077 29.0769 8.01231 29.4461 8.01231 30C8.01231 30.5538 7.63077 30.9231 7.05846 30.9231Z" fill="currentColor"/>
<path d="M17.36 50.6768C16.9784 50.6768 16.5969 50.3999 16.4061 50.0307C15.1661 45.8768 14.5938 41.5384 14.5938 37.1999V37.0153C14.5938 35.9999 14.5938 34.9845 14.6892 34.0615C14.6892 33.5076 14.5938 33.0461 14.2123 32.5845C12.3046 30.1845 11.2554 27.2307 11.2554 24.1845C11.2554 19.6615 12.8769 14.2153 17.4554 12.4615C20.7938 11.1691 22.8923 11.9076 25.0861 12.6461C26.3261 13.1076 27.5661 13.5691 29.2831 13.6615C31 13.4768 32.24 13.0153 33.48 12.6461C34.1477 12.3691 34.8154 12.1845 35.4831 11.9999C37.2954 11.5384 39.2984 11.723 41.0154 12.4615C42.16 12.923 43.2092 13.6615 44.0677 14.5845C44.9261 15.5076 45.5938 16.523 45.9754 17.723C46.1661 18.1845 45.88 18.7384 45.4031 18.923C44.9261 19.1076 44.3538 18.8307 44.1631 18.3691C43.8769 17.4461 43.3046 16.6153 42.6369 15.8768C41.9692 15.1384 41.1108 14.5845 40.2523 14.2153C38.9169 13.5691 37.3908 13.4768 35.96 13.8461C35.3877 14.0307 34.72 14.2153 34.1477 14.3999C32.8123 14.8615 31.3815 15.4153 29.3784 15.5999H29.1877C27.1846 15.4153 25.6584 14.8615 24.4184 14.3999C22.4154 13.6615 20.8892 13.1076 18.2184 14.2153C14.4984 15.6922 13.2584 20.3999 13.2584 24.2768C13.2584 26.8615 14.1169 29.4461 15.8338 31.4768C16.5015 32.2153 16.7877 33.2307 16.6923 34.2461C16.5969 35.1691 16.5969 36.0922 16.5969 37.1076V37.2922C16.5969 41.4461 17.1692 45.5999 18.3138 49.5691C18.5046 50.0307 18.1231 50.5845 17.6461 50.6768C17.5508 50.6768 17.4554 50.6768 17.36 50.6768Z" fill="currentColor"/>
<path d="M36.6279 59.077C36.5325 59.077 36.3417 59.077 36.2463 59.077C35.0063 58.8924 34.0525 57.7847 33.8617 56.4924C33.7663 55.6616 33.671 54.7386 33.4802 53.8155C32.9079 49.2001 31.8587 41.3539 29.3787 41.3539C26.8987 41.3539 25.8494 49.1078 25.2771 53.8155C25.1817 54.7386 25.0863 55.6616 24.8956 56.4924C24.7048 57.877 23.751 58.8924 22.511 59.077C21.8433 59.1693 20.2217 59.077 19.0771 56.677C18.0279 54.5539 17.1694 52.3386 16.5017 50.0309C16.311 49.5693 16.5971 49.0155 17.1694 48.9232C17.6463 48.7386 18.2187 49.0155 18.314 49.5693C18.9817 51.7847 19.8402 53.9078 20.794 55.9386C21.271 57.0462 21.8433 57.3232 22.2248 57.3232C22.511 57.3232 22.8925 56.8616 22.9879 56.3078C23.0833 55.477 23.1787 54.6463 23.3694 53.7232C24.2279 47.1693 25.1817 39.6924 29.3787 39.6924C33.5756 39.6924 34.5294 47.1693 35.3879 53.7232C35.4833 54.6463 35.5787 55.5693 35.7694 56.3078C35.8648 56.9539 36.2463 57.3232 36.5325 57.3232C36.914 57.3232 37.391 57.0462 37.9633 55.9386C40.8248 50.1232 42.2556 43.6616 42.1602 37.2924V37.1078C42.1602 36.1847 42.1602 35.1693 42.0648 34.2462C41.9694 33.2309 42.351 32.3078 42.9233 31.477C44.0679 30.0924 44.831 28.4309 45.2125 26.677C45.3079 26.2155 45.7848 25.8462 46.3571 25.9386C46.834 26.0309 47.2156 26.4924 47.1202 27.0462C46.7387 29.077 45.7848 31.0155 44.4494 32.5847C44.0679 33.0462 43.9725 33.5078 43.9725 34.0616C44.0679 34.9847 44.0679 36.0001 44.0679 37.0155V37.2001C44.1633 43.8462 42.6371 50.677 39.6802 56.677C38.7263 58.7078 37.391 59.077 36.6279 59.077Z" fill="currentColor"/>
</g>
<defs>
<clipPath id="clip0_52_3375">
<rect width="62" height="60" fill="white"/>
</clipPath>
</defs>
</svg>
