<svg xmlns="http://www.w3.org/2000/svg" xmlns:xlink="http://www.w3.org/1999/xlink"><defs>
<clipPath id="clip0_148_169">
<rect width="48" height="21" fill="white" transform="translate(0.549805 0.5)"/>
</clipPath>

<clipPath id="clip0_161_28">
<rect width="27" height="16" fill="currentColor"/>
</clipPath>

<clipPath id="clip0_148_234">
<rect width="81.3486" height="21" fill="white"/>
</clipPath>

<clipPath id="clip0_148_191">
<rect width="79" height="26" fill="white"/>
</clipPath>

<clipPath id="clip0_704_2225">
<rect width="100" height="19.6592" fill="white"/>
</clipPath>

<clipPath id="clip0_702_2152">
<rect width="35" height="35" fill="white"/>
</clipPath>

<clipPath id="clip0_148_151">
<rect width="61" height="23" fill="white" transform="translate(0.0498047 0.5)"/>
</clipPath>
</defs><symbol id="2gis" viewBox="0 0 49 22"><g fill="none">
<g clip-path="url(#clip0_148_169)">
<path d="M20.5498 11C20.5478 9.75038 20.3313 8.51038 19.9098 7.334C19.8028 11.095 16.1618 14.007 14.0238 15.934H19.3748C20.1502 14.4051 20.5528 12.7143 20.5498 11ZM16.6818 2.718C14.9878 1.333 12.8638 0.5 10.5498 0.5C5.0268 0.5 0.549805 5.201 0.549805 11C0.549805 16.799 5.0268 21.5 10.5498 21.5C13.0798 21.5 15.3818 20.506 17.1428 18.88H9.9028L9.88081 16.648C14.2428 12.666 16.9178 9.973 16.9178 7.372C16.9178 6.405 16.5668 5.185 14.9878 5.185C13.7388 5.185 12.5338 5.945 12.7528 9.121H10.2098C9.5738 5.439 11.4808 2.516 15.1198 2.516C15.6838 2.516 16.2058 2.586 16.6818 2.718Z" fill="#A3C626"/>
<path d="M30.6758 7.285H33.0788C33.1598 5.434 32.5448 2.5 28.5818 2.5C25.6648 2.5 23.5498 4.269 23.5498 7.95C23.5498 8.45 23.5698 11.03 23.5698 12.632C23.5698 16.627 26.3018 17.5 28.6018 17.5C29.9778 17.5 31.9698 17.188 32.8938 16.168V9.803H28.3758V12.113H30.3888V14.921C28.8688 15.441 26.0968 15.65 26.0968 12.113V7.95C26.0968 5.474 27.2268 4.621 28.4788 4.621C29.7728 4.621 30.6758 5.288 30.6758 7.285ZM48.5498 13.464C48.6518 7.764 42.2038 9.657 42.2648 6.474C42.2848 5.351 43.0048 4.622 44.1748 4.622C45.4278 4.622 46.1668 5.372 46.1468 7.327H48.5078C48.5698 5.558 48.1588 2.542 44.2578 2.542C41.8338 2.542 39.8418 3.749 39.8008 6.432C39.6978 11.903 46.1878 10.114 46.0848 13.422C46.0448 14.774 45.0788 15.378 43.9908 15.378C42.7168 15.378 41.6908 14.628 41.8958 12.382H39.5128C39.2458 15.357 40.5398 17.479 43.9698 17.479C46.8658 17.479 48.5078 15.856 48.5498 13.464ZM37.6998 17.292H35.2768V2.729H37.6998V17.292ZM37.6998 17.292H35.2768V2.729H37.6998V17.292Z" fill="#434242"/>
</g>

</g></symbol><symbol id="arrow-more" viewBox="0 0 27 16"><g fill="none">
<g clip-path="url(#clip0_161_28)">
<path d="M26.7071 8.7073C27.0976 8.31677 27.0976 7.68361 26.7071 7.29308L20.3431 0.929123C19.9526 0.538599 19.3195 0.538599 18.9289 0.929123C18.5384 1.31965 18.5384 1.95281 18.9289 2.34334L24.5858 8.00019L18.9289 13.6571C18.5384 14.0476 18.5384 14.6807 18.9289 15.0713C19.3195 15.4618 19.9526 15.4618 20.3431 15.0713L26.7071 8.7073ZM0 9.00019H26V7.00019H0V9.00019Z" fill="currentColor"/>
</g>

</g></symbol><symbol id="doctu" viewBox="0 0 82 21"><g fill="none">
<g clip-path="url(#clip0_148_234)">
<path fill-rule="evenodd" clip-rule="evenodd" d="M26.3933 16.2695C30.8825 16.2695 34.498 12.6239 34.498 8.16479C34.498 3.67555 30.8524 0.0600586 26.3933 0.0600586C21.9342 0.0600586 18.2886 3.67555 18.2886 8.13466C18.2886 12.6239 21.9041 16.2695 26.3933 16.2695ZM26.3933 12.5636C28.8338 12.5636 30.7922 10.5751 30.7922 8.16479C30.7922 5.72433 28.8036 3.76594 26.3933 3.76594C23.9528 3.76594 21.9945 5.75446 21.9945 8.16479C21.9945 10.5751 23.9528 12.5636 26.3933 12.5636Z" fill="#13A546"/>
<path fill-rule="evenodd" clip-rule="evenodd" d="M30.3101 16.0289L33.9557 20.2771C34.6185 21.0605 35.7936 21.1509 36.5769 20.488C37.3603 19.8252 37.4507 18.6502 36.7878 17.8668L33.2326 13.709C32.4492 14.6731 31.455 15.4565 30.3101 16.0289Z" fill="#13A546"/>
<path d="M50.7075 13.558C50.7075 14.1003 50.5267 14.5522 50.1953 14.8837C49.8338 15.2452 49.412 15.3959 48.8998 15.3959C48.3273 15.3959 47.8452 15.185 47.4837 14.7632L43.356 9.82197L41.6085 11.4489V13.5279C41.6085 14.0401 41.4277 14.4619 41.0662 14.8234C40.7046 15.185 40.2527 15.3657 39.7706 15.3657C39.2886 15.3657 38.8366 15.185 38.4751 14.8234C38.1135 14.4619 37.9629 14.0099 37.9629 13.5279V2.86215C37.9629 2.34995 38.1437 1.92814 38.4751 1.56659C38.8366 1.20504 39.2886 1.02427 39.8008 1.02427C40.313 1.02427 40.7348 1.20504 41.0662 1.56659C41.4277 1.92814 41.6085 2.38008 41.6085 2.86215V7.38152L47.4234 1.47621C47.7549 1.14479 48.1465 0.994141 48.6286 0.994141C49.1107 0.994141 49.5325 1.17492 49.8338 1.50634C50.1652 1.83776 50.3158 2.22943 50.3158 2.7115C50.3158 3.19357 50.1652 3.61537 49.8338 3.91667L46.0375 7.65268L50.346 12.4432C50.587 12.6842 50.7075 13.0759 50.7075 13.558Z" fill="#2C2B67"/>
<path d="M57.5164 13.558V4.42889H55.0156C54.5637 4.42889 54.172 4.27825 53.8406 3.97696C53.5393 3.67567 53.3887 3.28399 53.3887 2.83205C53.3887 2.38011 53.5393 2.01856 53.8406 1.68714C54.172 1.35572 54.5637 1.20508 55.0156 1.20508H63.7531C64.205 1.20508 64.5666 1.35572 64.898 1.68714C65.2294 1.98844 65.3801 2.38011 65.3801 2.83205C65.3801 3.25386 65.2294 3.64554 64.898 3.97696C64.5967 4.27825 64.205 4.42889 63.7531 4.42889H61.2222V13.5881C61.2222 14.1003 61.0415 14.5222 60.6799 14.8837C60.3184 15.2453 59.8664 15.426 59.3844 15.426C58.8722 15.426 58.4504 15.2453 58.0888 14.8837C57.7273 14.5222 57.5164 14.0702 57.5164 13.558Z" fill="#2C2B67"/>
<path d="M69.8693 17.6555L70.05 17.6254C71.0142 17.5953 71.6469 17.2639 71.9783 16.601L72.4905 15.3959L67.6698 3.46473C67.5794 3.31408 67.5493 3.07305 67.5493 2.80189C67.5493 2.28969 67.7301 1.86789 68.0615 1.53646C68.4231 1.17492 68.8449 0.994141 69.3269 0.994141C70.2007 0.994141 70.7731 1.38582 71.0142 2.13905L74.3886 11.0874L77.733 2.13905C78.0343 1.38582 78.6067 0.994141 79.4503 0.994141C79.9625 0.994141 80.4145 1.17492 80.7459 1.53646C81.1074 1.89801 81.2581 2.31982 81.2581 2.80189C81.2581 3.01279 81.1978 3.25383 81.1074 3.49486L75.413 17.5049C74.5393 19.7345 72.852 20.8794 70.3212 20.9095C70.1103 20.9095 69.9596 20.9095 69.9295 20.8794C69.4475 20.8492 69.0558 20.6986 68.7244 20.3973C68.3929 20.096 68.2724 19.7043 68.2724 19.2223C68.2724 18.7703 68.4231 18.4088 68.7244 18.1075C69.0859 17.8363 69.4475 17.6857 69.8693 17.6555Z" fill="#2C2B67"/>
<path d="M16.1189 13.9196V17.294C16.1189 17.746 15.9682 18.1075 15.6669 18.4389C15.3657 18.7704 14.974 18.8909 14.522 18.8909C14.0701 18.8909 13.6784 18.7402 13.347 18.4389C13.0457 18.1376 12.8951 17.746 12.8951 17.294V15.185H3.28388V17.294C3.28388 17.746 3.13323 18.1075 2.83194 18.4389C2.53065 18.7704 2.13897 18.8909 1.68703 18.8909C1.23509 18.8909 0.843416 18.7402 0.511996 18.4389C0.210704 18.1376 0.0600586 17.746 0.0600586 17.294V14.4619C0.0600586 13.076 0.511996 12.2926 1.38574 12.0516C2.1691 10.6054 2.74155 8.10465 3.07297 4.54941L3.19349 3.1936C3.25375 2.56089 3.46465 2.07882 3.85633 1.7474C4.24801 1.38585 4.73007 1.20508 5.33266 1.20508H12.3527C13.0457 1.20508 13.588 1.38585 13.9496 1.77753C14.3413 2.13908 14.522 2.68141 14.522 3.37438V12.0214C15.6067 12.1118 16.1189 12.7445 16.1189 13.9196ZM10.8764 11.9612V4.39877H6.35705L6.26666 5.63406C6.08588 8.64697 5.60382 10.756 4.85059 11.9612H10.8764Z" fill="#2C2B67"/>
</g>

</g></symbol><symbol id="google" viewBox="0 0 79 26"><g fill="none">
<g clip-path="url(#clip0_148_191)">
<path d="M34 13.5C34 17.242 31.082 20 27.5 20C23.918 20 21 17.242 21 13.5C21 9.731 23.918 7 27.5 7C31.082 7 34 9.731 34 13.5ZM31.155 13.5C31.155 11.161 29.463 9.561 27.5 9.561C25.537 9.561 23.845 11.161 23.845 13.5C23.845 15.815 25.537 17.439 27.5 17.439C29.463 17.439 31.155 15.812 31.155 13.5Z" fill="#FF2950"/>
<path d="M48 13.5C48 17.242 45.082 20 41.5 20C37.918 20 35 17.242 35 13.5C35 9.734 37.918 7 41.5 7C45.082 7 48 9.731 48 13.5ZM45.155 13.5C45.155 11.161 43.463 9.561 41.5 9.561C39.537 9.561 37.845 11.161 37.845 13.5C37.845 15.815 39.537 17.439 41.5 17.439C43.463 17.439 45.155 15.812 45.155 13.5Z" fill="#FBBC05"/>
<path d="M61 7.396V19.176C61 24.02 58.274 26 55.05 26C52.017 26 50.191 23.873 49.502 22.134L51.896 21.09C52.322 22.157 53.366 23.418 55.048 23.418C57.111 23.418 58.389 22.083 58.389 19.572V18.628H58.293C57.678 19.424 56.493 20.119 54.997 20.119C51.867 20.119 49 17.262 49 13.585C49 9.88 51.867 7 54.997 7C56.49 7 57.675 7.695 58.294 8.467H58.39V7.4H61V7.396ZM58.584 13.585C58.584 11.275 57.114 9.585 55.243 9.585C53.346 9.585 51.757 11.275 51.757 13.585C51.757 15.871 53.347 17.537 55.243 17.537C57.113 17.537 58.584 15.871 58.584 13.585Z" fill="#4285F4"/>
<path d="M66 1V20H63V1H66Z" fill="#34A853"/>
<path d="M76.66 15.642L78.877 17.119C78.16 18.177 76.437 20 73.457 20C69.76 20 67 17.146 67 13.5C67 9.635 69.784 7 73.136 7C76.513 7 78.164 9.684 78.704 11.135L79 11.874L70.303 15.472C70.969 16.776 72.004 17.442 73.456 17.442C74.911 17.442 75.92 16.727 76.659 15.642H76.66ZM69.834 13.304L75.647 10.892C75.327 10.08 74.365 9.514 73.233 9.514C71.781 9.514 69.761 10.795 69.834 13.304Z" fill="#FF2950"/>
<path d="M10.41 11.887V9.155H19.86C19.952 9.631 20 10.195 20 10.805C20 12.855 19.425 15.389 17.571 17.195C15.768 19.025 13.464 20 10.413 20C4.756 20 0 15.511 0 10C0 4.489 4.756 0 10.413 0C13.542 0 15.771 1.196 17.446 2.756L15.467 4.684C14.267 3.586 12.639 2.732 10.41 2.732C6.28 2.732 3.049 5.976 3.049 10C3.049 14.024 6.279 17.268 10.409 17.268C13.089 17.268 14.615 16.219 15.592 15.268C16.385 14.495 16.907 13.391 17.112 11.884L10.41 11.887Z" fill="#4285F4"/>
</g>

</g></symbol><symbol id="napopravku" viewBox="0 0 100 20"><g fill="none">
<g clip-path="url(#clip0_704_2225)">
<path d="M0 6.74049C0 4.38075 8.43683e-07 3.20131 0.459202 2.30037C0.862532 1.50768 1.50768 0.863404 2.30038 0.459202C3.20132 0 4.38163 0 6.74049 0H12.9188C15.2785 0 16.4579 0 17.3588 0.459202C18.1515 0.862531 18.7958 1.50768 19.2 2.30037C19.6592 3.20131 19.6592 4.38075 19.6592 6.74049V12.9188C19.6592 15.2785 19.6592 16.4579 19.2 17.3588C18.7967 18.1515 18.1515 18.7958 17.3588 19.2C16.4579 19.6592 15.2776 19.6592 12.9188 19.6592H6.74049C4.38075 19.6592 3.20132 19.6592 2.30038 19.2C1.50768 18.7967 0.863405 18.1515 0.459202 17.3588C8.43683e-07 16.4579 0 15.2776 0 12.9188V6.74049Z" fill="#FFB401"/>
<path d="M3.62243 3.25581C4.27719 2.4186 5.26543 1.87646 6.54176 1.87646C8.11754 1.87646 9.10579 2.58011 9.83125 3.26017C10.5567 2.57923 11.545 1.87646 13.1207 1.87646C14.3971 1.87646 15.3844 2.41948 16.0401 3.25581C16.6826 4.07732 16.9838 5.15112 16.9838 6.21705C16.9838 8.77497 14.948 10.6659 12.9575 12.1064L10.2477 14.1187C9.75268 14.4862 9.62697 15.1732 9.95959 15.6918C10.3228 16.2593 11.0893 16.4041 11.6349 16.0078L14.1754 14.1649L14.8484 15.0929L12.308 16.9358C11.2289 17.7189 9.7134 17.4326 8.99405 16.3099C8.33667 15.2841 8.58547 13.9239 9.56325 13.1976L12.2783 11.181L12.2809 11.1784C14.2853 9.72829 15.8358 8.14378 15.8358 6.21618C15.8358 5.35104 15.5897 4.54176 15.1357 3.96121C14.6939 3.39637 14.0366 3.02185 13.1198 3.02185C11.7239 3.02185 10.9688 3.72636 10.2389 4.46581C10.1316 4.57493 9.98403 4.63691 9.83038 4.63691C9.67673 4.63691 9.53007 4.5758 9.42182 4.46581C8.69199 3.7255 7.93684 3.02185 6.5409 3.02185C5.62424 3.02185 4.96686 3.39724 4.52512 3.96121C4.07116 4.54088 3.82498 5.35104 3.82498 6.21618C3.82498 8.08616 5.31781 9.84439 7.23232 11.1714C7.49247 11.3521 7.55707 11.7091 7.37723 11.9693C7.19652 12.2295 6.83946 12.2941 6.5793 12.1142C4.59584 10.7392 2.67871 8.68155 2.67871 6.21618C2.67871 5.15112 2.9799 4.07732 3.62243 3.25581Z" fill="white"/>
<path d="M7.70703 5.53176C7.70703 5.48638 7.7437 5.44971 7.7891 5.44971H8.7721C8.8175 5.44971 8.85416 5.48638 8.85416 5.53176V7.06652C8.85416 7.11191 8.89083 7.14858 8.93623 7.14858H10.7268C10.7722 7.14858 10.8088 7.11191 10.8088 7.06652V5.53176C10.8088 5.48638 10.8455 5.44971 10.8909 5.44971H11.8739C11.9193 5.44971 11.956 5.48638 11.956 5.53176V9.91253C11.956 9.95791 11.9193 9.99458 11.8739 9.99458H10.8909C10.8455 9.99458 10.8088 9.95791 10.8088 9.91253V8.37777C10.8088 8.33238 10.7722 8.29571 10.7268 8.29571H8.93623C8.89083 8.29571 8.85416 8.33238 8.85416 8.37777V9.91253C8.85416 9.95791 8.8175 9.99458 8.7721 9.99458H7.7891C7.7437 9.99458 7.70703 9.95791 7.70703 9.91253V5.53176Z" fill="white"/>
<path d="M15.849 12.9435C15.4789 12.9435 15.1794 13.2438 15.1794 13.6131C15.1794 13.9832 15.4797 14.2827 15.849 14.2827C16.2183 14.2827 16.5186 13.9825 16.5186 13.6131C16.5186 13.243 16.2191 12.9435 15.849 12.9435ZM14.0322 13.6131C14.0322 12.61 14.846 11.7964 15.849 11.7964C16.8521 11.7964 17.6658 12.61 17.6658 13.6131C17.6658 14.6171 16.8521 15.4299 15.849 15.4299C14.846 15.4299 14.0322 14.6171 14.0322 13.6131Z" fill="white"/>
<path d="M24.6748 13.4507V5.12988H25.6137V8.82649H30.4166V5.12988H31.3555V13.4507H30.4166V9.70511H25.6137V13.4507H24.6748Z" fill="black"/>
<path d="M35.3853 13.5813C34.7594 13.5813 34.2199 13.4117 33.7692 13.0703C33.3173 12.73 33.0908 12.2543 33.0908 11.6431C33.0908 11.0012 33.3287 10.5061 33.8045 10.1567C34.2802 9.80845 34.9176 9.63318 35.7187 9.63318C36.3527 9.63318 36.9786 9.72081 37.5978 9.89495V9.70488C37.5978 9.16655 37.4396 8.75341 37.122 8.46888C36.8045 8.18436 36.3573 8.04095 35.778 8.04095C35.1747 8.04095 34.5533 8.18776 33.9114 8.4814L33.6383 7.73252C34.3986 7.38425 35.144 7.20898 35.8735 7.20898C36.7453 7.20898 37.4065 7.43547 37.8595 7.88731C38.2874 8.31524 38.5014 8.91731 38.5014 9.69463V13.4515H37.5978V12.5365C37.0503 13.233 36.3128 13.5813 35.3853 13.5813ZM35.564 12.8449C36.1352 12.8449 36.6178 12.6902 37.0151 12.3817C37.4111 12.0722 37.6092 11.6761 37.6092 11.1935V10.6222C37.0071 10.4481 36.4085 10.3604 35.8144 10.3604C35.251 10.3604 34.8117 10.4731 34.4953 10.6996C34.1777 10.9249 34.0195 11.2322 34.0195 11.6215C34.0195 11.9948 34.1687 12.2918 34.4657 12.5126C34.7616 12.7334 35.128 12.8449 35.564 12.8449Z" fill="black"/>
<path d="M40.4146 13.4507V5.12988H47.357V13.4507H45.5258V6.78129H42.2457V13.4507H40.4146Z" fill="black"/>
<path d="M54.7585 12.6297C54.0961 13.2716 53.2744 13.5925 52.291 13.5925C51.3077 13.5925 50.4893 13.2727 49.8361 12.6354C49.1817 11.9981 48.855 11.2105 48.855 10.2761C48.855 9.34854 49.1863 8.56438 49.8475 7.92134C50.5099 7.27831 51.3317 6.9585 52.3149 6.9585C53.2982 6.9585 54.1166 7.27717 54.7698 7.91565C55.4231 8.55299 55.7509 9.33944 55.7509 10.275C55.7509 11.2037 55.4197 11.9878 54.7585 12.6297ZM52.3149 12.0356C52.8146 12.0356 53.2141 11.8672 53.5157 11.5303C53.8161 11.1934 53.9674 10.7757 53.9674 10.2761C53.9674 9.7924 53.8116 9.37813 53.4974 9.03328C53.1845 8.68843 52.7826 8.51657 52.291 8.51657C51.7914 8.51657 51.3908 8.68502 51.0904 9.0219C50.7887 9.35878 50.6385 9.77648 50.6385 10.2761C50.6385 10.7598 50.7944 11.1741 51.1086 11.5189C51.4216 11.8626 51.8233 12.0356 52.3149 12.0356Z" fill="black"/>
<path d="M62.8482 7.07812V13.4505H61.0409V8.62368H58.8648V13.4505H57.0586V7.07812H62.8482Z" fill="black"/>
<path d="M64.4644 15.3532V7.078H66.2705V7.99304C66.7781 7.30335 67.4393 6.9585 68.2565 6.9585C69.0498 6.9585 69.7304 7.25555 70.3017 7.84964C70.873 8.44374 71.1575 9.2518 71.1575 10.275C71.1575 11.289 70.8742 12.0925 70.3075 12.6821C69.7406 13.2716 69.0566 13.5675 68.2565 13.5675C67.4644 13.5675 66.802 13.2511 66.2705 12.6172V15.351L64.4644 15.3532ZM66.6938 11.5428C66.991 11.8717 67.3574 12.0356 67.7933 12.0356C68.2292 12.0356 68.5979 11.8717 68.8984 11.5428C69.2 11.2139 69.3503 10.7837 69.3503 10.2533C69.3503 9.73892 69.2 9.31667 68.8984 8.98776C68.5969 8.65884 68.2292 8.49382 67.7933 8.49382C67.3574 8.49382 66.991 8.6577 66.6938 8.98776C66.3969 9.31667 66.2477 9.74688 66.2477 10.2772C66.2477 10.7917 66.3969 11.2139 66.6938 11.5428Z" fill="black"/>
<path d="M74.296 13.5697C73.6701 13.5697 73.1487 13.3956 72.7322 13.0462C72.3167 12.6979 72.1074 12.2142 72.1074 11.5962C72.1074 10.9224 72.3395 10.4148 72.8027 10.0746C73.266 9.73426 73.8908 9.56354 74.6761 9.56354C75.2065 9.56354 75.7265 9.65118 76.2331 9.82531V9.71832C76.2331 8.94213 75.7778 8.55289 74.8661 8.55289C74.3187 8.55289 73.7326 8.66783 73.1066 8.89774L72.6549 7.51835C73.4322 7.17804 74.2562 7.00732 75.128 7.00732C76.0874 7.00732 76.8044 7.2452 77.2802 7.72093C77.7399 8.18073 77.9698 8.8579 77.9698 9.7536V13.4513H76.2228V12.7616C75.738 13.3 75.096 13.5697 74.296 13.5697ZM74.8423 12.3212C75.2622 12.3212 75.6026 12.2165 75.8643 12.0059C76.126 11.7965 76.257 11.5291 76.257 11.2036V10.8826C75.9166 10.7244 75.5319 10.6459 75.103 10.6459C74.7069 10.6459 74.3996 10.7233 74.1821 10.8769C73.9636 11.0317 73.8543 11.2559 73.8543 11.5484C73.8543 11.7863 73.9454 11.9741 74.1275 12.1129C74.3119 12.2529 74.5497 12.3212 74.8423 12.3212Z" fill="black"/>
<path d="M79.5273 7.07812H83.0225C83.6724 7.07812 84.1891 7.22153 84.5737 7.50605C84.9585 7.79059 85.1508 8.17983 85.1508 8.67149C85.1508 9.33729 84.814 9.81643 84.1402 10.1101C84.9722 10.3639 85.3887 10.8988 85.3887 11.7148C85.3887 12.2531 85.177 12.6777 84.7525 12.9872C84.329 13.2968 83.7475 13.4505 83.0111 13.4505H79.5273V7.07812ZM82.5821 9.63434C82.8279 9.63434 83.0169 9.57515 83.1466 9.45565C83.2774 9.33729 83.3435 9.1825 83.3435 8.99244C83.3435 8.82628 83.281 8.68743 83.158 8.57702C83.0351 8.46663 82.8507 8.41086 82.6048 8.41086H81.3097V9.63434H82.5821ZM81.3108 12.0358H82.7369C83.2844 12.0358 83.5575 11.8218 83.5575 11.3939C83.5575 10.9819 83.2684 10.7759 82.6891 10.7759H81.3097L81.3108 12.0358Z" fill="black"/>
<path d="M86.6597 13.4505V7.07812H88.467V9.69351L90.75 7.07812H92.8304L90.4882 9.69351L93.1276 13.4505H90.9868L89.2876 11.0251L88.467 11.9174V13.4505H86.6597Z" fill="black"/>
<path d="M95.4445 15.3886C94.8732 15.3886 94.3394 15.2418 93.8398 14.9481L94.4465 13.6405C94.724 13.8067 94.9813 13.8898 95.2192 13.8898C95.5049 13.8898 95.7142 13.7509 95.8485 13.4744L93.3516 7.07812H95.2659L96.7158 11.4178L98.1066 7.07812H99.9845L97.5353 13.6053C97.2894 14.2631 97.0129 14.7251 96.7033 14.9903C96.396 15.2555 95.9761 15.3886 95.4445 15.3886Z" fill="black"/>
</g>

</g></symbol><symbol id="star" viewBox="0 0 35 35"><g fill="none">
<g clip-path="url(#clip0_702_2152)">
<mask id="mask0_702_2152" style="mask-type:luminance" maskUnits="userSpaceOnUse" x="0" y="0" width="35" height="35">
<path d="M35 0H0V35H35V0Z" fill="white"/>
</mask>
<g mask="url(#mask0_702_2152)">
<path d="M15.8881 2.658C16.3781 1.05844 18.6222 1.05844 19.1122 2.658L21.6981 11.1006C21.9166 11.8138 22.5701 12.3002 23.31 12.3002H31.8513C33.4653 12.3002 34.1581 14.3667 32.8755 15.3552L25.8223 20.7913C25.2604 21.2244 25.0257 21.965 25.2346 22.6466L27.8939 31.3291C28.3789 32.9125 26.563 34.1905 25.2576 33.1844L18.5243 27.9949C17.9197 27.5288 17.0806 27.5288 16.476 27.9949L9.74272 33.1844C8.43734 34.1905 6.62145 32.9125 7.10645 31.3291L9.76582 22.6466C9.97458 21.965 9.73995 21.2244 9.17805 20.7913L2.12476 15.3552C0.842276 14.3667 1.53513 12.3002 3.14902 12.3002H11.6902C12.4302 12.3002 13.0838 11.8138 13.3023 11.1006L15.8881 2.658Z" fill="#F6BF54" stroke="#F6BF54" stroke-linecap="round" stroke-linejoin="round"/>
</g>
</g>

</g></symbol><symbol id="yandex" viewBox="0 0 62 24"><g fill="none">
<g clip-path="url(#clip0_148_151)">
<path d="M6.96159 12.838L3.50159 20.5H0.975586L4.78159 12.309C2.99959 11.422 1.80559 9.783 1.80559 6.797C1.80559 2.599 4.50559 0.5 7.70559 0.5H10.9756V20.5H8.79559V12.838H6.96159ZM8.77859 2.326H7.61859C5.85459 2.326 4.15859 3.469 4.15859 6.796C4.15859 10.022 5.71559 11.046 7.61859 11.046H8.77859V2.326Z" fill="#FF2950"/>
<path d="M21.5776 6.704V20.732H19.4206V14.432H16.1666V20.732H13.9756V6.704H16.1666V12.664H19.4206V6.704H21.5776ZM32.8436 23.5H30.8746V20.749H24.8136V23.5H22.8446V18.965H23.7176C25.0016 15.993 25.1566 11.645 25.1566 7.91V6.704H31.7306V18.949H32.8606V23.5H32.8436ZM29.5566 8.453H27.1076V8.708C27.1076 11.663 26.9706 15.976 25.7896 18.948H29.5566V8.453ZM38.8706 20.936C35.9426 20.936 34.1626 18.626 34.1626 14.312C34.1626 9.795 35.4296 6.517 38.4256 6.517C40.7886 6.517 42.3296 8.267 42.3296 13.039V14.244H36.4396C36.4396 17.42 37.3296 19.084 39.0766 19.084C40.3096 19.084 41.3026 18.524 41.8496 18.134L42.3636 19.798C41.3557 20.5503 40.1283 20.9502 38.8706 20.936ZM36.4566 12.444H40.0866C40.0866 10.049 39.6926 8.3 38.4266 8.3C37.0726 8.283 36.6106 9.93 36.4566 12.444ZM46.7646 13.752V20.749H44.5726V6.72H46.7636V13.207L50.1536 6.72H52.3806L48.8706 13.31L52.8766 20.748H50.4966L46.7636 13.751L46.7646 13.752ZM53.1676 13.718C53.1676 9.319 54.8796 6.5 58.2016 6.5C59.4686 6.5 60.1876 6.84 60.8046 7.23L60.4956 9.285C59.9136 8.775 59.0576 8.317 58.1676 8.317C56.5916 8.317 55.4796 10.067 55.4796 13.616C55.4796 17.131 56.3186 19.136 58.0816 19.136C58.9555 19.1554 59.8049 18.846 60.4616 18.269L60.9756 19.883C60.1636 20.5958 59.1105 20.9724 58.0306 20.936C55.0006 20.936 53.1676 18.507 53.1676 13.718Z" fill="#1E1E1E"/>
</g>

</g></symbol></svg>