<svg xmlns="http://www.w3.org/2000/svg" width="49" height="22" viewBox="0 0 49 22" fill="none">
<g clip-path="url(#clip0_148_169)">
<path d="M20.5498 11C20.5478 9.75038 20.3313 8.51038 19.9098 7.334C19.8028 11.095 16.1618 14.007 14.0238 15.934H19.3748C20.1502 14.4051 20.5528 12.7143 20.5498 11ZM16.6818 2.718C14.9878 1.333 12.8638 0.5 10.5498 0.5C5.0268 0.5 0.549805 5.201 0.549805 11C0.549805 16.799 5.0268 21.5 10.5498 21.5C13.0798 21.5 15.3818 20.506 17.1428 18.88H9.9028L9.88081 16.648C14.2428 12.666 16.9178 9.973 16.9178 7.372C16.9178 6.405 16.5668 5.185 14.9878 5.185C13.7388 5.185 12.5338 5.945 12.7528 9.121H10.2098C9.5738 5.439 11.4808 2.516 15.1198 2.516C15.6838 2.516 16.2058 2.586 16.6818 2.718Z" fill="#A3C626"/>
<path d="M30.6758 7.285H33.0788C33.1598 5.434 32.5448 2.5 28.5818 2.5C25.6648 2.5 23.5498 4.269 23.5498 7.95C23.5498 8.45 23.5698 11.03 23.5698 12.632C23.5698 16.627 26.3018 17.5 28.6018 17.5C29.9778 17.5 31.9698 17.188 32.8938 16.168V9.803H28.3758V12.113H30.3888V14.921C28.8688 15.441 26.0968 15.65 26.0968 12.113V7.95C26.0968 5.474 27.2268 4.621 28.4788 4.621C29.7728 4.621 30.6758 5.288 30.6758 7.285ZM48.5498 13.464C48.6518 7.764 42.2038 9.657 42.2648 6.474C42.2848 5.351 43.0048 4.622 44.1748 4.622C45.4278 4.622 46.1668 5.372 46.1468 7.327H48.5078C48.5698 5.558 48.1588 2.542 44.2578 2.542C41.8338 2.542 39.8418 3.749 39.8008 6.432C39.6978 11.903 46.1878 10.114 46.0848 13.422C46.0448 14.774 45.0788 15.378 43.9908 15.378C42.7168 15.378 41.6908 14.628 41.8958 12.382H39.5128C39.2458 15.357 40.5398 17.479 43.9698 17.479C46.8658 17.479 48.5078 15.856 48.5498 13.464ZM37.6998 17.292H35.2768V2.729H37.6998V17.292ZM37.6998 17.292H35.2768V2.729H37.6998V17.292Z" fill="#434242"/>
</g>
<defs>
<clipPath id="clip0_148_169">
<rect width="48" height="21" fill="white" transform="translate(0.549805 0.5)"/>
</clipPath>
</defs>
</svg>
