<svg xmlns="http://www.w3.org/2000/svg" width="82" height="21" viewBox="0 0 82 21" fill="none">
<g clip-path="url(#clip0_148_234)">
<path fill-rule="evenodd" clip-rule="evenodd" d="M26.3933 16.2695C30.8825 16.2695 34.498 12.6239 34.498 8.16479C34.498 3.67555 30.8524 0.0600586 26.3933 0.0600586C21.9342 0.0600586 18.2886 3.67555 18.2886 8.13466C18.2886 12.6239 21.9041 16.2695 26.3933 16.2695ZM26.3933 12.5636C28.8338 12.5636 30.7922 10.5751 30.7922 8.16479C30.7922 5.72433 28.8036 3.76594 26.3933 3.76594C23.9528 3.76594 21.9945 5.75446 21.9945 8.16479C21.9945 10.5751 23.9528 12.5636 26.3933 12.5636Z" fill="#13A546"/>
<path fill-rule="evenodd" clip-rule="evenodd" d="M30.3101 16.0289L33.9557 20.2771C34.6185 21.0605 35.7936 21.1509 36.5769 20.488C37.3603 19.8252 37.4507 18.6502 36.7878 17.8668L33.2326 13.709C32.4492 14.6731 31.455 15.4565 30.3101 16.0289Z" fill="#13A546"/>
<path d="M50.7075 13.558C50.7075 14.1003 50.5267 14.5522 50.1953 14.8837C49.8338 15.2452 49.412 15.3959 48.8998 15.3959C48.3273 15.3959 47.8452 15.185 47.4837 14.7632L43.356 9.82197L41.6085 11.4489V13.5279C41.6085 14.0401 41.4277 14.4619 41.0662 14.8234C40.7046 15.185 40.2527 15.3657 39.7706 15.3657C39.2886 15.3657 38.8366 15.185 38.4751 14.8234C38.1135 14.4619 37.9629 14.0099 37.9629 13.5279V2.86215C37.9629 2.34995 38.1437 1.92814 38.4751 1.56659C38.8366 1.20504 39.2886 1.02427 39.8008 1.02427C40.313 1.02427 40.7348 1.20504 41.0662 1.56659C41.4277 1.92814 41.6085 2.38008 41.6085 2.86215V7.38152L47.4234 1.47621C47.7549 1.14479 48.1465 0.994141 48.6286 0.994141C49.1107 0.994141 49.5325 1.17492 49.8338 1.50634C50.1652 1.83776 50.3158 2.22943 50.3158 2.7115C50.3158 3.19357 50.1652 3.61537 49.8338 3.91667L46.0375 7.65268L50.346 12.4432C50.587 12.6842 50.7075 13.0759 50.7075 13.558Z" fill="#2C2B67"/>
<path d="M57.5164 13.558V4.42889H55.0156C54.5637 4.42889 54.172 4.27825 53.8406 3.97696C53.5393 3.67567 53.3887 3.28399 53.3887 2.83205C53.3887 2.38011 53.5393 2.01856 53.8406 1.68714C54.172 1.35572 54.5637 1.20508 55.0156 1.20508H63.7531C64.205 1.20508 64.5666 1.35572 64.898 1.68714C65.2294 1.98844 65.3801 2.38011 65.3801 2.83205C65.3801 3.25386 65.2294 3.64554 64.898 3.97696C64.5967 4.27825 64.205 4.42889 63.7531 4.42889H61.2222V13.5881C61.2222 14.1003 61.0415 14.5222 60.6799 14.8837C60.3184 15.2453 59.8664 15.426 59.3844 15.426C58.8722 15.426 58.4504 15.2453 58.0888 14.8837C57.7273 14.5222 57.5164 14.0702 57.5164 13.558Z" fill="#2C2B67"/>
<path d="M69.8693 17.6555L70.05 17.6254C71.0142 17.5953 71.6469 17.2639 71.9783 16.601L72.4905 15.3959L67.6698 3.46473C67.5794 3.31408 67.5493 3.07305 67.5493 2.80189C67.5493 2.28969 67.7301 1.86789 68.0615 1.53646C68.4231 1.17492 68.8449 0.994141 69.3269 0.994141C70.2007 0.994141 70.7731 1.38582 71.0142 2.13905L74.3886 11.0874L77.733 2.13905C78.0343 1.38582 78.6067 0.994141 79.4503 0.994141C79.9625 0.994141 80.4145 1.17492 80.7459 1.53646C81.1074 1.89801 81.2581 2.31982 81.2581 2.80189C81.2581 3.01279 81.1978 3.25383 81.1074 3.49486L75.413 17.5049C74.5393 19.7345 72.852 20.8794 70.3212 20.9095C70.1103 20.9095 69.9596 20.9095 69.9295 20.8794C69.4475 20.8492 69.0558 20.6986 68.7244 20.3973C68.3929 20.096 68.2724 19.7043 68.2724 19.2223C68.2724 18.7703 68.4231 18.4088 68.7244 18.1075C69.0859 17.8363 69.4475 17.6857 69.8693 17.6555Z" fill="#2C2B67"/>
<path d="M16.1189 13.9196V17.294C16.1189 17.746 15.9682 18.1075 15.6669 18.4389C15.3657 18.7704 14.974 18.8909 14.522 18.8909C14.0701 18.8909 13.6784 18.7402 13.347 18.4389C13.0457 18.1376 12.8951 17.746 12.8951 17.294V15.185H3.28388V17.294C3.28388 17.746 3.13323 18.1075 2.83194 18.4389C2.53065 18.7704 2.13897 18.8909 1.68703 18.8909C1.23509 18.8909 0.843416 18.7402 0.511996 18.4389C0.210704 18.1376 0.0600586 17.746 0.0600586 17.294V14.4619C0.0600586 13.076 0.511996 12.2926 1.38574 12.0516C2.1691 10.6054 2.74155 8.10465 3.07297 4.54941L3.19349 3.1936C3.25375 2.56089 3.46465 2.07882 3.85633 1.7474C4.24801 1.38585 4.73007 1.20508 5.33266 1.20508H12.3527C13.0457 1.20508 13.588 1.38585 13.9496 1.77753C14.3413 2.13908 14.522 2.68141 14.522 3.37438V12.0214C15.6067 12.1118 16.1189 12.7445 16.1189 13.9196ZM10.8764 11.9612V4.39877H6.35705L6.26666 5.63406C6.08588 8.64697 5.60382 10.756 4.85059 11.9612H10.8764Z" fill="#2C2B67"/>
</g>
<defs>
<clipPath id="clip0_148_234">
<rect width="81.3486" height="21" fill="white"/>
</clipPath>
</defs>
</svg>
