<svg width="100" height="20" viewBox="0 0 100 20" fill="none" xmlns="http://www.w3.org/2000/svg">
<g clip-path="url(#clip0_704_2225)">
<path d="M0 6.74049C0 4.38075 8.43683e-07 3.20131 0.459202 2.30037C0.862532 1.50768 1.50768 0.863404 2.30038 0.459202C3.20132 0 4.38163 0 6.74049 0H12.9188C15.2785 0 16.4579 0 17.3588 0.459202C18.1515 0.862531 18.7958 1.50768 19.2 2.30037C19.6592 3.20131 19.6592 4.38075 19.6592 6.74049V12.9188C19.6592 15.2785 19.6592 16.4579 19.2 17.3588C18.7967 18.1515 18.1515 18.7958 17.3588 19.2C16.4579 19.6592 15.2776 19.6592 12.9188 19.6592H6.74049C4.38075 19.6592 3.20132 19.6592 2.30038 19.2C1.50768 18.7967 0.863405 18.1515 0.459202 17.3588C8.43683e-07 16.4579 0 15.2776 0 12.9188V6.74049Z" fill="#FFB401"/>
<path d="M3.62243 3.25581C4.27719 2.4186 5.26543 1.87646 6.54176 1.87646C8.11754 1.87646 9.10579 2.58011 9.83125 3.26017C10.5567 2.57923 11.545 1.87646 13.1207 1.87646C14.3971 1.87646 15.3844 2.41948 16.0401 3.25581C16.6826 4.07732 16.9838 5.15112 16.9838 6.21705C16.9838 8.77497 14.948 10.6659 12.9575 12.1064L10.2477 14.1187C9.75268 14.4862 9.62697 15.1732 9.95959 15.6918C10.3228 16.2593 11.0893 16.4041 11.6349 16.0078L14.1754 14.1649L14.8484 15.0929L12.308 16.9358C11.2289 17.7189 9.7134 17.4326 8.99405 16.3099C8.33667 15.2841 8.58547 13.9239 9.56325 13.1976L12.2783 11.181L12.2809 11.1784C14.2853 9.72829 15.8358 8.14378 15.8358 6.21618C15.8358 5.35104 15.5897 4.54176 15.1357 3.96121C14.6939 3.39637 14.0366 3.02185 13.1198 3.02185C11.7239 3.02185 10.9688 3.72636 10.2389 4.46581C10.1316 4.57493 9.98403 4.63691 9.83038 4.63691C9.67673 4.63691 9.53007 4.5758 9.42182 4.46581C8.69199 3.7255 7.93684 3.02185 6.5409 3.02185C5.62424 3.02185 4.96686 3.39724 4.52512 3.96121C4.07116 4.54088 3.82498 5.35104 3.82498 6.21618C3.82498 8.08616 5.31781 9.84439 7.23232 11.1714C7.49247 11.3521 7.55707 11.7091 7.37723 11.9693C7.19652 12.2295 6.83946 12.2941 6.5793 12.1142C4.59584 10.7392 2.67871 8.68155 2.67871 6.21618C2.67871 5.15112 2.9799 4.07732 3.62243 3.25581Z" fill="white"/>
<path d="M7.70703 5.53176C7.70703 5.48638 7.7437 5.44971 7.7891 5.44971H8.7721C8.8175 5.44971 8.85416 5.48638 8.85416 5.53176V7.06652C8.85416 7.11191 8.89083 7.14858 8.93623 7.14858H10.7268C10.7722 7.14858 10.8088 7.11191 10.8088 7.06652V5.53176C10.8088 5.48638 10.8455 5.44971 10.8909 5.44971H11.8739C11.9193 5.44971 11.956 5.48638 11.956 5.53176V9.91253C11.956 9.95791 11.9193 9.99458 11.8739 9.99458H10.8909C10.8455 9.99458 10.8088 9.95791 10.8088 9.91253V8.37777C10.8088 8.33238 10.7722 8.29571 10.7268 8.29571H8.93623C8.89083 8.29571 8.85416 8.33238 8.85416 8.37777V9.91253C8.85416 9.95791 8.8175 9.99458 8.7721 9.99458H7.7891C7.7437 9.99458 7.70703 9.95791 7.70703 9.91253V5.53176Z" fill="white"/>
<path d="M15.849 12.9435C15.4789 12.9435 15.1794 13.2438 15.1794 13.6131C15.1794 13.9832 15.4797 14.2827 15.849 14.2827C16.2183 14.2827 16.5186 13.9825 16.5186 13.6131C16.5186 13.243 16.2191 12.9435 15.849 12.9435ZM14.0322 13.6131C14.0322 12.61 14.846 11.7964 15.849 11.7964C16.8521 11.7964 17.6658 12.61 17.6658 13.6131C17.6658 14.6171 16.8521 15.4299 15.849 15.4299C14.846 15.4299 14.0322 14.6171 14.0322 13.6131Z" fill="white"/>
<path d="M24.6748 13.4507V5.12988H25.6137V8.82649H30.4166V5.12988H31.3555V13.4507H30.4166V9.70511H25.6137V13.4507H24.6748Z" fill="black"/>
<path d="M35.3853 13.5813C34.7594 13.5813 34.2199 13.4117 33.7692 13.0703C33.3173 12.73 33.0908 12.2543 33.0908 11.6431C33.0908 11.0012 33.3287 10.5061 33.8045 10.1567C34.2802 9.80845 34.9176 9.63318 35.7187 9.63318C36.3527 9.63318 36.9786 9.72081 37.5978 9.89495V9.70488C37.5978 9.16655 37.4396 8.75341 37.122 8.46888C36.8045 8.18436 36.3573 8.04095 35.778 8.04095C35.1747 8.04095 34.5533 8.18776 33.9114 8.4814L33.6383 7.73252C34.3986 7.38425 35.144 7.20898 35.8735 7.20898C36.7453 7.20898 37.4065 7.43547 37.8595 7.88731C38.2874 8.31524 38.5014 8.91731 38.5014 9.69463V13.4515H37.5978V12.5365C37.0503 13.233 36.3128 13.5813 35.3853 13.5813ZM35.564 12.8449C36.1352 12.8449 36.6178 12.6902 37.0151 12.3817C37.4111 12.0722 37.6092 11.6761 37.6092 11.1935V10.6222C37.0071 10.4481 36.4085 10.3604 35.8144 10.3604C35.251 10.3604 34.8117 10.4731 34.4953 10.6996C34.1777 10.9249 34.0195 11.2322 34.0195 11.6215C34.0195 11.9948 34.1687 12.2918 34.4657 12.5126C34.7616 12.7334 35.128 12.8449 35.564 12.8449Z" fill="black"/>
<path d="M40.4146 13.4507V5.12988H47.357V13.4507H45.5258V6.78129H42.2457V13.4507H40.4146Z" fill="black"/>
<path d="M54.7585 12.6297C54.0961 13.2716 53.2744 13.5925 52.291 13.5925C51.3077 13.5925 50.4893 13.2727 49.8361 12.6354C49.1817 11.9981 48.855 11.2105 48.855 10.2761C48.855 9.34854 49.1863 8.56438 49.8475 7.92134C50.5099 7.27831 51.3317 6.9585 52.3149 6.9585C53.2982 6.9585 54.1166 7.27717 54.7698 7.91565C55.4231 8.55299 55.7509 9.33944 55.7509 10.275C55.7509 11.2037 55.4197 11.9878 54.7585 12.6297ZM52.3149 12.0356C52.8146 12.0356 53.2141 11.8672 53.5157 11.5303C53.8161 11.1934 53.9674 10.7757 53.9674 10.2761C53.9674 9.7924 53.8116 9.37813 53.4974 9.03328C53.1845 8.68843 52.7826 8.51657 52.291 8.51657C51.7914 8.51657 51.3908 8.68502 51.0904 9.0219C50.7887 9.35878 50.6385 9.77648 50.6385 10.2761C50.6385 10.7598 50.7944 11.1741 51.1086 11.5189C51.4216 11.8626 51.8233 12.0356 52.3149 12.0356Z" fill="black"/>
<path d="M62.8482 7.07812V13.4505H61.0409V8.62368H58.8648V13.4505H57.0586V7.07812H62.8482Z" fill="black"/>
<path d="M64.4644 15.3532V7.078H66.2705V7.99304C66.7781 7.30335 67.4393 6.9585 68.2565 6.9585C69.0498 6.9585 69.7304 7.25555 70.3017 7.84964C70.873 8.44374 71.1575 9.2518 71.1575 10.275C71.1575 11.289 70.8742 12.0925 70.3075 12.6821C69.7406 13.2716 69.0566 13.5675 68.2565 13.5675C67.4644 13.5675 66.802 13.2511 66.2705 12.6172V15.351L64.4644 15.3532ZM66.6938 11.5428C66.991 11.8717 67.3574 12.0356 67.7933 12.0356C68.2292 12.0356 68.5979 11.8717 68.8984 11.5428C69.2 11.2139 69.3503 10.7837 69.3503 10.2533C69.3503 9.73892 69.2 9.31667 68.8984 8.98776C68.5969 8.65884 68.2292 8.49382 67.7933 8.49382C67.3574 8.49382 66.991 8.6577 66.6938 8.98776C66.3969 9.31667 66.2477 9.74688 66.2477 10.2772C66.2477 10.7917 66.3969 11.2139 66.6938 11.5428Z" fill="black"/>
<path d="M74.296 13.5697C73.6701 13.5697 73.1487 13.3956 72.7322 13.0462C72.3167 12.6979 72.1074 12.2142 72.1074 11.5962C72.1074 10.9224 72.3395 10.4148 72.8027 10.0746C73.266 9.73426 73.8908 9.56354 74.6761 9.56354C75.2065 9.56354 75.7265 9.65118 76.2331 9.82531V9.71832C76.2331 8.94213 75.7778 8.55289 74.8661 8.55289C74.3187 8.55289 73.7326 8.66783 73.1066 8.89774L72.6549 7.51835C73.4322 7.17804 74.2562 7.00732 75.128 7.00732C76.0874 7.00732 76.8044 7.2452 77.2802 7.72093C77.7399 8.18073 77.9698 8.8579 77.9698 9.7536V13.4513H76.2228V12.7616C75.738 13.3 75.096 13.5697 74.296 13.5697ZM74.8423 12.3212C75.2622 12.3212 75.6026 12.2165 75.8643 12.0059C76.126 11.7965 76.257 11.5291 76.257 11.2036V10.8826C75.9166 10.7244 75.5319 10.6459 75.103 10.6459C74.7069 10.6459 74.3996 10.7233 74.1821 10.8769C73.9636 11.0317 73.8543 11.2559 73.8543 11.5484C73.8543 11.7863 73.9454 11.9741 74.1275 12.1129C74.3119 12.2529 74.5497 12.3212 74.8423 12.3212Z" fill="black"/>
<path d="M79.5273 7.07812H83.0225C83.6724 7.07812 84.1891 7.22153 84.5737 7.50605C84.9585 7.79059 85.1508 8.17983 85.1508 8.67149C85.1508 9.33729 84.814 9.81643 84.1402 10.1101C84.9722 10.3639 85.3887 10.8988 85.3887 11.7148C85.3887 12.2531 85.177 12.6777 84.7525 12.9872C84.329 13.2968 83.7475 13.4505 83.0111 13.4505H79.5273V7.07812ZM82.5821 9.63434C82.8279 9.63434 83.0169 9.57515 83.1466 9.45565C83.2774 9.33729 83.3435 9.1825 83.3435 8.99244C83.3435 8.82628 83.281 8.68743 83.158 8.57702C83.0351 8.46663 82.8507 8.41086 82.6048 8.41086H81.3097V9.63434H82.5821ZM81.3108 12.0358H82.7369C83.2844 12.0358 83.5575 11.8218 83.5575 11.3939C83.5575 10.9819 83.2684 10.7759 82.6891 10.7759H81.3097L81.3108 12.0358Z" fill="black"/>
<path d="M86.6597 13.4505V7.07812H88.467V9.69351L90.75 7.07812H92.8304L90.4882 9.69351L93.1276 13.4505H90.9868L89.2876 11.0251L88.467 11.9174V13.4505H86.6597Z" fill="black"/>
<path d="M95.4445 15.3886C94.8732 15.3886 94.3394 15.2418 93.8398 14.9481L94.4465 13.6405C94.724 13.8067 94.9813 13.8898 95.2192 13.8898C95.5049 13.8898 95.7142 13.7509 95.8485 13.4744L93.3516 7.07812H95.2659L96.7158 11.4178L98.1066 7.07812H99.9845L97.5353 13.6053C97.2894 14.2631 97.0129 14.7251 96.7033 14.9903C96.396 15.2555 95.9761 15.3886 95.4445 15.3886Z" fill="black"/>
</g>
<defs>
<clipPath id="clip0_704_2225">
<rect width="100" height="19.6592" fill="white"/>
</clipPath>
</defs>
</svg>
