<svg width="24" height="30" viewBox="0 0 24 30" fill="none" xmlns="http://www.w3.org/2000/svg">
<path fill-rule="evenodd" clip-rule="evenodd" d="M21.7846 12C21.7846 16.302 19.2613 20.1552 16.4094 23.0971C15.0123 24.5382 13.6081 25.6856 12.5516 26.4726C12.3541 26.6197 12.1694 26.7538 12 26.8742C11.8306 26.7538 11.6459 26.6197 11.4484 26.4726C10.3919 25.6856 8.98765 24.5382 7.59065 23.0971C4.73868 20.1552 2.21538 16.302 2.21538 12C2.21538 6.59611 6.59611 2.21538 12 2.21538C17.4039 2.21538 21.7846 6.59611 21.7846 12ZM24 12C24 22.3197 12 29.5385 12 29.5385C12 29.5385 0 22.3197 0 12C0 5.37258 5.37258 0 12 0C18.6274 0 24 5.37258 24 12ZM16.2462 12C16.2462 14.3451 14.3451 16.2462 12 16.2462C9.65491 16.2462 7.75385 14.3451 7.75385 12C7.75385 9.65491 9.65491 7.75385 12 7.75385C14.3451 7.75385 16.2462 9.65491 16.2462 12ZM18.4615 12C18.4615 15.5686 15.5686 18.4615 12 18.4615C8.43139 18.4615 5.53846 15.5686 5.53846 12C5.53846 8.43139 8.43139 5.53846 12 5.53846C15.5686 5.53846 18.4615 8.43139 18.4615 12Z" fill="#4D92A3"/>
</svg>
