<svg width="25" height="24" viewBox="0 0 25 24" fill="none" xmlns="http://www.w3.org/2000/svg">
<g clip-path="url(#clip0_140_70)">
<path d="M22.2955 20.1428V9.85707C22.0098 10.1785 21.7017 10.4731 21.3714 10.741C18.9785 12.5803 17.0767 14.0892 15.666 15.2678C15.2107 15.6517 14.8401 15.9508 14.5544 16.1651C14.2687 16.3794 13.8825 16.5959 13.3959 16.8147C12.9093 17.0334 12.4517 17.1428 12.0232 17.1428H12.0098H11.9964C11.5678 17.1428 11.1102 17.0334 10.6236 16.8147C10.137 16.5959 9.75084 16.3794 9.46512 16.1651C9.17941 15.9508 8.80887 15.6517 8.35352 15.2678C6.9428 14.0892 5.04102 12.5803 2.64816 10.741C2.3178 10.4731 2.00977 10.1785 1.72405 9.85707V20.1428C1.72405 20.2589 1.76646 20.3593 1.85128 20.4441C1.9361 20.5289 2.03655 20.5714 2.15262 20.5714H21.8669C21.983 20.5714 22.0834 20.5289 22.1682 20.4441C22.2531 20.3593 22.2955 20.2589 22.2955 20.1428ZM22.2955 6.06689C22.2955 6.04904 22.2955 5.99993 22.2955 5.91957C22.2955 5.83922 22.2955 5.77895 22.2955 5.73877C22.2955 5.69859 22.2932 5.64055 22.2888 5.56466C22.2843 5.48877 22.2709 5.43297 22.2486 5.39725C22.2263 5.36154 22.2017 5.32136 22.1749 5.27672C22.1482 5.23207 22.108 5.19859 22.0544 5.17627C22.0008 5.15395 21.9383 5.14279 21.8669 5.14279H2.15262C2.03655 5.14279 1.9361 5.1852 1.85128 5.27002C1.76646 5.35484 1.72405 5.45529 1.72405 5.57136C1.72405 7.07136 2.3803 8.33922 3.6928 9.37493C5.41602 10.7321 7.20619 12.1473 9.06334 13.6205C9.11691 13.6651 9.27316 13.7968 9.53209 14.0156C9.79102 14.2343 9.99637 14.4017 10.1482 14.5178C10.2999 14.6339 10.4986 14.7745 10.7441 14.9397C10.9897 15.1048 11.2151 15.2276 11.4205 15.308C11.6258 15.3883 11.8178 15.4285 11.9964 15.4285H12.0098H12.0232C12.2017 15.4285 12.3937 15.3883 12.5991 15.308C12.8044 15.2276 13.0299 15.1048 13.2754 14.9397C13.5209 14.7745 13.7196 14.6339 13.8714 14.5178C14.0232 14.4017 14.2285 14.2343 14.4874 14.0156C14.7464 13.7968 14.9026 13.6651 14.9562 13.6205C16.8133 12.1473 18.6035 10.7321 20.3267 9.37493C20.8089 8.991 21.2575 8.47538 21.6727 7.82806C22.0879 7.18073 22.2955 6.59368 22.2955 6.06689ZM24.0098 5.57136V20.1428C24.0098 20.7321 23.7999 21.2365 23.3803 21.6562C22.9607 22.0758 22.4562 22.2856 21.8669 22.2856H2.15262C1.56334 22.2856 1.05887 22.0758 0.63923 21.6562C0.219587 21.2365 0.00976562 20.7321 0.00976562 20.1428V5.57136C0.00976562 4.98207 0.219587 4.47761 0.63923 4.05797C1.05887 3.63832 1.56334 3.4285 2.15262 3.4285H21.8669C22.4562 3.4285 22.9607 3.63832 23.3803 4.05797C23.7999 4.47761 24.0098 4.98207 24.0098 5.57136Z" fill="#4D92A3"/>
</g>
<defs>
<clipPath id="clip0_140_70">
<rect width="24.02" height="24" fill="white" transform="matrix(1 0 0 -1 0 24)"/>
</clipPath>
</defs>
</svg>
