<svg xmlns="http://www.w3.org/2000/svg" width="140" height="40" viewBox="0 0 140 40" fill="none">
<path d="M8.26931 8.41377C6.62414 13.4335 4.69468 18.3585 2.46778 23.1492C1.84657 24.4864 1.20166 25.8131 0.535698 27.1292L1.73864 27.2871C0.917377 24.5654 1.41488 21.683 2.273 19.0323C3.11006 16.4527 4.27615 13.9679 5.61335 11.612C6.95054 9.2561 8.38513 7.19766 10.075 5.21819C10.9068 4.24425 11.7834 3.3098 12.7073 2.42536C13.0943 2.05421 13.4996 1.5725 14.0103 1.37508C14.105 1.33823 14.2103 1.30138 14.2814 1.32507C14.1972 1.29611 14.2867 1.33033 14.3025 1.36982C14.3735 1.57513 14.3472 1.77255 14.2946 1.9805C14.0919 2.77808 13.6944 3.54407 13.3812 4.29953C13.0495 5.10238 12.7178 5.90258 12.3862 6.70543C11.7071 8.3506 11.0253 9.99313 10.3462 11.6383C10.1198 12.1858 10.8595 12.657 11.3122 12.3806C12.2677 11.8015 13.4944 10.9829 14.6526 11.2382C15.6897 11.4646 16.2846 12.2937 16.2556 13.3466C16.2188 14.6312 15.4949 15.8684 14.8816 16.9581C14.2682 18.0479 13.547 19.1376 12.7442 20.1274C11.8413 21.2461 10.8331 22.2753 9.73022 23.1966C9.45646 23.4256 9.49331 23.8915 9.73022 24.1284C10.0013 24.3995 10.3883 24.3574 10.662 24.1284C12.8837 22.2674 14.7263 19.9589 16.1266 17.4267C16.8505 16.1158 17.6481 14.618 17.5691 13.0729C17.498 11.6646 16.6399 10.488 15.2922 10.0484C13.6418 9.50879 12.0229 10.4143 10.6489 11.2461L11.6149 11.9884C12.2625 10.4248 12.9074 8.86126 13.5549 7.29769C13.8866 6.49485 14.2182 5.69464 14.5499 4.89179C14.8526 4.15739 15.1895 3.43088 15.4554 2.68332C15.6976 2.00419 15.795 1.19082 15.3396 0.577503C14.8842 -0.0358157 14.1814 -0.106887 13.5338 0.153708C12.8863 0.414302 12.3888 0.909169 11.8887 1.38561C11.3885 1.86205 10.9016 2.35165 10.4278 2.85442C6.48989 7.03973 3.44172 12.0753 1.43067 17.4583C0.232987 20.6644 -0.546165 24.2706 0.467259 27.6346C0.622563 28.1479 1.40435 28.3164 1.67021 27.7925C4.08663 23.0176 6.2135 18.0979 8.0482 13.0703C8.56939 11.6436 9.06425 10.209 9.53806 8.76386C9.80129 7.95839 8.53253 7.61093 8.26931 8.41377Z" fill="#333333"/>
<path d="M16.2873 21.7014C14.7817 22.9017 13.8867 24.789 13.8419 26.7053C13.834 27.0607 14.1499 27.3634 14.5 27.3634C14.8501 27.3634 15.1502 27.0633 15.1581 26.7053C15.1686 26.2631 15.1976 26.0262 15.3055 25.5866C15.3555 25.3813 15.4187 25.1786 15.4924 24.9785C15.5661 24.7785 15.5977 24.7048 15.7056 24.4863C16.0873 23.7282 16.54 23.1702 17.2165 22.6306C17.4955 22.4094 17.4482 21.9304 17.2165 21.6987C16.9428 21.425 16.5637 21.4776 16.2847 21.6987L16.2873 21.7014Z" fill="#333333"/>
<path d="M34.9712 6.08946C33.4524 10.6933 31.5045 15.1471 29.1539 19.3877C28.5643 20.4511 27.951 21.5014 27.3113 22.5359C26.9876 23.0623 26.6559 23.5835 26.319 24.1021C26.0426 24.5285 25.7846 24.9918 25.4161 25.3498C25.2976 25.4656 25.145 25.6025 24.9712 25.6235C24.9186 25.6314 24.9054 25.6288 24.8449 25.6156C24.7923 25.6025 24.737 25.5683 24.737 25.5683C24.5027 25.3735 24.4053 24.9681 24.3632 24.6522C24.2211 23.5941 24.3448 22.4332 24.5132 21.383C25.2582 16.7475 27.8431 12.678 30.9386 9.24292C32.5548 7.44771 34.3132 5.78675 36.0952 4.15738C36.5295 3.7599 36.9612 3.3598 37.4008 2.96759C37.7693 2.63856 38.1879 2.30952 38.6564 2.14106C39.0144 2.01208 39.3803 2.00681 39.6462 2.26214C39.862 2.46746 39.9067 2.79649 39.8989 3.13079C39.8831 4.0284 39.4408 4.87335 39.0434 5.6604C38.5564 6.62118 38.001 7.54774 37.3798 8.43218C36.1531 10.18 34.658 11.7409 32.9839 13.0623C32.5838 13.3782 32.1679 13.673 31.7467 13.96C31.0492 14.4311 31.7072 15.5735 32.41 15.0971C34.3763 13.7678 36.1426 12.1516 37.6193 10.2932C38.3563 9.36137 39.0328 8.3848 39.6251 7.35295C40.1752 6.39481 40.7491 5.36296 41.0386 4.29426C41.3018 3.32032 41.3413 2.14632 40.6017 1.36191C39.7041 0.409025 38.3353 0.701207 37.3587 1.34611C36.3005 2.04366 35.3898 3.01497 34.4632 3.87309C33.5367 4.73121 32.5548 5.6604 31.6362 6.59223C28.0352 10.2379 24.8133 14.4917 23.5498 19.5456C23.2392 20.7854 23.0523 22.0647 23.0181 23.344C22.9891 24.3758 22.9734 25.6551 23.7525 26.4501C24.1579 26.8633 24.7607 27.0318 25.3213 26.8976C25.882 26.7633 26.3216 26.3553 26.6691 25.9157C27.4666 24.9023 28.1221 23.7441 28.7907 22.6438C31.5335 18.111 33.8157 13.2993 35.5977 8.30847C35.8188 7.68988 36.032 7.06604 36.2374 6.44219C36.5032 5.63671 35.2318 5.28925 34.9686 6.0921L34.9712 6.08946Z" fill="#333333"/>
<path d="M44.0207 13.0256C41.4332 13.3809 38.9799 14.5602 37.0636 16.3317C36.5767 16.7818 36.016 17.332 36.0265 18.0479C36.037 18.7639 36.6846 19.2535 37.3742 19.2272C38.0639 19.2009 38.6904 18.856 39.2984 18.6033C40.0039 18.3112 40.7067 18.0111 41.4016 17.6978C42.9389 17.0082 44.4471 16.2632 45.9317 15.4657L45.1342 14.4312C43.7417 15.5736 43.5706 17.8216 44.7104 19.193C45.8501 20.5644 48.0876 20.6828 49.4774 19.572C49.7564 19.3509 49.7091 18.8718 49.4774 18.6402C49.2037 18.3664 48.8246 18.4164 48.5456 18.6402C47.7164 19.3009 46.2713 19.1193 45.6396 18.2611C45.0078 17.403 45.2263 16.05 46.0634 15.3604C46.6609 14.8708 45.9002 13.9863 45.2658 14.3259C43.0257 15.5262 40.7251 16.616 38.3692 17.5662C38.1139 17.6689 37.8586 17.7847 37.5953 17.861C37.5216 17.8821 37.4479 17.9005 37.3716 17.9084C37.3453 17.9084 37.24 17.9216 37.2505 17.9084C37.261 17.8874 37.3269 17.9821 37.3348 17.9821C37.3663 17.99 37.3111 18.0479 37.3374 18.0348C37.3479 18.0295 37.369 17.9426 37.3769 17.9268C37.4321 17.8295 37.4953 17.7505 37.5717 17.6689C37.7664 17.4609 37.977 17.2688 38.1902 17.0819C38.9904 16.3764 39.8933 15.7921 40.8541 15.3288C41.9596 14.7971 43.1547 14.4601 44.3682 14.2943C44.7209 14.2469 44.9131 13.7942 44.8288 13.4836C44.7235 13.1045 44.3734 12.9755 44.0181 13.0229L44.0207 13.0256Z" fill="#333333"/>
<path d="M57.0164 13.6256C55.4528 13.5624 53.9051 13.8967 52.4863 14.5548C51.7861 14.8785 51.1412 15.2918 50.5384 15.7709C49.9356 16.2499 49.2854 16.8185 48.9669 17.5292C48.63 18.2821 48.8143 19.1902 49.6013 19.5719C50.2962 19.9114 51.0885 19.7667 51.8124 19.6193C53.3128 19.3165 54.7711 18.7664 56.1109 18.0267C57.635 17.1844 59.0196 16.0736 60.1672 14.7627L59.1328 13.9651C56.3583 18.1057 53.5813 22.2489 50.8069 26.3895C49.4065 28.4795 48.0061 30.5669 46.6058 32.6569C45.9188 33.6835 45.237 34.7127 44.5421 35.734C44.0446 36.4684 43.4813 37.2133 42.7627 37.7451C42.1493 38.1978 41.3702 38.49 40.6253 38.182C39.8803 37.874 39.4039 37.0791 39.2433 36.3078C39.0275 35.2734 39.3723 34.152 39.7987 33.2149C40.2252 32.2778 40.7358 31.4276 41.3228 30.609C43.6655 27.3502 47.098 25.0417 50.4647 22.9596C54.063 20.7353 57.8219 18.619 60.82 15.5866C61.1833 15.2207 61.5308 14.8391 61.8651 14.4495C62.4099 13.8125 61.5571 12.928 60.9332 13.5177C59.7382 14.6548 58.3273 16.6501 59.646 18.2163C60.799 19.5877 62.86 18.9507 64.0604 18.0215C64.8132 17.4371 65.4923 16.6422 66.3978 16.2868L65.6555 15.3208C64.5631 17.5266 63.4681 19.7324 62.3757 21.9383C62.0019 22.6937 63.1364 23.3623 63.5128 22.6016C64.6052 20.3958 65.7003 18.1899 66.7927 15.9841C67.019 15.5261 66.6295 14.789 66.0504 15.018C65.0975 15.3945 64.3683 16.0578 63.5971 16.7132C63.0022 17.2186 62.3283 17.6793 61.5229 17.6898C60.9332 17.6977 60.3462 17.3397 60.4384 16.6316C60.5489 15.7735 61.2702 15.018 61.8677 14.4495L60.9359 13.5177C58.0535 16.8817 54.1972 19.1297 50.4647 21.4171C46.8506 23.6335 43.2049 26.0209 40.5831 29.4166C39.9356 30.2563 39.3565 31.146 38.8827 32.0962C38.3457 33.1702 37.9088 34.3257 37.8745 35.5392C37.8193 37.5713 39.3012 39.8298 41.5518 39.6113C43.8024 39.3929 45.0396 37.3555 46.1372 35.7182C47.585 33.5571 49.0354 31.396 50.4831 29.2349C53.3812 24.9127 56.2767 20.5879 59.1749 16.2657C59.5408 15.7209 59.904 15.176 60.2699 14.6311C60.6832 14.0151 59.7303 13.2702 59.2354 13.8335C57.5192 15.7919 55.2844 17.2555 52.7916 18.0136C52.1967 18.1952 51.5518 18.3637 50.949 18.4426C50.7358 18.4716 50.5015 18.4821 50.3015 18.4321C50.1593 18.3952 50.1014 18.3821 50.1093 18.2268C50.1225 17.9715 50.3884 17.7109 50.5489 17.5371C50.7858 17.2844 51.0412 17.0475 51.3096 16.8264C51.7992 16.421 52.3494 16.0815 52.918 15.7972C54.1867 15.1655 55.6029 14.8785 57.0164 14.9338C57.864 14.968 57.8614 13.6519 57.0164 13.6177V13.6256Z" fill="#333333"/>
<path d="M69.093 17.8899C72.5597 16.758 75.85 15.1155 78.8245 13.0044C79.0666 12.8333 79.2088 12.5595 79.1272 12.2621C79.0561 12.0041 78.7771 11.7488 78.4928 11.7778C75.4288 12.091 72.4544 13.0992 69.859 14.7654C69.2114 15.1813 68.5928 15.6367 67.9979 16.1236C67.4031 16.6106 66.766 17.1186 66.5923 17.882C66.4186 18.6453 66.8424 19.4403 67.4978 19.872C68.1533 20.3037 69.014 20.3116 69.7879 20.1958C72.5886 19.7825 75.3551 18.8006 77.9005 17.5872C80.446 16.3737 82.815 14.8233 84.9603 13.0018C87.1056 11.1802 89.0035 9.07441 90.5934 6.75275C91.0277 6.11837 91.6068 5.40239 91.6199 4.59955C91.6305 3.9099 91.2119 3.30184 90.6091 2.99123C89.1035 2.21735 87.7373 3.31237 86.7581 4.3837C84.6497 6.68957 82.8387 9.2692 81.3936 12.0383C80.675 13.4177 80.0274 14.847 79.501 16.3132C79.2483 17.0186 79.0666 17.7978 79.2456 18.5427C79.4246 19.2876 79.9932 19.8404 80.7092 20.0773C82.2359 20.5801 83.5862 19.5429 84.6102 18.5374C85.6342 17.5319 86.7555 16.3421 86.6002 14.797C86.5291 14.0863 86.229 13.4203 85.6447 12.9912C84.9919 12.5122 84.139 12.5043 83.3836 12.7043C81.9621 13.0807 80.6144 13.9757 79.5641 14.9839C79.0482 15.4787 78.5955 16.0341 78.1927 16.6264C77.7163 17.3292 78.8561 17.9873 79.3299 17.2897C80.0169 16.2789 80.9198 15.4182 81.9621 14.7812C82.4807 14.4627 83.0361 14.1757 83.6231 14.002C84.0864 13.8651 84.6892 13.7835 85.0261 14.1889C85.7395 15.0444 84.9971 16.2237 84.3733 16.9001C83.9311 17.3819 83.4573 17.8636 82.9466 18.2742C82.5307 18.6085 82.0411 18.8875 81.4962 18.8796C81.0803 18.8744 80.6723 18.7006 80.5355 18.2821C80.367 17.7609 80.5907 17.1502 80.7671 16.6606C81.2225 15.3892 81.7805 14.1521 82.3965 12.9517C83.631 10.538 85.1393 8.26367 86.9003 6.19997C87.332 5.69457 87.7663 5.18391 88.248 4.7259C88.6165 4.37318 89.114 3.98886 89.6273 4.03888C89.7905 4.05467 90.009 4.12837 90.1538 4.25209C90.267 4.34948 90.3143 4.44951 90.3012 4.59429C90.2775 4.8891 90.059 5.16812 89.9037 5.40766C89.7379 5.66299 89.5694 5.91569 89.3957 6.16838C88.0164 8.16891 86.3791 9.98781 84.5628 11.6014C80.9435 14.8154 76.5581 17.1765 71.8727 18.4005C71.2672 18.5585 70.6565 18.698 70.0432 18.8164C69.4931 18.9244 68.8061 19.0849 68.2796 18.8059C67.8347 18.569 67.7584 18.1847 68.0822 17.8083C68.4876 17.3397 69.0272 16.9502 69.5247 16.5843C71.6305 15.0312 74.0495 13.9388 76.6081 13.3913C77.2293 13.2571 77.8558 13.1571 78.4875 13.0939L78.1559 11.8672C75.2735 13.9125 72.099 15.5235 68.7376 16.6185C67.9348 16.8791 68.2796 18.1505 69.0877 17.8873L69.093 17.8899Z" fill="#333333"/>
<path d="M93.5811 14.31C93.0072 13.565 92.1438 13.186 91.2015 13.2439C90.1854 13.3071 89.3273 13.8204 88.556 14.4495C87.7848 15.0786 86.9741 15.7472 86.516 16.6053C86.058 17.4634 86.0106 18.569 86.6819 19.3376C87.9322 20.7774 90.1775 19.764 91.6095 19.2323C93.5889 18.4979 95.5737 17.6977 97.3452 16.5342C99.1272 15.3655 100.715 13.8362 101.688 11.9199C101.836 11.6277 101.791 11.275 101.52 11.0696C101.275 10.888 100.872 10.867 100.657 11.1223C98.1981 13.9994 96.1107 17.1818 94.4787 20.5958C94.326 20.917 94.3892 21.3065 94.7156 21.4961C95.013 21.6698 95.4473 21.575 95.6158 21.2592C97.1425 18.3847 99.5168 16.042 102.41 14.5469L101.746 13.4097C99.6247 14.968 97.7848 16.8422 96.2686 18.9954C96.0264 19.3376 96.2739 19.8719 96.6608 19.9614C99.8037 20.6958 103.099 20.3431 106.024 18.9875C106.345 18.8375 106.427 18.3742 106.261 18.0873C106.069 17.7556 105.684 17.7003 105.36 17.8504C102.77 19.0507 99.7879 19.3402 97.0135 18.6927L97.4057 19.6587C98.7824 17.703 100.483 15.963 102.412 14.5469C103.086 14.052 102.515 13.0149 101.749 13.4097C98.6719 14.9996 96.108 17.5371 94.4839 20.5932L95.6211 21.2565C97.2057 17.9451 99.2062 14.839 101.594 12.0488L100.559 11.2513C99.0562 14.2152 96.1001 15.9999 93.1283 17.2344C92.2728 17.5898 91.4015 17.9109 90.5329 18.2294C89.909 18.4558 89.2668 18.7164 88.5955 18.7374C88.1059 18.7532 87.5584 18.6348 87.4979 18.0346C87.4215 17.3002 88.0217 16.7106 88.5087 16.2526C89.1299 15.6682 89.7932 15.0022 90.6066 14.6916C91.1646 14.4784 92.0464 14.4284 92.4597 14.9628C92.6755 15.2444 93.0256 15.3945 93.3599 15.1997C93.6363 15.0365 93.8127 14.5837 93.5968 14.2994L93.5811 14.31Z" fill="#333333"/>
<path d="M107.869 13.9469C107.045 14.5496 106.226 15.1893 105.858 16.1764C105.558 16.9766 105.755 18.0216 106.382 18.6191C106.742 18.9613 107.224 19.143 107.719 19.1035C108.324 19.0561 108.84 18.7429 109.343 18.427C110.32 17.811 111.272 17.1609 112.202 16.4765C113.273 15.6868 114.313 14.8524 115.316 13.9784C115.892 13.4757 115.155 12.5912 114.518 12.944C113.663 13.4204 112.754 13.9732 112.346 14.9076C111.938 15.8421 112.075 16.9898 112.962 17.6083C113.757 18.1638 114.847 18.0111 115.718 17.7426C116.7 17.4399 117.653 17.0056 118.527 16.4659C119.525 15.85 120.438 15.0866 121.222 14.2153C121.717 13.6652 121.096 12.8176 120.425 13.1809C119.546 13.6573 118.64 14.2338 118.335 15.2498C118.03 16.2659 118.474 17.2925 119.469 17.6478C120.359 17.9637 121.436 17.6926 122.299 17.4057C123.334 17.0608 124.268 16.5291 125.116 15.8447C125.368 15.642 125.352 15.213 125.168 14.9813C124.952 14.7102 124.626 14.6707 124.318 14.8129C123.623 15.134 123.168 15.8447 123.055 16.587C122.926 17.4241 123.173 18.2032 123.71 18.8508C124.931 20.3222 126.979 20.3433 128.724 20.2485C129.567 20.2038 129.572 18.8876 128.724 18.9324C127.461 19.0008 125.913 19.1245 124.902 18.198C124.231 17.582 124.036 16.3843 124.981 15.95L124.184 14.9155C123.613 15.3788 122.952 15.7631 122.262 16.0264C121.623 16.2685 120.875 16.5186 120.18 16.4633C119.656 16.4212 119.435 16.0553 119.617 15.5578C119.841 14.9419 120.551 14.6102 121.086 14.3206L120.288 13.2862C118.911 14.8208 117.09 16.0316 115.084 16.5554C114.486 16.7107 113.444 16.8266 113.431 15.9579C113.415 15.0077 114.476 14.4759 115.181 14.0811L114.384 13.0466C112.547 14.6444 110.588 16.1001 108.522 17.3872C108.203 17.5847 107.695 17.9242 107.382 17.74C107.187 17.6268 107.056 17.3135 107.037 17.0661C106.977 16.2132 107.885 15.5578 108.53 15.084C108.817 14.8734 108.959 14.5128 108.767 14.1838C108.601 13.9021 108.156 13.7363 107.866 13.9469H107.869Z" fill="#333333"/>
<path d="M123.213 11.9304C123.015 11.9489 122.923 11.9383 122.773 11.762C122.662 11.633 122.573 11.4119 122.554 11.2461C122.491 10.7012 122.96 10.1905 123.349 9.82989C124.413 8.84542 125.666 8.01362 126.871 7.21341C129.348 5.56561 131.986 4.13892 134.734 2.99652C136.303 2.34371 137.906 1.77778 139.538 1.2987C140.349 1.05917 140.004 -0.209587 139.188 0.0299492C135.966 0.980199 132.841 2.26738 129.888 3.86517C128.427 4.65485 127.008 5.5235 125.639 6.46322C124.947 6.93966 124.268 7.43189 123.602 7.94518C122.936 8.45848 122.289 8.93492 121.796 9.60088C121.304 10.2668 121.083 11.1197 121.378 11.912C121.673 12.7043 122.357 13.3308 123.218 13.2466C123.571 13.2124 123.876 12.9702 123.876 12.5885C123.876 12.2595 123.573 11.8962 123.218 11.9304H123.213Z" fill="#333333"/>
</svg>
