<svg xmlns="http://www.w3.org/2000/svg" xmlns:xlink="http://www.w3.org/1999/xlink"><defs>
<clipPath id="clip0_148_169">
<rect width="48" height="21" fill="white" transform="translate(0.549805 0.5)"/>
</clipPath>

<clipPath id="clip0_161_28">
<rect width="27" height="16" fill="currentColor"/>
</clipPath>

<clipPath id="clip0_148_234">
<rect width="81.3486" height="21" fill="white"/>
</clipPath>

<clipPath id="clip0_148_191">
<rect width="79" height="26" fill="white"/>
</clipPath>

<clipPath id="clip0_704_2225">
<rect width="100" height="19.6592" fill="white"/>
</clipPath>

<clipPath id="clip0_120_142">
<rect width="58" height="58" fill="white"/>
</clipPath>

<clipPath id="clip0_702_2152">
<rect width="35" height="35" fill="white"/>
</clipPath>

<clipPath id="clip0_120_122">
<rect width="58" height="58" fill="white"/>
</clipPath>

<clipPath id="clip0_52_3375">
<rect width="62" height="60" fill="white"/>
</clipPath>

<clipPath id="clip0_148_151">
<rect width="61" height="23" fill="white" transform="translate(0.0498047 0.5)"/>
</clipPath>
</defs><symbol id="2gis" viewBox="0 0 49 22"><g fill="none">
<g clip-path="url(#clip0_148_169)">
<path d="M20.5498 11C20.5478 9.75038 20.3313 8.51038 19.9098 7.334C19.8028 11.095 16.1618 14.007 14.0238 15.934H19.3748C20.1502 14.4051 20.5528 12.7143 20.5498 11ZM16.6818 2.718C14.9878 1.333 12.8638 0.5 10.5498 0.5C5.0268 0.5 0.549805 5.201 0.549805 11C0.549805 16.799 5.0268 21.5 10.5498 21.5C13.0798 21.5 15.3818 20.506 17.1428 18.88H9.9028L9.88081 16.648C14.2428 12.666 16.9178 9.973 16.9178 7.372C16.9178 6.405 16.5668 5.185 14.9878 5.185C13.7388 5.185 12.5338 5.945 12.7528 9.121H10.2098C9.5738 5.439 11.4808 2.516 15.1198 2.516C15.6838 2.516 16.2058 2.586 16.6818 2.718Z" fill="#A3C626"/>
<path d="M30.6758 7.285H33.0788C33.1598 5.434 32.5448 2.5 28.5818 2.5C25.6648 2.5 23.5498 4.269 23.5498 7.95C23.5498 8.45 23.5698 11.03 23.5698 12.632C23.5698 16.627 26.3018 17.5 28.6018 17.5C29.9778 17.5 31.9698 17.188 32.8938 16.168V9.803H28.3758V12.113H30.3888V14.921C28.8688 15.441 26.0968 15.65 26.0968 12.113V7.95C26.0968 5.474 27.2268 4.621 28.4788 4.621C29.7728 4.621 30.6758 5.288 30.6758 7.285ZM48.5498 13.464C48.6518 7.764 42.2038 9.657 42.2648 6.474C42.2848 5.351 43.0048 4.622 44.1748 4.622C45.4278 4.622 46.1668 5.372 46.1468 7.327H48.5078C48.5698 5.558 48.1588 2.542 44.2578 2.542C41.8338 2.542 39.8418 3.749 39.8008 6.432C39.6978 11.903 46.1878 10.114 46.0848 13.422C46.0448 14.774 45.0788 15.378 43.9908 15.378C42.7168 15.378 41.6908 14.628 41.8958 12.382H39.5128C39.2458 15.357 40.5398 17.479 43.9698 17.479C46.8658 17.479 48.5078 15.856 48.5498 13.464ZM37.6998 17.292H35.2768V2.729H37.6998V17.292ZM37.6998 17.292H35.2768V2.729H37.6998V17.292Z" fill="#434242"/>
</g>

</g></symbol><symbol id="arrow-more" viewBox="0 0 27 16"><g fill="none">
<g clip-path="url(#clip0_161_28)">
<path d="M26.7071 8.7073C27.0976 8.31677 27.0976 7.68361 26.7071 7.29308L20.3431 0.929123C19.9526 0.538599 19.3195 0.538599 18.9289 0.929123C18.5384 1.31965 18.5384 1.95281 18.9289 2.34334L24.5858 8.00019L18.9289 13.6571C18.5384 14.0476 18.5384 14.6807 18.9289 15.0713C19.3195 15.4618 19.9526 15.4618 20.3431 15.0713L26.7071 8.7073ZM0 9.00019H26V7.00019H0V9.00019Z" fill="currentColor"/>
</g>

</g></symbol><symbol id="doctu" viewBox="0 0 82 21"><g fill="none">
<g clip-path="url(#clip0_148_234)">
<path fill-rule="evenodd" clip-rule="evenodd" d="M26.3933 16.2695C30.8825 16.2695 34.498 12.6239 34.498 8.16479C34.498 3.67555 30.8524 0.0600586 26.3933 0.0600586C21.9342 0.0600586 18.2886 3.67555 18.2886 8.13466C18.2886 12.6239 21.9041 16.2695 26.3933 16.2695ZM26.3933 12.5636C28.8338 12.5636 30.7922 10.5751 30.7922 8.16479C30.7922 5.72433 28.8036 3.76594 26.3933 3.76594C23.9528 3.76594 21.9945 5.75446 21.9945 8.16479C21.9945 10.5751 23.9528 12.5636 26.3933 12.5636Z" fill="#13A546"/>
<path fill-rule="evenodd" clip-rule="evenodd" d="M30.3101 16.0289L33.9557 20.2771C34.6185 21.0605 35.7936 21.1509 36.5769 20.488C37.3603 19.8252 37.4507 18.6502 36.7878 17.8668L33.2326 13.709C32.4492 14.6731 31.455 15.4565 30.3101 16.0289Z" fill="#13A546"/>
<path d="M50.7075 13.558C50.7075 14.1003 50.5267 14.5522 50.1953 14.8837C49.8338 15.2452 49.412 15.3959 48.8998 15.3959C48.3273 15.3959 47.8452 15.185 47.4837 14.7632L43.356 9.82197L41.6085 11.4489V13.5279C41.6085 14.0401 41.4277 14.4619 41.0662 14.8234C40.7046 15.185 40.2527 15.3657 39.7706 15.3657C39.2886 15.3657 38.8366 15.185 38.4751 14.8234C38.1135 14.4619 37.9629 14.0099 37.9629 13.5279V2.86215C37.9629 2.34995 38.1437 1.92814 38.4751 1.56659C38.8366 1.20504 39.2886 1.02427 39.8008 1.02427C40.313 1.02427 40.7348 1.20504 41.0662 1.56659C41.4277 1.92814 41.6085 2.38008 41.6085 2.86215V7.38152L47.4234 1.47621C47.7549 1.14479 48.1465 0.994141 48.6286 0.994141C49.1107 0.994141 49.5325 1.17492 49.8338 1.50634C50.1652 1.83776 50.3158 2.22943 50.3158 2.7115C50.3158 3.19357 50.1652 3.61537 49.8338 3.91667L46.0375 7.65268L50.346 12.4432C50.587 12.6842 50.7075 13.0759 50.7075 13.558Z" fill="#2C2B67"/>
<path d="M57.5164 13.558V4.42889H55.0156C54.5637 4.42889 54.172 4.27825 53.8406 3.97696C53.5393 3.67567 53.3887 3.28399 53.3887 2.83205C53.3887 2.38011 53.5393 2.01856 53.8406 1.68714C54.172 1.35572 54.5637 1.20508 55.0156 1.20508H63.7531C64.205 1.20508 64.5666 1.35572 64.898 1.68714C65.2294 1.98844 65.3801 2.38011 65.3801 2.83205C65.3801 3.25386 65.2294 3.64554 64.898 3.97696C64.5967 4.27825 64.205 4.42889 63.7531 4.42889H61.2222V13.5881C61.2222 14.1003 61.0415 14.5222 60.6799 14.8837C60.3184 15.2453 59.8664 15.426 59.3844 15.426C58.8722 15.426 58.4504 15.2453 58.0888 14.8837C57.7273 14.5222 57.5164 14.0702 57.5164 13.558Z" fill="#2C2B67"/>
<path d="M69.8693 17.6555L70.05 17.6254C71.0142 17.5953 71.6469 17.2639 71.9783 16.601L72.4905 15.3959L67.6698 3.46473C67.5794 3.31408 67.5493 3.07305 67.5493 2.80189C67.5493 2.28969 67.7301 1.86789 68.0615 1.53646C68.4231 1.17492 68.8449 0.994141 69.3269 0.994141C70.2007 0.994141 70.7731 1.38582 71.0142 2.13905L74.3886 11.0874L77.733 2.13905C78.0343 1.38582 78.6067 0.994141 79.4503 0.994141C79.9625 0.994141 80.4145 1.17492 80.7459 1.53646C81.1074 1.89801 81.2581 2.31982 81.2581 2.80189C81.2581 3.01279 81.1978 3.25383 81.1074 3.49486L75.413 17.5049C74.5393 19.7345 72.852 20.8794 70.3212 20.9095C70.1103 20.9095 69.9596 20.9095 69.9295 20.8794C69.4475 20.8492 69.0558 20.6986 68.7244 20.3973C68.3929 20.096 68.2724 19.7043 68.2724 19.2223C68.2724 18.7703 68.4231 18.4088 68.7244 18.1075C69.0859 17.8363 69.4475 17.6857 69.8693 17.6555Z" fill="#2C2B67"/>
<path d="M16.1189 13.9196V17.294C16.1189 17.746 15.9682 18.1075 15.6669 18.4389C15.3657 18.7704 14.974 18.8909 14.522 18.8909C14.0701 18.8909 13.6784 18.7402 13.347 18.4389C13.0457 18.1376 12.8951 17.746 12.8951 17.294V15.185H3.28388V17.294C3.28388 17.746 3.13323 18.1075 2.83194 18.4389C2.53065 18.7704 2.13897 18.8909 1.68703 18.8909C1.23509 18.8909 0.843416 18.7402 0.511996 18.4389C0.210704 18.1376 0.0600586 17.746 0.0600586 17.294V14.4619C0.0600586 13.076 0.511996 12.2926 1.38574 12.0516C2.1691 10.6054 2.74155 8.10465 3.07297 4.54941L3.19349 3.1936C3.25375 2.56089 3.46465 2.07882 3.85633 1.7474C4.24801 1.38585 4.73007 1.20508 5.33266 1.20508H12.3527C13.0457 1.20508 13.588 1.38585 13.9496 1.77753C14.3413 2.13908 14.522 2.68141 14.522 3.37438V12.0214C15.6067 12.1118 16.1189 12.7445 16.1189 13.9196ZM10.8764 11.9612V4.39877H6.35705L6.26666 5.63406C6.08588 8.64697 5.60382 10.756 4.85059 11.9612H10.8764Z" fill="#2C2B67"/>
</g>

</g></symbol><symbol id="google" viewBox="0 0 79 26"><g fill="none">
<g clip-path="url(#clip0_148_191)">
<path d="M34 13.5C34 17.242 31.082 20 27.5 20C23.918 20 21 17.242 21 13.5C21 9.731 23.918 7 27.5 7C31.082 7 34 9.731 34 13.5ZM31.155 13.5C31.155 11.161 29.463 9.561 27.5 9.561C25.537 9.561 23.845 11.161 23.845 13.5C23.845 15.815 25.537 17.439 27.5 17.439C29.463 17.439 31.155 15.812 31.155 13.5Z" fill="#FF2950"/>
<path d="M48 13.5C48 17.242 45.082 20 41.5 20C37.918 20 35 17.242 35 13.5C35 9.734 37.918 7 41.5 7C45.082 7 48 9.731 48 13.5ZM45.155 13.5C45.155 11.161 43.463 9.561 41.5 9.561C39.537 9.561 37.845 11.161 37.845 13.5C37.845 15.815 39.537 17.439 41.5 17.439C43.463 17.439 45.155 15.812 45.155 13.5Z" fill="#FBBC05"/>
<path d="M61 7.396V19.176C61 24.02 58.274 26 55.05 26C52.017 26 50.191 23.873 49.502 22.134L51.896 21.09C52.322 22.157 53.366 23.418 55.048 23.418C57.111 23.418 58.389 22.083 58.389 19.572V18.628H58.293C57.678 19.424 56.493 20.119 54.997 20.119C51.867 20.119 49 17.262 49 13.585C49 9.88 51.867 7 54.997 7C56.49 7 57.675 7.695 58.294 8.467H58.39V7.4H61V7.396ZM58.584 13.585C58.584 11.275 57.114 9.585 55.243 9.585C53.346 9.585 51.757 11.275 51.757 13.585C51.757 15.871 53.347 17.537 55.243 17.537C57.113 17.537 58.584 15.871 58.584 13.585Z" fill="#4285F4"/>
<path d="M66 1V20H63V1H66Z" fill="#34A853"/>
<path d="M76.66 15.642L78.877 17.119C78.16 18.177 76.437 20 73.457 20C69.76 20 67 17.146 67 13.5C67 9.635 69.784 7 73.136 7C76.513 7 78.164 9.684 78.704 11.135L79 11.874L70.303 15.472C70.969 16.776 72.004 17.442 73.456 17.442C74.911 17.442 75.92 16.727 76.659 15.642H76.66ZM69.834 13.304L75.647 10.892C75.327 10.08 74.365 9.514 73.233 9.514C71.781 9.514 69.761 10.795 69.834 13.304Z" fill="#FF2950"/>
<path d="M10.41 11.887V9.155H19.86C19.952 9.631 20 10.195 20 10.805C20 12.855 19.425 15.389 17.571 17.195C15.768 19.025 13.464 20 10.413 20C4.756 20 0 15.511 0 10C0 4.489 4.756 0 10.413 0C13.542 0 15.771 1.196 17.446 2.756L15.467 4.684C14.267 3.586 12.639 2.732 10.41 2.732C6.28 2.732 3.049 5.976 3.049 10C3.049 14.024 6.279 17.268 10.409 17.268C13.089 17.268 14.615 16.219 15.592 15.268C16.385 14.495 16.907 13.391 17.112 11.884L10.41 11.887Z" fill="#4285F4"/>
</g>

</g></symbol><symbol id="hygiene" viewBox="0 0 49 56"><g fill="none">
<path d="M48.595 8.17713C49.2025 7.38668 49.1266 6.28001 48.3673 5.48956C47.7598 4.85719 46.9246 4.62004 46.2412 4.85719L42.3688 0.983925C41.9892 0.588692 41.3817 0.588692 41.0021 0.983925L36.6741 5.48956C36.2944 5.88478 36.2944 6.51713 36.6741 6.91235L40.015 10.3904C34.7758 15.3704 27.7144 22.0893 27.2588 22.5635L27.1829 22.6426C26.4995 22.4054 25.8161 22.3264 25.1327 22.3264C23.2345 22.3264 21.4881 23.1168 20.1214 24.4606L2.0501 43.3526C0.7593 44.7754 0 46.5935 0 48.5697C0 50.5458 0.7593 52.3639 2.0501 53.7867L2.12603 53.8658C3.4928 55.2096 5.2392 56 7.1374 56C9.03559 56 10.782 55.2096 12.1488 53.8658L30.22 35.0527C31.5868 33.63 32.2701 31.8119 32.2701 29.8357C32.2701 29.2034 32.1942 28.6501 32.0424 28.0967C32.1183 28.0967 32.1183 28.0177 32.1942 28.0177L48.595 8.17713ZM38.7242 6.1219L41.6854 3.03912L44.6467 6.0429C43.9633 6.75424 42.8244 7.7819 41.5336 9.04658L38.7242 6.1219ZM12.984 50.1505L5.6188 42.4831L9.49119 38.4517L9.5671 38.5309C10.6302 39.6374 11.9969 40.1908 13.3636 40.1908C14.7304 40.1908 16.0971 39.6374 17.1601 38.5309C19.2102 36.3965 19.2862 32.8395 17.2361 30.7053C17.1601 30.6262 17.0842 30.6262 17.0842 30.5472L20.2732 27.2273L27.6384 34.8947L12.984 50.1505ZM15.8693 32.0491C17.1601 33.4718 17.1601 35.6852 15.7934 37.108C14.4267 38.5309 12.2247 38.5309 10.858 37.108C10.858 37.108 10.858 37.029 10.782 37.029L15.7175 31.891C15.7934 31.97 15.7934 32.0491 15.8693 32.0491ZM7.1374 54.0239C5.7707 54.0239 4.4799 53.4706 3.4928 52.4429L3.4168 52.3639C2.42975 51.3363 1.89824 49.9925 1.89824 48.5697C1.89824 47.1469 2.42975 45.8031 3.4168 44.7754L4.2521 43.906L11.6173 51.5734L10.782 52.4429C9.7949 53.4706 8.5041 54.0239 7.1374 54.0239ZM28.9292 33.4718L21.5641 25.8044C22.5511 24.8558 23.766 24.3025 25.1327 24.3025C26.4995 24.3025 27.7903 24.8558 28.7774 25.8835L28.8533 25.9625C29.8404 26.9901 30.3719 28.3338 30.3719 29.7567C30.3719 31.1795 29.8404 32.5233 28.9292 33.4718ZM30.22 24.5396C29.8404 24.1444 29.4607 23.8283 29.0811 23.512C35.1555 17.7417 46.0134 7.38668 46.7727 6.75424C46.8487 6.75424 47.0005 6.83335 47.0764 6.99146L31.2831 25.9625C30.9793 25.4882 30.6756 25.0139 30.22 24.5396Z" fill="currentColor"/>
</g></symbol><symbol id="implantation" viewBox="0 0 51 61"><g fill="none">
<mask id="mask0_52_3386" style="mask-type:luminance" maskUnits="userSpaceOnUse" x="-8" y="0" width="59" height="61">
<path d="M51 0H-8V61H51V0Z" fill="white"/>
</mask>
<g mask="url(#mask0_52_3386)">
<path d="M43.1641 15.9925C43.1641 10.1998 41.2235 3.2007 35.7769 0.930053C31.7482 -0.750488 29.3044 0.176579 26.7185 1.15902C25.0497 1.86769 23.2931 2.33138 21.5 2.53658C19.707 2.33115 17.9505 1.86747 16.2816 1.15901C13.6951 0.177503 11.2513 -0.750021 7.22357 0.930053C1.77649 3.2007 -0.164033 10.1998 -0.164033 15.9925C-0.17033 19.492 0.844692 22.912 2.74833 25.8056V33.5834C2.74833 33.8362 2.84549 34.0786 3.01834 34.2574C3.1912 34.4361 3.42572 34.5366 3.6702 34.5366H4.97539C5.22854 35.4696 5.49994 36.3923 5.78968 37.3048L4.07398 37.5542C3.84305 37.5878 3.63305 37.7107 3.4862 37.8979C3.33943 38.0853 3.26679 38.3232 3.28283 38.5637C3.29896 38.8043 3.40258 39.0296 3.57294 39.1942C3.74331 39.3589 3.96769 39.4507 4.20093 39.4511C4.24425 39.4512 4.28758 39.4481 4.33054 39.4418L6.40227 39.1406C6.7547 40.1485 7.12124 41.1449 7.51571 42.1146C7.56264 42.2299 7.63113 42.3347 7.71714 42.4226C7.80324 42.5107 7.9052 42.5804 8.0173 42.6276C8.1294 42.6749 8.24943 42.6988 8.37057 42.6982C8.49161 42.6975 8.61136 42.6722 8.723 42.6236C8.83455 42.5751 8.93586 42.5044 9.02095 42.4154C9.10613 42.3264 9.17352 42.2209 9.21924 42.105C9.26497 41.9891 9.28811 41.865 9.28746 41.7399C9.28682 41.6147 9.26239 41.4909 9.21537 41.3755C8.88221 40.5566 8.56987 39.7173 8.26741 38.8698L36.0287 34.8357C35.8489 35.4666 35.6575 36.1133 35.4443 36.7839C35.4065 36.9028 35.3916 37.0282 35.4007 37.153C35.4097 37.2778 35.4424 37.3996 35.497 37.5113C35.5516 37.623 35.6268 37.7225 35.7186 37.8041C35.8104 37.8857 35.9167 37.9479 36.0317 37.987C36.1467 38.0261 36.268 38.0414 36.3887 38.0321C36.5094 38.0227 36.6271 37.9889 36.7352 37.9325C36.8432 37.876 36.9395 37.7983 37.0184 37.7033C37.0974 37.6085 37.1575 37.4985 37.1953 37.3796C37.472 36.5108 37.7204 35.6701 37.9427 34.8667L38.0326 34.5366H39.3299C39.5744 34.5366 39.8088 34.4361 39.9817 34.2574C40.1546 34.0786 40.2517 33.8362 40.2518 33.5834V25.8061C42.1555 22.9124 43.1706 19.4922 43.1641 15.9925ZM7.91322 2.69761C11.2824 1.29259 13.1132 1.98695 15.6465 2.94846C17.4927 3.72713 19.4367 4.2303 21.42 4.44283C21.4733 4.44749 21.5269 4.44749 21.5802 4.44283C23.5634 4.2303 25.5074 3.72713 27.3536 2.94846C29.8879 1.98789 31.7182 1.29306 35.0873 2.69761C39.6828 4.61363 41.3204 10.8215 41.3204 15.9925C41.3289 19.0218 40.4789 21.9872 38.8756 24.5227H4.12459C2.52136 21.9871 1.67148 19.0217 1.67969 15.9925C1.67969 10.8215 3.31731 4.61363 7.91322 2.69761ZM37.6166 32.6303C37.4743 32.6328 37.3347 32.6702 37.209 32.7392L7.64274 37.0356C7.25067 35.8215 6.88589 34.5882 6.56046 33.3363C6.55475 33.3142 6.53926 33.2985 6.53216 33.2774C6.51059 33.2172 6.48293 33.1594 6.44956 33.1053C6.39609 32.9997 6.32133 32.9075 6.23025 32.8346C6.13917 32.7617 6.03398 32.71 5.92188 32.6829C5.85965 32.6622 5.7954 32.6488 5.73032 32.6429C5.7093 32.6415 5.6915 32.6303 5.67012 32.6303H4.59208V26.8941C4.6154 26.8783 4.64186 26.8715 4.66407 26.8534C4.79388 26.7419 4.89049 26.5947 4.94276 26.4289H38.0572C38.1094 26.5947 38.2059 26.7418 38.3355 26.8534C38.3576 26.8715 38.3848 26.8757 38.408 26.8913V32.6303H37.6166Z" fill="currentColor"/>
<path d="M37.6781 39.691L9.54748 43.7785L6.92861 44.1592C6.69769 44.1929 6.48768 44.3157 6.34083 44.5031C6.19406 44.6904 6.12133 44.9283 6.13746 45.1689C6.15359 45.4094 6.25721 45.6347 6.42758 45.7994C6.59794 45.964 6.82232 46.0557 7.05556 46.0562C7.09889 46.0563 7.14221 46.0532 7.18517 46.0469L9.14868 45.7615C9.61957 46.7231 10.1126 47.6672 10.621 48.5666C10.7445 48.7847 10.9467 48.9433 11.1833 49.0074C11.4198 49.0714 11.6713 49.0358 11.8823 48.9082C12.0934 48.7804 12.2468 48.5714 12.3088 48.3269C12.3707 48.0823 12.3362 47.8223 12.2127 47.6041C11.826 46.92 11.4513 46.205 11.0854 45.4801L33.4224 42.2344C33.0695 43.0633 32.7025 43.8851 32.3194 44.6782C32.2648 44.7902 32.2322 44.9122 32.2234 45.0372C32.2146 45.1623 32.2298 45.2879 32.268 45.407C32.3063 45.5259 32.3668 45.6359 32.4462 45.7307C32.5257 45.8255 32.6224 45.9031 32.7309 45.9591C32.8394 46.015 32.9575 46.0484 33.0785 46.0572C33.1995 46.0659 33.321 46.0499 33.4359 46.01C33.5509 45.9702 33.6571 45.9072 33.7485 45.8248C33.84 45.7425 33.9148 45.6422 33.9686 45.5298C34.4516 44.5302 34.9166 43.4915 35.3505 42.4424C35.4111 42.2852 35.4289 42.1138 35.4018 41.9468L37.9347 41.5787C38.1752 41.5417 38.3918 41.4078 38.5374 41.2064C38.6829 41.005 38.7456 40.7523 38.7117 40.5033C38.6779 40.2544 38.5503 40.0293 38.3567 39.8772C38.1631 39.725 37.9192 39.6581 37.6781 39.691Z" fill="currentColor"/>
<path d="M33.506 47.6967L11.141 50.9465C10.9101 50.9801 10.7001 51.1029 10.5532 51.2903C10.4064 51.4777 10.3338 51.7156 10.3498 51.9561C10.366 52.1967 10.4696 52.422 10.64 52.5866C10.8103 52.7513 11.0347 52.8431 11.2679 52.8434C11.3114 52.8435 11.3547 52.8405 11.3976 52.8341L13.2502 52.5649C13.2768 52.6962 13.3304 52.8201 13.4074 52.9282C15.54 55.9187 18.0804 58.574 20.9495 60.8115C21.1086 60.9341 21.3018 61.0004 21.5004 61.0004C21.699 61.0004 21.8922 60.9341 22.0514 60.8115C25.7818 57.8791 28.964 54.268 31.4416 50.1553C31.4836 50.078 31.5147 49.9947 31.5338 49.9082L33.7624 49.5843C34.0029 49.5473 34.2196 49.4134 34.3651 49.212C34.5106 49.0106 34.5733 48.7579 34.5395 48.5089C34.5056 48.26 34.3781 48.0349 34.1845 47.8828C33.9909 47.7307 33.747 47.6638 33.506 47.6967ZM21.5004 58.8489C19.1606 56.937 17.0633 54.7277 15.2584 52.2731L29.1669 50.2522C27.0593 53.5124 24.4727 56.4129 21.5004 58.8489Z" fill="currentColor"/>
</g>
</g></symbol><symbol id="napopravku" viewBox="0 0 100 20"><g fill="none">
<g clip-path="url(#clip0_704_2225)">
<path d="M0 6.74049C0 4.38075 8.43683e-07 3.20131 0.459202 2.30037C0.862532 1.50768 1.50768 0.863404 2.30038 0.459202C3.20132 0 4.38163 0 6.74049 0H12.9188C15.2785 0 16.4579 0 17.3588 0.459202C18.1515 0.862531 18.7958 1.50768 19.2 2.30037C19.6592 3.20131 19.6592 4.38075 19.6592 6.74049V12.9188C19.6592 15.2785 19.6592 16.4579 19.2 17.3588C18.7967 18.1515 18.1515 18.7958 17.3588 19.2C16.4579 19.6592 15.2776 19.6592 12.9188 19.6592H6.74049C4.38075 19.6592 3.20132 19.6592 2.30038 19.2C1.50768 18.7967 0.863405 18.1515 0.459202 17.3588C8.43683e-07 16.4579 0 15.2776 0 12.9188V6.74049Z" fill="#FFB401"/>
<path d="M3.62243 3.25581C4.27719 2.4186 5.26543 1.87646 6.54176 1.87646C8.11754 1.87646 9.10579 2.58011 9.83125 3.26017C10.5567 2.57923 11.545 1.87646 13.1207 1.87646C14.3971 1.87646 15.3844 2.41948 16.0401 3.25581C16.6826 4.07732 16.9838 5.15112 16.9838 6.21705C16.9838 8.77497 14.948 10.6659 12.9575 12.1064L10.2477 14.1187C9.75268 14.4862 9.62697 15.1732 9.95959 15.6918C10.3228 16.2593 11.0893 16.4041 11.6349 16.0078L14.1754 14.1649L14.8484 15.0929L12.308 16.9358C11.2289 17.7189 9.7134 17.4326 8.99405 16.3099C8.33667 15.2841 8.58547 13.9239 9.56325 13.1976L12.2783 11.181L12.2809 11.1784C14.2853 9.72829 15.8358 8.14378 15.8358 6.21618C15.8358 5.35104 15.5897 4.54176 15.1357 3.96121C14.6939 3.39637 14.0366 3.02185 13.1198 3.02185C11.7239 3.02185 10.9688 3.72636 10.2389 4.46581C10.1316 4.57493 9.98403 4.63691 9.83038 4.63691C9.67673 4.63691 9.53007 4.5758 9.42182 4.46581C8.69199 3.7255 7.93684 3.02185 6.5409 3.02185C5.62424 3.02185 4.96686 3.39724 4.52512 3.96121C4.07116 4.54088 3.82498 5.35104 3.82498 6.21618C3.82498 8.08616 5.31781 9.84439 7.23232 11.1714C7.49247 11.3521 7.55707 11.7091 7.37723 11.9693C7.19652 12.2295 6.83946 12.2941 6.5793 12.1142C4.59584 10.7392 2.67871 8.68155 2.67871 6.21618C2.67871 5.15112 2.9799 4.07732 3.62243 3.25581Z" fill="white"/>
<path d="M7.70703 5.53176C7.70703 5.48638 7.7437 5.44971 7.7891 5.44971H8.7721C8.8175 5.44971 8.85416 5.48638 8.85416 5.53176V7.06652C8.85416 7.11191 8.89083 7.14858 8.93623 7.14858H10.7268C10.7722 7.14858 10.8088 7.11191 10.8088 7.06652V5.53176C10.8088 5.48638 10.8455 5.44971 10.8909 5.44971H11.8739C11.9193 5.44971 11.956 5.48638 11.956 5.53176V9.91253C11.956 9.95791 11.9193 9.99458 11.8739 9.99458H10.8909C10.8455 9.99458 10.8088 9.95791 10.8088 9.91253V8.37777C10.8088 8.33238 10.7722 8.29571 10.7268 8.29571H8.93623C8.89083 8.29571 8.85416 8.33238 8.85416 8.37777V9.91253C8.85416 9.95791 8.8175 9.99458 8.7721 9.99458H7.7891C7.7437 9.99458 7.70703 9.95791 7.70703 9.91253V5.53176Z" fill="white"/>
<path d="M15.849 12.9435C15.4789 12.9435 15.1794 13.2438 15.1794 13.6131C15.1794 13.9832 15.4797 14.2827 15.849 14.2827C16.2183 14.2827 16.5186 13.9825 16.5186 13.6131C16.5186 13.243 16.2191 12.9435 15.849 12.9435ZM14.0322 13.6131C14.0322 12.61 14.846 11.7964 15.849 11.7964C16.8521 11.7964 17.6658 12.61 17.6658 13.6131C17.6658 14.6171 16.8521 15.4299 15.849 15.4299C14.846 15.4299 14.0322 14.6171 14.0322 13.6131Z" fill="white"/>
<path d="M24.6748 13.4507V5.12988H25.6137V8.82649H30.4166V5.12988H31.3555V13.4507H30.4166V9.70511H25.6137V13.4507H24.6748Z" fill="black"/>
<path d="M35.3853 13.5813C34.7594 13.5813 34.2199 13.4117 33.7692 13.0703C33.3173 12.73 33.0908 12.2543 33.0908 11.6431C33.0908 11.0012 33.3287 10.5061 33.8045 10.1567C34.2802 9.80845 34.9176 9.63318 35.7187 9.63318C36.3527 9.63318 36.9786 9.72081 37.5978 9.89495V9.70488C37.5978 9.16655 37.4396 8.75341 37.122 8.46888C36.8045 8.18436 36.3573 8.04095 35.778 8.04095C35.1747 8.04095 34.5533 8.18776 33.9114 8.4814L33.6383 7.73252C34.3986 7.38425 35.144 7.20898 35.8735 7.20898C36.7453 7.20898 37.4065 7.43547 37.8595 7.88731C38.2874 8.31524 38.5014 8.91731 38.5014 9.69463V13.4515H37.5978V12.5365C37.0503 13.233 36.3128 13.5813 35.3853 13.5813ZM35.564 12.8449C36.1352 12.8449 36.6178 12.6902 37.0151 12.3817C37.4111 12.0722 37.6092 11.6761 37.6092 11.1935V10.6222C37.0071 10.4481 36.4085 10.3604 35.8144 10.3604C35.251 10.3604 34.8117 10.4731 34.4953 10.6996C34.1777 10.9249 34.0195 11.2322 34.0195 11.6215C34.0195 11.9948 34.1687 12.2918 34.4657 12.5126C34.7616 12.7334 35.128 12.8449 35.564 12.8449Z" fill="black"/>
<path d="M40.4146 13.4507V5.12988H47.357V13.4507H45.5258V6.78129H42.2457V13.4507H40.4146Z" fill="black"/>
<path d="M54.7585 12.6297C54.0961 13.2716 53.2744 13.5925 52.291 13.5925C51.3077 13.5925 50.4893 13.2727 49.8361 12.6354C49.1817 11.9981 48.855 11.2105 48.855 10.2761C48.855 9.34854 49.1863 8.56438 49.8475 7.92134C50.5099 7.27831 51.3317 6.9585 52.3149 6.9585C53.2982 6.9585 54.1166 7.27717 54.7698 7.91565C55.4231 8.55299 55.7509 9.33944 55.7509 10.275C55.7509 11.2037 55.4197 11.9878 54.7585 12.6297ZM52.3149 12.0356C52.8146 12.0356 53.2141 11.8672 53.5157 11.5303C53.8161 11.1934 53.9674 10.7757 53.9674 10.2761C53.9674 9.7924 53.8116 9.37813 53.4974 9.03328C53.1845 8.68843 52.7826 8.51657 52.291 8.51657C51.7914 8.51657 51.3908 8.68502 51.0904 9.0219C50.7887 9.35878 50.6385 9.77648 50.6385 10.2761C50.6385 10.7598 50.7944 11.1741 51.1086 11.5189C51.4216 11.8626 51.8233 12.0356 52.3149 12.0356Z" fill="black"/>
<path d="M62.8482 7.07812V13.4505H61.0409V8.62368H58.8648V13.4505H57.0586V7.07812H62.8482Z" fill="black"/>
<path d="M64.4644 15.3532V7.078H66.2705V7.99304C66.7781 7.30335 67.4393 6.9585 68.2565 6.9585C69.0498 6.9585 69.7304 7.25555 70.3017 7.84964C70.873 8.44374 71.1575 9.2518 71.1575 10.275C71.1575 11.289 70.8742 12.0925 70.3075 12.6821C69.7406 13.2716 69.0566 13.5675 68.2565 13.5675C67.4644 13.5675 66.802 13.2511 66.2705 12.6172V15.351L64.4644 15.3532ZM66.6938 11.5428C66.991 11.8717 67.3574 12.0356 67.7933 12.0356C68.2292 12.0356 68.5979 11.8717 68.8984 11.5428C69.2 11.2139 69.3503 10.7837 69.3503 10.2533C69.3503 9.73892 69.2 9.31667 68.8984 8.98776C68.5969 8.65884 68.2292 8.49382 67.7933 8.49382C67.3574 8.49382 66.991 8.6577 66.6938 8.98776C66.3969 9.31667 66.2477 9.74688 66.2477 10.2772C66.2477 10.7917 66.3969 11.2139 66.6938 11.5428Z" fill="black"/>
<path d="M74.296 13.5697C73.6701 13.5697 73.1487 13.3956 72.7322 13.0462C72.3167 12.6979 72.1074 12.2142 72.1074 11.5962C72.1074 10.9224 72.3395 10.4148 72.8027 10.0746C73.266 9.73426 73.8908 9.56354 74.6761 9.56354C75.2065 9.56354 75.7265 9.65118 76.2331 9.82531V9.71832C76.2331 8.94213 75.7778 8.55289 74.8661 8.55289C74.3187 8.55289 73.7326 8.66783 73.1066 8.89774L72.6549 7.51835C73.4322 7.17804 74.2562 7.00732 75.128 7.00732C76.0874 7.00732 76.8044 7.2452 77.2802 7.72093C77.7399 8.18073 77.9698 8.8579 77.9698 9.7536V13.4513H76.2228V12.7616C75.738 13.3 75.096 13.5697 74.296 13.5697ZM74.8423 12.3212C75.2622 12.3212 75.6026 12.2165 75.8643 12.0059C76.126 11.7965 76.257 11.5291 76.257 11.2036V10.8826C75.9166 10.7244 75.5319 10.6459 75.103 10.6459C74.7069 10.6459 74.3996 10.7233 74.1821 10.8769C73.9636 11.0317 73.8543 11.2559 73.8543 11.5484C73.8543 11.7863 73.9454 11.9741 74.1275 12.1129C74.3119 12.2529 74.5497 12.3212 74.8423 12.3212Z" fill="black"/>
<path d="M79.5273 7.07812H83.0225C83.6724 7.07812 84.1891 7.22153 84.5737 7.50605C84.9585 7.79059 85.1508 8.17983 85.1508 8.67149C85.1508 9.33729 84.814 9.81643 84.1402 10.1101C84.9722 10.3639 85.3887 10.8988 85.3887 11.7148C85.3887 12.2531 85.177 12.6777 84.7525 12.9872C84.329 13.2968 83.7475 13.4505 83.0111 13.4505H79.5273V7.07812ZM82.5821 9.63434C82.8279 9.63434 83.0169 9.57515 83.1466 9.45565C83.2774 9.33729 83.3435 9.1825 83.3435 8.99244C83.3435 8.82628 83.281 8.68743 83.158 8.57702C83.0351 8.46663 82.8507 8.41086 82.6048 8.41086H81.3097V9.63434H82.5821ZM81.3108 12.0358H82.7369C83.2844 12.0358 83.5575 11.8218 83.5575 11.3939C83.5575 10.9819 83.2684 10.7759 82.6891 10.7759H81.3097L81.3108 12.0358Z" fill="black"/>
<path d="M86.6597 13.4505V7.07812H88.467V9.69351L90.75 7.07812H92.8304L90.4882 9.69351L93.1276 13.4505H90.9868L89.2876 11.0251L88.467 11.9174V13.4505H86.6597Z" fill="black"/>
<path d="M95.4445 15.3886C94.8732 15.3886 94.3394 15.2418 93.8398 14.9481L94.4465 13.6405C94.724 13.8067 94.9813 13.8898 95.2192 13.8898C95.5049 13.8898 95.7142 13.7509 95.8485 13.4744L93.3516 7.07812H95.2659L96.7158 11.4178L98.1066 7.07812H99.9845L97.5353 13.6053C97.2894 14.2631 97.0129 14.7251 96.7033 14.9903C96.396 15.2555 95.9761 15.3886 95.4445 15.3886Z" fill="black"/>
</g>

</g></symbol><symbol id="orthodontics" viewBox="0 0 55 52"><g fill="none">
<path d="M46.5557 16.5128C46.4466 16.4852 46.3328 16.4783 46.2209 16.4925C46.109 16.5066 46.001 16.5415 45.9034 16.5951C45.8058 16.6487 45.7203 16.72 45.6518 16.8049C45.5834 16.8899 45.5334 16.9868 45.5046 17.0901C45.0358 18.7866 44.2012 20.3732 43.0532 21.7504C42.3717 22.5664 42.0339 23.592 42.1048 24.6295C42.1744 25.6601 42.2119 26.7206 42.216 27.7783V27.9442C42.3453 35.1358 40.702 42.2573 37.416 48.7446C36.8756 49.8464 36.1803 50.4525 35.5832 50.3668C35.2815 50.2754 35.0168 50.0988 34.8244 49.8607C34.6322 49.6226 34.5217 49.3346 34.5077 49.0354C34.3756 48.1388 34.2475 47.1578 34.1137 46.1317C33.1733 38.9153 32.1071 30.7359 27.5006 30.7359C22.8941 30.7359 21.8281 38.9149 20.8877 46.1306C20.7539 47.1569 20.6259 48.1384 20.4937 49.0354C20.4798 49.3346 20.3692 49.6226 20.177 49.8607C19.9846 50.0988 19.7199 50.2754 19.4182 50.3668C18.8132 50.4525 18.1254 49.8463 17.5854 48.7446C14.2991 42.2574 12.6556 35.1359 12.7849 27.9442V27.7811C12.7891 26.727 12.8265 25.6666 12.8961 24.6291C12.9674 23.5917 12.6295 22.5661 11.9478 21.7504C10.7848 20.3464 9.94199 18.7299 9.47243 17.0027C9.44442 16.8993 9.39517 16.8021 9.32737 16.7166C9.25956 16.6312 9.17457 16.5592 9.07738 16.505C8.98018 16.4506 8.8725 16.4149 8.7607 16.3999C8.64889 16.3849 8.53501 16.3909 8.42563 16.4175C8.31625 16.4442 8.2135 16.491 8.12326 16.5552C8.03301 16.6195 7.95705 16.6998 7.89972 16.7919C7.84237 16.8838 7.80478 16.9856 7.78909 17.0914C7.77341 17.1971 7.77992 17.3048 7.80827 17.4081C8.33177 19.3565 9.2826 21.1791 10.5992 22.7576C11.0178 23.2587 11.225 23.8887 11.1807 24.5259C11.1089 25.5955 11.0704 26.6888 11.0661 27.7782V27.9441C10.9573 35.3702 12.6544 42.7207 16.026 49.4285C17.2928 52.0108 18.9965 52.068 19.6712 51.9743C20.3429 51.8351 20.9501 51.4967 21.4041 51.0084C21.8582 50.5201 22.1355 49.9076 22.1957 49.2599C22.3295 48.3554 22.4584 47.3648 22.5935 46.3293C23.3186 40.7668 24.4138 32.3609 27.5005 32.3609C30.5873 32.3609 31.6828 40.7675 32.4079 46.3305C32.543 47.3656 32.6719 48.3554 32.8057 49.2599C32.8659 49.9076 33.1432 50.5201 33.5972 51.0084C34.0513 51.4967 34.6585 51.8351 35.3302 51.9743C35.4478 51.9907 35.5666 51.9988 35.6855 51.9985C36.4912 51.9985 37.8932 51.6347 38.9754 49.4285C42.3468 42.7206 44.0435 35.3702 43.9348 27.9441V27.7751C43.9306 26.6821 43.892 25.5887 43.8203 24.5263C43.7764 23.889 43.9836 23.2588 44.4018 22.7572C45.696 21.2058 46.6372 19.4182 47.1663 17.5066C47.2246 17.2982 47.193 17.0766 47.0785 16.8903C46.964 16.7039 46.776 16.5681 46.5557 16.5128Z" fill="currentColor"/>
<path d="M8.3754 10.5821C8.4285 10.5917 8.48246 10.5965 8.53653 10.5964C8.73647 10.5961 8.93 10.5299 9.084 10.4093C9.23791 10.2887 9.34258 10.1211 9.37997 9.93541C9.83191 7.68798 11.1411 3.70764 14.8342 2.29961C17.975 1.10229 19.6816 1.6942 22.0431 2.51345C23.7642 3.17724 25.5763 3.60616 27.4251 3.78734L27.4999 3.7937L27.5746 3.78734C29.4233 3.60616 31.2355 3.17724 32.9566 2.51345C35.319 1.6946 37.0251 1.10229 40.166 2.29961C43.8557 3.70681 45.1657 7.68282 45.6181 9.92753C45.661 10.1389 45.7909 10.3257 45.9793 10.4466C46.1677 10.5676 46.3991 10.613 46.6228 10.5727C46.8466 10.5324 47.0442 10.4098 47.1724 10.2319C47.3006 10.054 47.3489 9.83523 47.3066 9.62365C46.412 5.18544 44.1045 2.04929 40.8089 0.792857C37.0533 -0.639735 34.7752 0.15055 32.3645 0.988044C30.8088 1.59215 29.1715 1.98743 27.4999 2.16236C25.8283 1.98743 24.1909 1.59215 22.6352 0.988019C20.2232 0.150534 17.9443 -0.639751 14.1913 0.792841C10.8926 2.05007 8.58434 5.18938 7.69139 9.63235C7.67031 9.73716 7.67128 9.8449 7.69425 9.94938C7.71722 10.0539 7.76175 10.153 7.82526 10.2412C7.88879 10.3294 7.97007 10.405 8.06446 10.4635C8.15885 10.5219 8.26451 10.5623 8.3754 10.5821Z" fill="currentColor"/>
<path d="M50.3271 12.7495H36.5894V10.8098C36.588 9.63163 36.0923 8.50201 35.211 7.66883C34.3298 6.83566 33.135 6.36702 31.8887 6.36572H23.1116C21.8654 6.36703 20.6706 6.83567 19.7893 7.66883C18.9081 8.50201 18.4125 9.63163 18.4111 10.8098V12.7495H4.67285C4.44493 12.7495 4.22635 12.8351 4.06518 12.9875C3.90402 13.1398 3.81348 13.3465 3.81348 13.562C3.81348 13.7775 3.90402 13.9841 4.06518 14.1365C4.22635 14.2889 4.44493 14.3745 4.67285 14.3745H18.4111V16.3141C18.4125 17.4923 18.9081 18.6219 19.7893 19.4552C20.6706 20.2883 21.8654 20.7569 23.1116 20.7582H31.8887C33.135 20.7569 34.3298 20.2883 35.211 19.4552C36.0923 18.6219 36.588 17.4923 36.5894 16.3141V14.3745H50.3271C50.5551 14.3745 50.7737 14.2889 50.9348 14.1365C51.0959 13.9841 51.1865 13.7775 51.1865 13.562C51.1865 13.3465 51.0959 13.1398 50.9348 12.9875C50.7737 12.8351 50.5551 12.7495 50.3271 12.7495ZM34.8706 16.3141C34.8697 17.0615 34.5552 17.7781 33.9962 18.3065C33.4372 18.8351 32.6793 19.1324 31.8887 19.1332H23.1116C22.3211 19.1324 21.5632 18.8351 21.0042 18.3065C20.4452 17.7781 20.1308 17.0615 20.1298 16.3141V14.3745H21.7441C21.9721 14.3745 22.1906 14.2889 22.3517 14.1365C22.513 13.9841 22.6035 13.7775 22.6035 13.562C22.6035 13.3465 22.513 13.1398 22.3517 12.9875C22.1906 12.8351 21.9721 12.7495 21.7441 12.7495H20.1298V10.8098C20.1308 10.0625 20.4452 9.34587 21.0042 8.81742C21.5632 8.28889 22.3211 7.9916 23.1116 7.99072H31.8887C32.6793 7.9916 33.4372 8.28889 33.9962 8.81742C34.5552 9.34587 34.8697 10.0624 34.8706 10.8098V12.7495H33.5014C33.2735 12.7495 33.0548 12.8351 32.8937 12.9875C32.7326 13.1398 32.642 13.3465 32.642 13.562C32.642 13.7775 32.7326 13.9841 32.8937 14.1365C33.0548 14.2889 33.2735 14.3745 33.5014 14.3745H34.8706V16.3141Z" fill="currentColor"/>
<path d="M24.7852 9.77002C24.5573 9.77002 24.3387 9.85558 24.1775 10.008C24.0164 10.1603 23.9258 10.367 23.9258 10.5825V16.4934C23.9258 16.7089 24.0164 16.9155 24.1775 17.0679C24.3386 17.2202 24.5573 17.3059 24.7852 17.3059C25.0131 17.3059 25.2317 17.2202 25.3928 17.0679C25.554 16.9155 25.6445 16.7089 25.6445 16.4934V10.5825C25.6445 10.367 25.554 10.1603 25.3928 10.008C25.2317 9.85558 25.0131 9.77002 24.7852 9.77002Z" fill="currentColor"/>
<path d="M30.2139 9.77002C29.986 9.77002 29.7673 9.85558 29.6062 10.008C29.4451 10.1603 29.3545 10.367 29.3545 10.5825V16.4934C29.3545 16.7089 29.4451 16.9155 29.6062 17.0679C29.7673 17.2202 29.986 17.3059 30.2139 17.3059C30.4418 17.3059 30.6604 17.2202 30.8215 17.0679C30.9827 16.9155 31.0732 16.7089 31.0732 16.4934V10.5825C31.0732 10.367 30.9827 10.1603 30.8215 10.008C30.6604 9.85558 30.4418 9.77002 30.2139 9.77002Z" fill="currentColor"/>
</g></symbol><symbol id="prosthetics" viewBox="0 0 58 58"><g fill="none">
<g clip-path="url(#clip0_120_142)">
<mask id="mask0_120_142" style="mask-type:luminance" maskUnits="userSpaceOnUse" x="0" y="0" width="58" height="58">
<path d="M58 0H0V58H58V0Z" fill="white"/>
</mask>
<g mask="url(#mask0_120_142)">
<path d="M13.9467 23.8502C13.8807 24.8892 13.8454 25.9499 13.8419 27.0057V27.1659C13.7419 34.3708 15.2984 41.5024 18.3912 48.0105C19.5847 50.5832 21.2113 50.6403 21.8534 50.5426C22.4936 50.4039 23.0726 50.0644 23.5064 49.5736C23.94 49.0826 24.2055 48.466 24.2641 47.8136C24.3867 46.937 24.5052 45.9773 24.6288 44.9736C25.2469 39.957 26.282 31.5608 28.9998 31.5608C31.7181 31.5608 32.7531 39.9579 33.3713 44.9745C33.4952 45.9776 33.6133 46.9375 33.736 47.8136C33.7946 48.466 34.06 49.0826 34.4938 49.5736C34.9274 50.0644 35.5065 50.4039 36.1467 50.5426C36.2606 50.5593 36.3755 50.5675 36.4905 50.5673C37.2596 50.5673 38.5915 50.204 39.6089 48.0105C42.7017 41.5024 44.2581 34.3708 44.1583 27.1659V27.0021C44.1543 25.9424 44.1189 24.8817 44.0533 23.8502C44.0149 23.2628 44.1954 22.6821 44.56 22.22C46.5419 19.6756 47.6124 16.5397 47.6 13.3146C47.6 8.49662 45.9247 2.67237 41.2231 0.775798C39.4357 -0.0259706 37.4305 -0.202896 35.5303 0.273509C34.8135 0.466178 34.1074 0.696904 33.4151 0.964704C32.0027 1.54349 30.5168 1.9231 28.9998 2.09262C27.4845 1.92303 26.0003 1.5431 24.5898 0.963789C22.3604 0.145601 20.2555 -0.626569 16.7769 0.775725C12.0753 2.6723 10.4 8.49655 10.4 13.3146C10.3874 16.5397 11.458 19.6757 13.44 22.2199C13.8045 22.6821 13.985 23.2628 13.9467 23.8502ZM17.4549 2.45638C20.2865 1.31517 21.8295 1.88113 23.965 2.66525C25.5499 3.3115 27.2187 3.72898 28.9211 3.90512L28.9999 3.9122L29.0786 3.90512C30.7822 3.72905 32.4522 3.31219 34.0386 2.667C34.6717 2.42186 35.317 2.20962 35.9719 2.03111C37.4993 1.63522 39.1171 1.78565 40.5452 2.45636C44.4106 4.01575 45.7876 9.08774 45.7876 13.3146C45.8005 16.132 44.8674 18.8722 43.1379 21.0965C42.4958 21.9094 42.1774 22.9313 42.2445 23.9652C42.3078 24.9608 42.3419 25.9852 42.3458 27.0057V27.1659C42.464 34.1091 40.9639 40.9845 37.9646 47.2477C37.5012 48.2477 36.9145 48.8221 36.4136 48.75C36.1648 48.6628 35.9478 48.5032 35.7905 48.2917C35.6332 48.0801 35.5427 47.8265 35.5308 47.5631C35.41 46.6954 35.2927 45.7457 35.1701 44.7528C34.3033 37.7196 33.3209 29.7483 28.9998 29.7483C24.6792 29.7483 23.6969 37.7192 22.83 44.7519C22.7074 45.7448 22.5906 46.6949 22.4694 47.563C22.4574 47.8264 22.367 48.0801 22.2096 48.2916C22.0523 48.5031 21.8353 48.6627 21.5865 48.7499C21.09 48.8163 20.4993 48.2472 20.0355 47.2476C17.0362 40.9845 15.5362 34.1091 15.6544 27.1659V27.0087C15.6579 25.9918 15.692 24.968 15.7557 23.9652C15.8225 22.9314 15.5043 21.9095 14.8622 21.0965C13.1325 18.8723 12.1995 16.132 12.2125 13.3146C12.2125 9.08774 13.5896 4.01578 17.4549 2.45638Z" fill="currentColor"/>
<path d="M55.1574 20.8839C53.4643 19.6631 51.0836 19.6241 47.667 20.7605C47.5538 20.7979 47.4492 20.8572 47.359 20.9351C47.2687 21.0131 47.1948 21.1079 47.1413 21.2145C47.0878 21.321 47.0559 21.437 47.0474 21.5559C47.0388 21.6748 47.0539 21.7942 47.0915 21.9072C47.1292 22.0203 47.1887 22.1249 47.2668 22.2149C47.3449 22.3049 47.4401 22.3787 47.5468 22.4319C47.6534 22.4851 47.7695 22.5167 47.8884 22.525C48.0073 22.5333 48.1267 22.518 48.2397 22.4801C51.0164 21.5553 52.9329 21.5141 54.0971 22.3544C55.5038 23.3686 56.1875 25.8913 56.1875 30.0664V40.0497C56.1875 48.948 49.2402 56.1874 40.7007 56.1874H17.2993C8.75982 56.1874 1.8125 48.948 1.8125 40.0497V30.0664C1.8125 25.8913 2.49617 23.3686 3.90289 22.3544C5.06712 21.5141 6.98361 21.5553 9.76031 22.4801C9.87332 22.5181 9.99277 22.5334 10.1117 22.5252C10.2307 22.517 10.3468 22.4853 10.4535 22.4322C10.5603 22.379 10.6554 22.3053 10.7335 22.2152C10.8117 22.1251 10.8714 22.0205 10.909 21.9074C10.9467 21.7943 10.9616 21.6749 10.9531 21.5559C10.9445 21.437 10.9125 21.321 10.859 21.2144C10.8055 21.1078 10.7315 21.0129 10.6412 20.935C10.5509 20.8571 10.4462 20.7978 10.3329 20.7605C6.91727 19.6228 4.53655 19.6626 2.84265 20.8839C0.90315 22.2827 0 25.2001 0 30.0664V40.0497C0 49.9477 7.76022 57.9999 17.2993 57.9999H40.7007C50.2398 57.9999 58 49.9477 58 40.0497V30.0664C58 25.2001 57.0968 22.2827 55.1574 20.8839Z" fill="currentColor"/>
</g>
</g>

</g></symbol><symbol id="star" viewBox="0 0 35 35"><g fill="none">
<g clip-path="url(#clip0_702_2152)">
<mask id="mask0_702_2152" style="mask-type:luminance" maskUnits="userSpaceOnUse" x="0" y="0" width="35" height="35">
<path d="M35 0H0V35H35V0Z" fill="white"/>
</mask>
<g mask="url(#mask0_702_2152)">
<path d="M15.8881 2.658C16.3781 1.05844 18.6222 1.05844 19.1122 2.658L21.6981 11.1006C21.9166 11.8138 22.5701 12.3002 23.31 12.3002H31.8513C33.4653 12.3002 34.1581 14.3667 32.8755 15.3552L25.8223 20.7913C25.2604 21.2244 25.0257 21.965 25.2346 22.6466L27.8939 31.3291C28.3789 32.9125 26.563 34.1905 25.2576 33.1844L18.5243 27.9949C17.9197 27.5288 17.0806 27.5288 16.476 27.9949L9.74272 33.1844C8.43734 34.1905 6.62145 32.9125 7.10645 31.3291L9.76582 22.6466C9.97458 21.965 9.73995 21.2244 9.17805 20.7913L2.12476 15.3552C0.842276 14.3667 1.53513 12.3002 3.14902 12.3002H11.6902C12.4302 12.3002 13.0838 11.8138 13.3023 11.1006L15.8881 2.658Z" fill="#F6BF54" stroke="#F6BF54" stroke-linecap="round" stroke-linejoin="round"/>
</g>
</g>

</g></symbol><symbol id="surgery" viewBox="0 0 58 58"><g fill="none">
<path d="M49.9343 0.226501C49.3339 0.54369 49.1866 0.838223 48.6882 2.52611C48.2351 4.08939 48.1784 4.51986 48.3937 4.85971C48.507 5.05228 48.2124 5.40345 45.6862 8.06557C44.1343 9.69682 42.5823 11.3394 42.2652 11.6906C41.9366 12.0531 41.6308 12.3476 41.5855 12.3476C41.5402 12.3476 40.7359 11.6226 39.8069 10.7503C38.878 9.86674 37.9152 9.05111 37.6659 8.93783C36.7484 8.51869 35.8081 8.71127 35.0605 9.47025C34.5167 10.0253 34.3241 10.4898 34.3241 11.2148C34.3241 11.7699 34.63 12.5855 34.8905 12.7441C34.9472 12.7781 35.0038 12.8574 35.0038 12.914C35.0038 12.982 29.7249 18.5894 23.2679 25.3976C16.3011 32.7496 11.396 38.0058 11.2034 38.3456C10.6144 39.3538 10.3878 40.3167 10.4445 41.5062C10.5011 42.4351 10.5917 42.8089 11.0335 43.8511C11.0902 43.9871 10.7277 44.4402 9.75344 45.4824C8.17883 47.1476 8.09953 47.3628 8.74523 48.0878L9.0964 48.4956L8.30343 49.3113C7.87297 49.7644 6.10578 51.6222 4.3839 53.4347C0.951481 57.0597 0.917497 57.1164 1.52922 57.7167C1.82375 58.0113 2.14093 58.0679 2.49211 57.8867C2.60539 57.83 4.41789 55.9609 6.51359 53.7519C8.60929 51.5429 10.3652 49.7304 10.4105 49.7304C10.4558 49.7304 10.6144 49.8664 10.773 50.0249C11.1015 50.3874 11.7019 50.6593 11.9737 50.5687C12.087 50.5347 12.7894 49.8664 13.537 49.0734L14.9077 47.6574L15.6327 47.8953C16.6749 48.2351 17.4112 48.3031 18.3288 48.1445C19.6202 47.9292 20.6171 47.3742 21.6933 46.298C22.1917 45.7882 27.5726 40.1355 33.6331 33.7238C39.6937 27.3234 44.6667 22.0898 44.6894 22.0898C44.712 22.0898 44.9159 22.2144 45.1425 22.3617C45.3691 22.5203 45.6976 22.6788 45.8902 22.7128C47.2155 23.0074 48.6882 21.8632 48.8015 20.4472C48.8694 19.6429 48.5636 19.0199 47.714 18.2269C47.3628 17.8984 46.5698 17.1507 45.9695 16.573L44.8706 15.5195L48.3484 11.8605L51.8148 8.19017L52.132 8.37143C52.4378 8.54135 52.5171 8.53002 54.1144 7.98627C56.0062 7.35189 56.5612 6.96674 56.6972 6.19643C56.8898 5.21088 56.8105 5.0976 54.4542 2.79799C53.2534 1.63119 52.0866 0.54369 51.8487 0.373768C51.2823 -0.0227165 50.5007 -0.0793571 49.9343 0.226501ZM52.9476 3.77221C54.0464 4.82572 54.9413 5.72064 54.9413 5.75463C54.9413 5.79994 54.4542 6.00385 53.8652 6.20775L52.7777 6.58158L51.4183 5.31283C50.6706 4.61049 50.0816 3.98744 50.1042 3.90814C50.1382 3.84018 50.2741 3.37572 50.4101 2.88861C50.6933 1.88041 50.7273 1.78978 50.8632 1.83509C50.9085 1.85775 51.8487 2.73002 52.9476 3.77221ZM50.2288 6.67221L50.5347 7.00072L47.1136 10.6031C45.2331 12.5968 43.6585 14.2281 43.6132 14.2507C43.5792 14.2621 43.398 14.1261 43.2167 13.9335L42.8882 13.5937L43.2847 13.1632C46.4452 9.8101 49.7644 6.34369 49.8323 6.34369C49.8777 6.34369 50.0589 6.49096 50.2288 6.67221ZM37.1335 10.6824C37.3261 10.8296 38.5155 11.9398 39.7843 13.1519C41.053 14.364 43.1941 16.3917 44.5421 17.6605C45.8902 18.9292 47.023 20.0621 47.0456 20.1753C47.1249 20.4812 46.7058 20.957 46.3773 20.957C46.1734 20.957 45.2331 20.13 42.6163 17.6378C40.7019 15.8253 38.4362 13.673 37.5753 12.8687C36.6577 11.9964 36.0234 11.3167 36.0234 11.1921C36.0234 10.9769 36.4991 10.4218 36.6804 10.4218C36.7257 10.4218 36.9296 10.5351 37.1335 10.6824ZM40.1921 17.8304L43.398 20.8663L42.5144 21.7953C42.0273 22.305 36.7144 27.9011 30.7218 34.2335C18.578 47.0456 19.3597 46.3206 17.7398 46.4226C17.2413 46.4566 16.7316 46.4113 16.471 46.332C15.2702 45.9468 13.0386 43.9304 12.4722 42.707C12.257 42.2312 12.189 41.8913 12.189 41.291C12.1777 39.807 12.4835 39.2972 14.6925 37.0089L15.7687 35.8988L17.1734 37.2128C18.5667 38.5042 18.7933 38.6402 19.3144 38.4476C19.5749 38.3456 19.8468 37.7566 19.7675 37.4621C19.7335 37.3261 19.0878 36.6238 18.3402 35.9101L16.9694 34.6074L18.4195 33.0781C19.2124 32.2398 19.9034 31.5374 19.9487 31.5148C19.9941 31.4921 20.6171 32.0359 21.3308 32.7156C22.0445 33.4066 22.7468 33.9956 22.8827 34.041C23.4491 34.2222 24.1402 33.5425 23.9589 32.9761C23.9249 32.8515 23.2792 32.1718 22.5429 31.4581L21.1948 30.1554L22.6902 28.5695L24.1855 26.9949L25.5448 28.2636C26.2925 28.9546 26.9948 29.5663 27.1081 29.6003C27.3573 29.691 27.8558 29.5097 28.0484 29.2492C28.139 29.1472 28.207 28.9093 28.207 28.7167C28.207 28.4335 28.003 28.1843 26.8249 27.0628L25.4429 25.7488L25.6808 25.4542C25.8054 25.2956 26.4737 24.5706 27.1648 23.8456L28.4109 22.5316L29.7816 23.8456C30.9937 25.0011 31.1976 25.1484 31.5487 25.1484C32.0585 25.1484 32.3984 24.8199 32.3984 24.3101C32.3984 23.9703 32.2511 23.789 31.0277 22.6109C29.8042 21.4214 29.6796 21.2742 29.8155 21.0929C29.8948 20.9683 30.5632 20.2546 31.2995 19.4843L32.6362 18.0796L33.3952 18.816C35.0605 20.4246 35.4343 20.7304 35.7515 20.7304C36.2046 20.7304 36.5898 20.3226 36.5898 19.8355C36.5898 19.473 36.4652 19.3144 35.2077 18.1249L33.8257 16.7996L35.0605 15.4968L36.3066 14.1941L36.6464 14.4999C36.839 14.6585 38.4249 16.1652 40.1921 17.8304ZM12.9027 46.0261L13.4804 46.5699L12.6081 47.5328L11.7245 48.4843L11.1128 47.8726L10.5011 47.2496L11.3394 46.3433C11.8038 45.8449 12.2116 45.4484 12.257 45.4597C12.2909 45.471 12.5855 45.7316 12.9027 46.0261Z" fill="currentColor"/>
</g></symbol><symbol id="teddy" viewBox="0 0 58 58"><g fill="none">
<g clip-path="url(#clip0_120_122)">
<path d="M14.738 1.07608C12.0873 1.65382 9.77633 3.98741 9.23258 6.62687C8.48492 10.2179 10.558 13.8882 13.9564 14.9757L14.7494 15.2362L14.6814 15.6894C14.6474 15.9386 14.5795 16.7316 14.5455 17.4452C14.3529 20.889 15.4517 23.9929 17.7853 26.5417C18.0912 26.8816 18.3517 27.1874 18.3517 27.2101C18.3517 27.2441 17.808 27.6972 17.1396 28.2183C14.6927 30.1327 13.2994 31.5601 11.9513 33.5878C10.9318 35.1284 10.2634 36.4085 9.50445 38.3683L9.41383 38.6175L8.87008 38.3683C8.42828 38.1757 8.11109 38.1191 7.25016 38.1191C6.30992 38.1191 6.09469 38.1644 5.4943 38.4362C4.55406 38.878 3.72711 39.5237 3.13805 40.2941C0.64586 43.5339 0.192735 49.0847 2.08453 53.0722C3.18336 55.3944 4.7693 56.7425 6.69508 57.037C7.35211 57.139 10.0482 56.8331 11.7814 56.4706C15.2931 55.723 18.6802 54.3523 21.6935 52.4605L22.8037 51.7581L23.7779 51.9847C25.6357 52.4151 26.5306 52.4944 29.0002 52.4944C31.4697 52.4944 32.3646 52.4151 34.2224 51.9847L35.1966 51.7581L36.3068 52.4605C39.3427 54.3636 42.8998 55.7909 46.4568 56.5159C48.0541 56.8444 50.6935 57.1276 51.3732 57.037C52.6533 56.8784 54.092 55.9269 55.0095 54.6581C57.3884 51.3163 57.7736 45.9921 55.9045 42.0612C55.0435 40.2261 54.0806 39.1839 52.608 38.4929C51.8943 38.153 51.7357 38.1191 50.7502 38.1191C49.8892 38.1191 49.5607 38.1757 49.1302 38.3683L48.5865 38.6175L48.4959 38.3683C47.7709 36.5105 47.0912 35.1624 46.1736 33.7577C44.8822 31.7866 43.5228 30.3366 41.2912 28.5694C40.5435 27.9804 39.8638 27.4253 39.7732 27.3573C39.6486 27.2327 39.7732 27.0401 40.4642 26.2358C42.5033 23.8683 43.4095 21.478 43.4322 18.4081C43.4435 17.5359 43.3982 16.4597 43.3529 16.0292L43.2623 15.2249L43.942 15.021C46.3435 14.3073 48.2466 12.1323 48.7791 9.50421C49.7986 4.48585 45.2334 0.0112381 40.1584 1.07608C38.8783 1.34796 37.5982 2.03897 36.6013 3.02452C35.7517 3.8628 35.7404 3.87413 35.4572 3.69288C33.724 2.5714 31.1072 1.81241 29.0002 1.81241C27.1537 1.81241 24.8767 2.40147 23.1548 3.34171L22.2259 3.84015L21.3763 3.01319C19.6205 1.27999 17.1396 0.554989 14.738 1.07608ZM17.5927 2.88858C18.5556 3.1378 19.3373 3.5796 20.0736 4.28194L20.7306 4.90499L19.5638 6.1171C17.7966 7.9296 16.4826 10.014 15.565 12.4495C15.1345 13.5937 15.1345 13.5937 13.8658 12.9706C12.5064 12.3023 11.4416 10.9769 11.0451 9.43624C10.0369 5.58467 13.7412 1.88038 17.5927 2.88858ZM42.9904 2.88858C45.8904 3.64757 47.6916 6.61554 46.9552 9.43624C46.5588 10.9769 45.4939 12.3023 44.1345 12.9706C42.8658 13.5937 42.8771 13.5937 42.4127 12.4042C41.4271 9.87804 40.215 7.95226 38.4365 6.10577L37.2697 4.90499L37.9267 4.28194C39.3314 2.94522 41.2006 2.42413 42.9904 2.88858ZM31.3791 3.91944C32.4439 4.19132 33.9166 4.85968 34.8795 5.49405C35.9896 6.23038 37.5642 7.73702 38.4705 8.9378C39.3654 10.1386 40.6795 12.7441 41.0646 14.1034C43.1943 21.546 39.6599 27.2327 32.0021 28.7394C30.5861 29.0112 27.4142 29.0112 25.9982 28.7394C21.2744 27.7991 18.1025 25.3523 16.8904 21.6933C15.8822 18.6573 16.222 15.1909 17.8533 11.7925C19.915 7.47647 23.3474 4.54249 27.2443 3.7835C28.2525 3.59093 30.3709 3.65889 31.3791 3.91944ZM20.1189 28.9206C18.5443 30.8577 17.672 32.2398 16.947 33.973C15.8935 36.4651 15.4857 38.4362 15.4744 41.0304L15.463 42.8202L14.3869 43.1714C13.7978 43.3753 13.2541 43.5566 13.1861 43.5792C13.1181 43.6019 12.9709 43.3753 12.8576 43.0808C12.5177 42.1745 11.7927 40.8378 11.3623 40.328L10.9431 39.8409L11.2716 38.878C11.9627 36.8503 13.1861 34.7433 14.738 32.8968C15.6556 31.7866 16.6752 30.8691 18.5556 29.4077C19.7564 28.4788 19.9943 28.3429 20.1869 28.4448C20.4021 28.5581 20.4021 28.5694 20.1189 28.9206ZM39.6486 29.5663C40.4302 30.178 41.4045 30.9823 41.8236 31.3675C43.908 33.2933 45.8224 36.2159 46.7287 38.878L47.0572 39.8409L46.6381 40.328C46.2076 40.8378 45.4826 42.1745 45.1427 43.0808C45.0295 43.3753 44.8822 43.6019 44.8142 43.5792C44.7463 43.5566 44.2025 43.3753 43.6134 43.1714L42.5259 42.8202L42.5713 41.6874C42.7412 37.4847 41.0193 32.6249 38.1759 29.2831C37.6662 28.6714 37.6209 28.5921 37.7908 28.4675C38.0287 28.2976 37.938 28.2409 39.6486 29.5663ZM25.5111 30.4952C26.4513 30.6878 27.1084 30.7331 28.8869 30.7444C31.447 30.7558 32.6025 30.5858 34.6529 29.9175L35.933 29.4983L36.6806 30.348C38.5724 32.5456 39.8185 35.1171 40.4642 38.1077C40.8154 39.773 40.8267 42.6843 40.4642 44.1003C40.0677 45.7089 39.5127 46.6831 38.4025 47.8159C36.9752 49.2433 35.3892 49.9909 32.6818 50.478C31.0732 50.7726 26.9271 50.7726 25.3185 50.478C22.6111 49.9909 21.0252 49.2433 19.5978 47.8159C18.4763 46.6831 17.9439 45.7202 17.5361 44.1003C17.2076 42.7749 17.1849 39.8862 17.4908 38.3456C18.1138 35.1737 19.5185 32.3417 21.5802 30.0421L22.09 29.487L23.2228 29.8722C23.8459 30.0874 24.8767 30.3593 25.5111 30.4952ZM8.60953 40.2827C8.93805 40.464 9.41383 40.8491 9.6857 41.1437C10.2634 41.7894 11.0111 43.1941 11.2716 44.123C11.7588 45.9128 11.872 45.9468 14.2736 45.1425C15.1005 44.8593 15.7916 44.6441 15.7916 44.6667C15.8029 44.678 15.9275 45.0632 16.0748 45.5163C16.7318 47.4987 18.3064 49.4925 19.9716 50.4554C20.3908 50.6933 20.7306 50.9085 20.7306 50.9198C20.7306 50.9765 19.0201 51.9394 18.1818 52.3585C15.7576 53.5819 12.4384 54.6015 9.60641 54.998L9.06266 55.0773V52.5511C9.06266 49.5831 8.94938 48.8921 8.24703 47.4874C7.43141 45.8335 5.75485 44.3835 4.06695 43.8851C3.29664 43.6472 3.29664 43.6812 3.94234 42.4464C4.48609 41.3816 5.18844 40.6452 6.03805 40.2148C6.64977 39.8976 6.81969 39.8636 7.38609 39.9089C7.79391 39.9429 8.24703 40.0788 8.60953 40.2827ZM51.9736 40.2261C52.8119 40.6339 53.5142 41.3816 54.058 42.4464C54.7037 43.6812 54.7037 43.6472 53.9334 43.8851C52.2455 44.3835 50.5689 45.8335 49.7533 47.4874C49.0509 48.8921 48.9377 49.5831 48.9377 52.5284C48.9377 54.5448 48.9037 55.0546 48.7904 55.0546C48.4279 55.0546 46.0603 54.5788 44.9049 54.273C42.6845 53.6839 40.3396 52.7097 38.2779 51.5316L37.2584 50.9538L38.142 50.3874C39.8752 49.2773 41.2798 47.4761 41.9256 45.5163C42.0728 45.0632 42.1974 44.678 42.2088 44.6667C42.2088 44.6441 42.8998 44.8593 43.7267 45.1425C46.1283 45.9468 46.2416 45.9128 46.7287 44.123C47.1365 42.6616 48.224 40.9851 49.1302 40.43C50.1838 39.7843 50.9767 39.7163 51.9736 40.2261ZM4.16891 45.8901C5.06383 46.298 6.09469 47.2608 6.55914 48.1331C7.15953 49.2773 7.25016 49.8437 7.25016 52.6983V55.2812H6.98961C6.51383 55.2812 5.35836 54.6128 4.83727 54.0351C4.14625 53.2648 3.44391 51.8601 3.09274 50.546C2.83219 49.5944 2.7982 49.198 2.78688 47.6347C2.77555 46.6378 2.80953 45.7316 2.85484 45.6183C2.9568 45.3691 3.12672 45.403 4.16891 45.8901ZM55.2021 46.1733C55.3494 47.2608 55.2134 49.3226 54.8963 50.5347C54.2506 53.0948 52.7666 54.9866 51.2373 55.2358L50.7502 55.3151V52.7097C50.7502 49.9003 50.8295 49.3226 51.3845 48.2351C51.7244 47.578 52.6306 46.5585 53.2197 46.196C53.7295 45.8788 54.8509 45.4257 54.9982 45.471C55.0662 45.4823 55.1568 45.7995 55.2021 46.1733Z" fill="currentColor"/>
<path d="M23.0414 12.7895C22.6449 12.9594 22.1011 13.6844 21.9199 14.2961C21.5574 15.5082 21.8066 16.8109 22.5429 17.6039C22.9507 18.0344 23.03 18.0684 23.5625 18.0684C24.0949 18.0684 24.1742 18.0344 24.582 17.6039C25.6242 16.4824 25.6355 14.3414 24.6046 13.2312C24.1628 12.7555 23.5285 12.5855 23.0414 12.7895Z" fill="currentColor"/>
<path d="M33.9164 12.7895C33.5199 12.9594 32.9761 13.6844 32.7949 14.2961C32.4324 15.5082 32.6816 16.8109 33.4179 17.6039C33.8257 18.0344 33.905 18.0684 34.4375 18.0684C34.9699 18.0684 35.0492 18.0344 35.457 17.6039C36.4992 16.4824 36.5105 14.3414 35.4796 13.2312C35.0378 12.7555 34.4035 12.5855 33.9164 12.7895Z" fill="currentColor"/>
<path d="M27.4144 18.3287C25.6925 18.7818 24.469 20.0166 24.469 21.2967C24.469 22.5994 25.9757 24.0494 27.6183 24.31C28.0827 24.3779 28.094 24.3893 28.094 24.8311V25.2842L27.5616 25.2049C26.8026 25.0916 25.5339 24.6158 24.7976 24.174C24.4464 23.9588 24.1292 23.7889 24.0952 23.7889C24.0499 23.7889 23.812 24.1061 23.5515 24.4912L23.0757 25.1822L23.3815 25.4314C23.8233 25.7826 25.2167 26.451 26.055 26.7229C27.9921 27.3346 29.9972 27.3346 31.9456 26.7229C32.7952 26.451 34.1546 25.8053 34.6077 25.4428L34.9249 25.1822L34.4491 24.4912C34.1886 24.1061 33.9507 23.7889 33.9054 23.7889C33.8714 23.7889 33.5542 23.9588 33.203 24.174C32.4667 24.6158 31.1979 25.0916 30.439 25.2049L29.9065 25.2842V24.8311C29.9065 24.3893 29.9065 24.3779 30.405 24.31C31.6624 24.1174 33.1577 22.9506 33.4183 21.965C33.5655 21.41 33.4976 20.651 33.2597 20.1865C32.4214 18.5893 29.7253 17.7283 27.4144 18.3287ZM30.7901 20.3564C32.0136 20.9682 32.0022 21.6365 30.7562 22.2596C30.1444 22.5654 29.9745 22.5994 29.0003 22.5994C28.0261 22.5994 27.8562 22.5654 27.2444 22.2596C26.4062 21.8404 26.1456 21.4439 26.3948 20.9908C26.9612 19.9713 29.3515 19.6314 30.7901 20.3564Z" fill="currentColor"/>
</g>

</g></symbol><symbol id="therapy" viewBox="0 0 57 62"><g fill="none">
<path d="M28.2998 10.79V4.73C28.2998 3.74074 27.9069 2.792 27.2074 2.09249C26.5078 1.39298 25.5591 1 24.5698 1C23.5806 1 22.6318 1.39298 21.9323 2.09249C21.2328 2.792 20.8398 3.74074 20.8398 4.73V10.8H28.2998V10.79Z" stroke="currentColor" stroke-width="2" stroke-linecap="round" stroke-linejoin="round"/>
<path d="M44.9098 6.4601L28.2998 4.8501V7.7501L44.9098 12.0801V6.4601Z" stroke="currentColor" stroke-width="2" stroke-linecap="round" stroke-linejoin="round"/>
<path d="M24.7298 10.79L24.5698 17.61" stroke="currentColor" stroke-width="2" stroke-linecap="round" stroke-linejoin="round"/>
<path d="M56.0002 6.45996H44.9102V12.09H56.0002V6.45996Z" stroke="currentColor" stroke-width="2" stroke-linecap="round" stroke-linejoin="round"/>
<mask id="mask0_120_102" style="mask-type:luminance" maskUnits="userSpaceOnUse" x="0" y="14" width="48" height="48">
<path d="M48 14H0V62H48V14Z" fill="white"/>
</mask>
<g mask="url(#mask0_120_102)">
<path d="M8.82886 36.6387C8.76229 37.6249 8.72663 38.6318 8.72306 39.6339V39.786C8.6222 46.6251 10.1927 53.3946 13.3135 59.5723C14.5178 62.0143 16.1591 62.0685 16.807 61.9757C17.4529 61.8441 18.0373 61.5218 18.4749 61.0559C18.9125 60.5899 19.1803 60.0046 19.2395 59.3853C19.3632 58.5532 19.4828 57.6422 19.6074 56.6895C20.2312 51.9276 21.2756 43.9578 24.018 43.9578C26.7608 43.9578 27.8052 51.9285 28.429 56.6904C28.5541 57.6426 28.6732 58.5537 28.7969 59.3853C28.8561 60.0046 29.1239 60.5899 29.5616 61.0559C29.9991 61.5218 30.5835 61.8441 31.2294 61.9757C31.3444 61.9916 31.4603 61.9994 31.5764 61.9992C32.3525 61.9992 33.6964 61.6544 34.723 59.5723C37.8437 53.3946 39.4142 46.6251 39.3134 39.786V39.6306C39.3094 38.6246 39.2737 37.6178 39.2075 36.6387C39.1688 36.0812 39.3509 35.5299 39.7188 35.0913C41.7186 32.6761 42.7987 29.6994 42.7863 26.638C42.7863 22.0647 41.0959 16.5362 36.3518 14.7359C34.5482 13.9749 32.5248 13.8069 30.6075 14.2592C29.8842 14.442 29.1718 14.6611 28.4732 14.9153C27.0481 15.4647 25.5487 15.825 24.018 15.9859C22.489 15.8249 20.9914 15.4643 19.5681 14.9144C17.3186 14.1377 15.1946 13.4048 11.6847 14.7359C6.94054 16.5361 5.25011 22.0647 5.25011 26.638C5.2374 29.6994 6.31763 32.6762 8.3176 35.0912C8.68539 35.5299 8.86745 36.0812 8.82886 36.6387ZM12.3687 16.3312C15.2259 15.2479 16.7828 15.7851 18.9377 16.5294C20.5369 17.1429 22.2207 17.5392 23.9386 17.7064L24.0181 17.7131L24.0975 17.7064C25.8165 17.5392 27.5015 17.1435 29.1024 16.5311C29.7412 16.2984 30.3923 16.097 31.0531 15.9275C32.5943 15.5517 34.2267 15.6945 35.6677 16.3312C39.568 17.8114 40.9575 22.6258 40.9575 26.638C40.9705 29.3124 40.029 31.9135 38.2839 34.0248C37.6359 34.7964 37.3147 35.7665 37.3823 36.7479C37.4462 37.6929 37.4806 38.6653 37.4846 39.6339V39.786C37.6038 46.3767 36.0902 52.903 33.0638 58.8481C32.5962 59.7974 32.0042 60.3426 31.4987 60.2741C31.2477 60.1914 31.0288 60.0399 30.8701 59.8391C30.7113 59.6383 30.62 59.3975 30.608 59.1476C30.4861 58.3239 30.3678 57.4224 30.244 56.4799C29.3694 49.8039 28.3781 42.2373 24.018 42.2373C19.6583 42.2373 18.6671 49.8034 17.7924 56.479C17.6687 57.4216 17.5509 58.3234 17.4285 59.1475C17.4165 59.3975 17.3252 59.6383 17.1664 59.839C17.0077 60.0398 16.7887 60.1913 16.5377 60.274C16.0367 60.3371 15.4406 59.7969 14.9727 58.848C11.9463 52.903 10.4327 46.3767 10.5519 39.786V39.6369C10.5555 38.6716 10.5899 37.6997 10.6542 36.7479C10.7216 35.7666 10.4005 34.7965 9.75263 34.0248C8.00733 31.9136 7.06582 29.3124 7.07899 26.638C7.07899 22.6258 8.46848 17.8114 12.3687 16.3312Z" fill="currentColor"/>
</g>
</g></symbol><symbol id="veneers" viewBox="0 0 62 60"><g fill="none">
<g clip-path="url(#clip0_52_3375)">
<path d="M51.6985 31.6614L50.84 29.2614C50.3631 27.8768 49.5046 26.6768 48.4554 25.6614C47.4061 24.6461 46.0708 23.8153 44.7354 23.3538L42.2554 22.523L44.7354 21.6922C46.1661 21.2307 47.4061 20.3999 48.4554 19.3845C49.5046 18.3691 50.3631 17.0768 50.84 15.7845L51.6985 13.3845L52.5569 15.7845C53.0338 17.1691 53.8923 18.3691 54.9415 19.3845C55.9908 20.3999 57.3261 21.2307 58.6615 21.6922L61.1415 22.523L58.6615 23.3538C57.2308 23.8153 55.9908 24.6461 54.9415 25.6614C53.8923 26.6768 53.0338 27.9691 52.5569 29.2614L51.6985 31.6614ZM47.2154 22.4307C48.1692 22.9845 49.0277 23.5384 49.7908 24.2768C50.5538 25.0153 51.2215 25.8461 51.6985 26.7691C52.2708 25.8461 52.8431 25.0153 53.6061 24.2768C54.3692 23.5384 55.2277 22.8922 56.1815 22.4307C55.2277 21.8768 54.3692 21.323 53.6061 20.5845C52.8431 19.8461 52.1754 19.0153 51.6985 18.0922C51.1261 19.0153 50.5538 19.8461 49.7908 20.5845C49.0277 21.323 48.1692 21.9691 47.2154 22.4307Z" fill="currentColor"/>
<path d="M30.0461 6.55385C29.4738 6.55385 29.0923 6.18462 29.0923 5.63077V0.923077C29.0923 0.369231 29.4738 0 30.0461 0C30.6184 0 31 0.369231 31 0.923077V5.63077C31 6.09231 30.6184 6.55385 30.0461 6.55385Z" fill="currentColor"/>
<path d="M17.2646 9.04608C16.9784 9.04608 16.6923 8.86147 16.5015 8.67685L13.64 4.61531C13.3538 4.15377 13.4492 3.59993 13.9261 3.32301C14.403 3.04608 14.9753 3.13839 15.2615 3.59993L18.123 7.66147C18.4092 8.12301 18.3138 8.67685 17.8369 8.95377C17.6461 8.95377 17.4554 9.04608 17.2646 9.04608Z" fill="currentColor"/>
<path d="M8.10789 18.3693C7.91712 18.3693 7.82173 18.3693 7.63097 18.277L4.2925 16.4309C3.81558 16.1539 3.7202 15.6001 3.91096 15.1386C4.19712 14.677 4.76943 14.5847 5.24635 14.7693L8.58481 16.6155C9.06173 16.8924 9.15712 17.4462 8.96635 17.9078C8.6802 18.277 8.39404 18.3693 8.10789 18.3693Z" fill="currentColor"/>
<path d="M7.05846 30.9231H0.953846C0.381538 30.9231 0 30.5538 0 30C0 29.4461 0.381538 29.0769 0.953846 29.0769H7.05846C7.63077 29.0769 8.01231 29.4461 8.01231 30C8.01231 30.5538 7.63077 30.9231 7.05846 30.9231Z" fill="currentColor"/>
<path d="M17.36 50.6768C16.9784 50.6768 16.5969 50.3999 16.4061 50.0307C15.1661 45.8768 14.5938 41.5384 14.5938 37.1999V37.0153C14.5938 35.9999 14.5938 34.9845 14.6892 34.0615C14.6892 33.5076 14.5938 33.0461 14.2123 32.5845C12.3046 30.1845 11.2554 27.2307 11.2554 24.1845C11.2554 19.6615 12.8769 14.2153 17.4554 12.4615C20.7938 11.1691 22.8923 11.9076 25.0861 12.6461C26.3261 13.1076 27.5661 13.5691 29.2831 13.6615C31 13.4768 32.24 13.0153 33.48 12.6461C34.1477 12.3691 34.8154 12.1845 35.4831 11.9999C37.2954 11.5384 39.2984 11.723 41.0154 12.4615C42.16 12.923 43.2092 13.6615 44.0677 14.5845C44.9261 15.5076 45.5938 16.523 45.9754 17.723C46.1661 18.1845 45.88 18.7384 45.4031 18.923C44.9261 19.1076 44.3538 18.8307 44.1631 18.3691C43.8769 17.4461 43.3046 16.6153 42.6369 15.8768C41.9692 15.1384 41.1108 14.5845 40.2523 14.2153C38.9169 13.5691 37.3908 13.4768 35.96 13.8461C35.3877 14.0307 34.72 14.2153 34.1477 14.3999C32.8123 14.8615 31.3815 15.4153 29.3784 15.5999H29.1877C27.1846 15.4153 25.6584 14.8615 24.4184 14.3999C22.4154 13.6615 20.8892 13.1076 18.2184 14.2153C14.4984 15.6922 13.2584 20.3999 13.2584 24.2768C13.2584 26.8615 14.1169 29.4461 15.8338 31.4768C16.5015 32.2153 16.7877 33.2307 16.6923 34.2461C16.5969 35.1691 16.5969 36.0922 16.5969 37.1076V37.2922C16.5969 41.4461 17.1692 45.5999 18.3138 49.5691C18.5046 50.0307 18.1231 50.5845 17.6461 50.6768C17.5508 50.6768 17.4554 50.6768 17.36 50.6768Z" fill="currentColor"/>
<path d="M36.6279 59.077C36.5325 59.077 36.3417 59.077 36.2463 59.077C35.0063 58.8924 34.0525 57.7847 33.8617 56.4924C33.7663 55.6616 33.671 54.7386 33.4802 53.8155C32.9079 49.2001 31.8587 41.3539 29.3787 41.3539C26.8987 41.3539 25.8494 49.1078 25.2771 53.8155C25.1817 54.7386 25.0863 55.6616 24.8956 56.4924C24.7048 57.877 23.751 58.8924 22.511 59.077C21.8433 59.1693 20.2217 59.077 19.0771 56.677C18.0279 54.5539 17.1694 52.3386 16.5017 50.0309C16.311 49.5693 16.5971 49.0155 17.1694 48.9232C17.6463 48.7386 18.2187 49.0155 18.314 49.5693C18.9817 51.7847 19.8402 53.9078 20.794 55.9386C21.271 57.0462 21.8433 57.3232 22.2248 57.3232C22.511 57.3232 22.8925 56.8616 22.9879 56.3078C23.0833 55.477 23.1787 54.6463 23.3694 53.7232C24.2279 47.1693 25.1817 39.6924 29.3787 39.6924C33.5756 39.6924 34.5294 47.1693 35.3879 53.7232C35.4833 54.6463 35.5787 55.5693 35.7694 56.3078C35.8648 56.9539 36.2463 57.3232 36.5325 57.3232C36.914 57.3232 37.391 57.0462 37.9633 55.9386C40.8248 50.1232 42.2556 43.6616 42.1602 37.2924V37.1078C42.1602 36.1847 42.1602 35.1693 42.0648 34.2462C41.9694 33.2309 42.351 32.3078 42.9233 31.477C44.0679 30.0924 44.831 28.4309 45.2125 26.677C45.3079 26.2155 45.7848 25.8462 46.3571 25.9386C46.834 26.0309 47.2156 26.4924 47.1202 27.0462C46.7387 29.077 45.7848 31.0155 44.4494 32.5847C44.0679 33.0462 43.9725 33.5078 43.9725 34.0616C44.0679 34.9847 44.0679 36.0001 44.0679 37.0155V37.2001C44.1633 43.8462 42.6371 50.677 39.6802 56.677C38.7263 58.7078 37.391 59.077 36.6279 59.077Z" fill="currentColor"/>
</g>

</g></symbol><symbol id="yandex" viewBox="0 0 62 24"><g fill="none">
<g clip-path="url(#clip0_148_151)">
<path d="M6.96159 12.838L3.50159 20.5H0.975586L4.78159 12.309C2.99959 11.422 1.80559 9.783 1.80559 6.797C1.80559 2.599 4.50559 0.5 7.70559 0.5H10.9756V20.5H8.79559V12.838H6.96159ZM8.77859 2.326H7.61859C5.85459 2.326 4.15859 3.469 4.15859 6.796C4.15859 10.022 5.71559 11.046 7.61859 11.046H8.77859V2.326Z" fill="#FF2950"/>
<path d="M21.5776 6.704V20.732H19.4206V14.432H16.1666V20.732H13.9756V6.704H16.1666V12.664H19.4206V6.704H21.5776ZM32.8436 23.5H30.8746V20.749H24.8136V23.5H22.8446V18.965H23.7176C25.0016 15.993 25.1566 11.645 25.1566 7.91V6.704H31.7306V18.949H32.8606V23.5H32.8436ZM29.5566 8.453H27.1076V8.708C27.1076 11.663 26.9706 15.976 25.7896 18.948H29.5566V8.453ZM38.8706 20.936C35.9426 20.936 34.1626 18.626 34.1626 14.312C34.1626 9.795 35.4296 6.517 38.4256 6.517C40.7886 6.517 42.3296 8.267 42.3296 13.039V14.244H36.4396C36.4396 17.42 37.3296 19.084 39.0766 19.084C40.3096 19.084 41.3026 18.524 41.8496 18.134L42.3636 19.798C41.3557 20.5503 40.1283 20.9502 38.8706 20.936ZM36.4566 12.444H40.0866C40.0866 10.049 39.6926 8.3 38.4266 8.3C37.0726 8.283 36.6106 9.93 36.4566 12.444ZM46.7646 13.752V20.749H44.5726V6.72H46.7636V13.207L50.1536 6.72H52.3806L48.8706 13.31L52.8766 20.748H50.4966L46.7636 13.751L46.7646 13.752ZM53.1676 13.718C53.1676 9.319 54.8796 6.5 58.2016 6.5C59.4686 6.5 60.1876 6.84 60.8046 7.23L60.4956 9.285C59.9136 8.775 59.0576 8.317 58.1676 8.317C56.5916 8.317 55.4796 10.067 55.4796 13.616C55.4796 17.131 56.3186 19.136 58.0816 19.136C58.9555 19.1554 59.8049 18.846 60.4616 18.269L60.9756 19.883C60.1636 20.5958 59.1105 20.9724 58.0306 20.936C55.0006 20.936 53.1676 18.507 53.1676 13.718Z" fill="#1E1E1E"/>
</g>

</g></symbol></svg>